<svg xmlns="http://www.w3.org/2000/svg" xmlns:xlink="http://www.w3.org/1999/xlink" width="375" height="373" viewBox="0 0 375 373">
    <defs>
        <filter id="5xmbjjdl1b">
            <feColorMatrix in="SourceGraphic" values="0 0 0 0 1.000000 0 0 0 0 1.000000 0 0 0 0 1.000000 0 0 0 1.000000 0"/>
        </filter>
        <path id="h398h7j9sa" d="M0 0h375v187c0 102.725-83.275 186-186 186h-3C83.275 373 0 289.725 0 187V0z"/>
    </defs>
    <g fill="none" fill-rule="evenodd">
        <g>
            <g>
                <g transform="translate(-1 -48) translate(0 48) translate(1)">
                    <mask id="u8vhjj9h0c" fill="#fff">
                        <use xlink:href="#h398h7j9sa"/>
                    </mask>
                    <use fill="#EFFBEC" xlink:href="#h398h7j9sa"/>
                    <g filter="url(#5xmbjjdl1b)">
                        <g mask="url(#u8vhjj9h0c)">
                            <path fill="#000" d="M46.665 207.414c-.563.354-1.21.542-1.874.542h-3.764l.36 5.735 6.473 11.824c.34.622.483 1.327.406 2.03l-2.817 26.164 5.137 7.876 3.635-3.413 1.077-6.232c.412-2.38 3.076-3.629 5.183-2.426l6.956 3.959 3.876-25.164-3.754-4.032c-1.104-1.181-1.244-2.96-.339-4.299l3.985-5.888-5.047-16.974-2.737-.278-16.756 10.576zm14.03-17.09c.664-.42 1.447-.604 2.226-.525l6.277.636c1.413.143 2.597 1.12 3 2.472l6.175 20.784c.297.99.13 2.068-.45 2.926l-3.356 4.956 3.02 3.24c.723.778 1.052 1.845.891 2.888l-4.904 31.833c-.37 2.412-3.061 3.702-5.19 2.489l-7.043-4.011-.43 2.481c-.126.74-.493 1.422-1.045 1.94l-7.528 7.07c-1.587 1.487-4.146 1.188-5.33-.637l-8.099-12.408c-.437-.67-.63-1.467-.545-2.262l2.838-26.31-6.326-11.547c-.245-.448-.388-.942-.42-1.446l-.636-10.197c-.126-2.002 1.471-3.691 3.488-3.691h6.466l16.92-10.68zm60.582-30.154l30.915 30.147h16.693c1.122 0 2.178.539 2.835 1.446l8.595 11.876 13.921 5.481c1.017.4 1.786 1.252 2.08 2.298l3.607 12.85 5.788 4.326 6.84-2.374c1.975-.691 4.11.49 4.565 2.52l7.724 34.388c.213.956.01 1.96-.563 2.763l-7.078 9.954v14.052h2.475l8.703-11.595v-11.177c0-1.62 1.126-3.024 2.709-3.385l11.36-2.618V248.51l-12.003-5.352c-1.538-.688-2.37-2.374-1.961-4.004l3.38-13.649c.115-.451.318-.879.598-1.25l10.045-13.35c1.317-1.752 3.918-1.874 5.393-.244l5.543 6.11h8.532c1.461 0 2.768.907 3.275 2.266l5.037 13.5h2.184l2.09-5.62-9.182-12.057-24.802-17.935-20.24-6.624c-1.06-.344-1.891-1.175-2.234-2.231l-1.852-5.7c-.374-1.15-.123-2.409.667-3.327l3.059-3.562-1.367-1.157-13.422 2.818c-.968.205-1.97-.007-2.768-.58l-30.621-21.945c-.619-.445-1.073-1.074-1.297-1.8l-9.696-31.389-24.78-16.585c-.696-.466-1.2-1.161-1.42-1.964l-5.82-21.139c-.345-1.254.043-2.596 1.007-3.475l4.08-3.733-4.985-13.086c-.63-1.661.098-3.527 1.688-4.33l22.066-11.133c.489-.25 1.03-.375 1.58-.375h6.067v-9.04l-4.369-3.173c-1.87-1.356-1.922-4.115-.101-5.54l4.414-3.448-24.194-3.264c-1.352-.18-2.474-1.133-2.873-2.433l-3.422-11.18-20.737 4.305-4.886 5.256c-1.146 1.233-3.016 1.477-4.442.573l-4.233-2.676v7.076c0 1.922-1.566 3.476-3.495 3.476h-4.327V34.8c0 3.066-3.695 4.63-5.918 2.51l-4.509-4.314-7.315 1.033c-1.629.23-3.195-.699-3.768-2.232l-.388-1.042-6.86 13.565c-1.175 2.318-4.398 2.586-5.943.493l-8.899-12.06L35.6 44.748c-.654.932-1.723 1.485-2.866 1.485h-8.514l-11.846 1.814 4.652 10.799c.553 1.285.277 2.773-.699 3.781l-8.133 8.394 6.382 7.566c.846 1.004 1.056 2.395.535 3.6l-3.726 8.672 4.201 5.721h11.937c2.635 0 4.323 2.788 3.09 5.102l-3.167 5.95v2.427h3.624l17.092-20.94c1.013-1.238 2.74-1.631 4.194-.957l33.253 15.46c.913.424 1.601 1.22 1.877 2.186l3.656 12.634 3.964 16.877 8.892 8.025 17.28 16.826zm18.126 135.371l1.863 2.975h6.232c.734 0 1.447.233 2.041.657l19.283 13.77h9.51c1.126 0 2.182.54 2.839 1.45l5.466 7.563 10.192 3.25 3.345-8.842-4.554-13.242c-.37-1.088-.185-2.284.503-3.201l8.378-11.192h-12.373l-12.838 3.358-10.632 3.013c-1.17.334-2.426.038-3.324-.782l-8.776-8.004-6.96 5.21c-1.331.994-3.18.914-4.42-.185l-1.266-1.115-4.509 5.317zm70.806-13.763v-7.038c0-.72.224-1.422.643-2.01l6.826-9.592-6.529-29.07-4.897 1.703c-1.1.383-2.324.191-3.254-.504l-8.224-6.155c-.615-.459-1.062-1.109-1.265-1.845l-3.46-12.322-13.261-5.216c-.619-.247-1.16-.664-1.552-1.203l-8.144-11.257h-15.941c-.686 0-1.35-.199-1.92-.57l-32.407-31.16-17.62-17.138-9.604-8.664c-.528-.473-.895-1.095-1.056-1.783l-4.166-17.76-3.17-10.945L51.869 95.61l-16.42 20.114c-.664.813-1.664 1.286-2.716 1.286h-8.784c-1.929 0-3.495-1.557-3.495-3.476v-6.767c0-.566.14-1.122.406-1.623l.856-1.613H13.81c-1.115 0-2.164-.528-2.824-1.425l-6.42-8.744c-.728-.994-.875-2.29-.392-3.417L7.84 81.42.818 73.095c-1.15-1.362-1.08-3.367.161-4.646l8.707-8.985-5.512-12.8c-.899-2.09.426-4.456 2.68-4.804l16.564-2.537 7.494-.042 10.174-14.49c1.37-1.953 4.268-1.988 5.684-.066l8.413 11.4 7.902-15.622c1.374-2.711 5.338-2.496 6.4.354l2.202 5.898 6.211-.876c.986-.139 1.978.146 2.733.775v-4.59c0-1.92 1.566-3.476 3.495-3.476h4.328v-9.93c0-2.739 3.044-4.404 5.368-2.93l7.144 4.515 3.667-3.942c.496-.531 1.143-.896 1.852-1.046L131.441.073c1.772-.365 3.534.67 4.062 2.391l3.697 12.088 30.154 4.07c3.061.41 4.117 4.279 1.688 6.176l-7.277 5.687 2.08 1.511c.898.654 1.432 1.697 1.432 2.805v14.282c0 1.918-1.562 3.475-3.495 3.475h-8.724l-18.52 9.343 4.707 12.366c.503 1.327.147 2.825-.905 3.788l-4.25 3.89 4.914 17.854 24.729 16.55c.664.445 1.153 1.102 1.39 1.86l9.714 31.45 28.416 20.364 13.6-2.853c1.059-.226 2.167.055 2.992.757l5.33 4.526c1.46 1.247 1.636 3.444.384 4.904l-4.058 4.723.706 2.169 19.074 6.242c.35.115.67.278.964.49l25.662 18.56c.276.198.524.438.73.712l10.654 13.983c.72.945.905 2.19.493 3.305l-3.604 9.676c-.503 1.363-1.814 2.27-3.275 2.27h-7.056c-1.461 0-2.769-.907-3.276-2.266l-5.033-13.5h-7.654c-.99 0-1.933-.417-2.594-1.147l-3.74-4.122-7.07 9.398-2.517 10.15 11.405 5.084c1.258.563 2.066 1.804 2.066 3.173v17.629c0 1.612-1.122 3.02-2.709 3.385l-11.36 2.613v9.572c0 .751-.24 1.48-.692 2.082l-10.447 13.916c-.66.876-1.698 1.394-2.803 1.394h-7.72c-1.934 0-3.496-1.553-3.496-3.475v-.63l-7.378 9.857 4.365 12.697c.262.76.248 1.592-.038 2.346l-4.96 13.106c-.654 1.735-2.562 2.652-4.338 2.082l-14.456-4.612c-.713-.226-1.335-.674-1.772-1.279l-5.092-7.045h-8.84c-.734 0-1.443-.23-2.04-.653l-19.287-13.774h-7.05c-1.206 0-2.328-.616-2.968-1.637l-4.229-6.76c-.8-1.28-.681-2.923.294-4.074l8.462-9.985c1.268-1.495 3.526-1.655 4.998-.355l1.803 1.599 6.994-5.234c1.346-1.008 3.223-.918 4.467.219l9.48 8.644 8.821-2.503 13.341-3.493c.29-.073.587-.111.888-.111h18.535z" transform="translate(40 62)"/>
                        </g>
                    </g>
                </g>
            </g>
        </g>
    </g>
</svg>
