<svg xmlns="http://www.w3.org/2000/svg" width="25" height="25" viewBox="0 0 25 25">
    <g fill="none" fill-rule="evenodd">
        <g fill="#F09D4C">
            <g>
                <g>
                    <g>
                        <path d="M17.673.998c.104 0 .205.042.277.117.075.073.118.173.118.278 0 .104-.043.205-.118.277l-.44.44c.289.223.562.464.818.723 2.799 2.81 3.634 7.028 2.118 10.693-1.472 3.558-4.88 5.918-8.708 6.062v2.364h2.755c.193.032.334.198.334.393s-.141.362-.334.393H8.208c-.156.026-.312-.043-.398-.175-.086-.132-.086-.303 0-.435s.242-.201.398-.176h2.744l.001-2.363c-2.335-.086-4.567-1.006-6.286-2.602l-.398.398c-.073.075-.174.117-.278.117-.105 0-.205-.042-.278-.117-.075-.073-.117-.173-.117-.278 0-.104.042-.205.117-.277l.67-.671c.157-.145.4-.145.556 0 1.713 1.716 3.944 2.6 6.19 2.65.13-.085.298-.085.43-.002 2.235-.053 4.454-.933 6.161-2.637 3.532-3.527 3.537-9.25.01-12.781-.322-.336-.673-.645-1.047-.922-.091-.067-.149-.17-.157-.283-.01-.117.032-.232.115-.314l.754-.755c.073-.075.173-.117.278-.117zm-3.67 2.356c1.795.745 3.157 2.187 3.825 3.935.031.024.058.054.08.088.059.09.078.198.056.3.21.668.323 1.376.322 2.102-.003 1.927-.79 3.67-2.06 4.926-.018.024-.04.046-.066.066-1.247 1.2-2.942 1.94-4.81 1.943-2.81.005-5.347-1.686-6.425-4.283-1.078-2.596-.484-5.586 1.504-7.574 1.987-1.988 4.977-2.581 7.574-1.503zm-2.653.265c-1.168-.002-2.283.326-3.237.913L9.57 5.987c.7.705.907 1.763.52 2.68-.385.916-1.286 1.509-2.28 1.5H5.192c.093 1.465.708 2.882 1.789 3.964 1.76 1.764 4.41 2.293 6.714 1.34.638-.264 1.215-.627 1.715-1.067l-1.105-1.67c-.163-.241-.433-.386-.723-.388-.617.012-1.189-.324-1.477-.87l-.105-.23c-.23-.466-.23-1.012 0-1.477l.828-1.656c.277-.561.85-.915 1.477-.911h2.628c-.976-2.11-3.107-3.575-5.583-3.583zm5.883 4.368h-2.928c-.33 0-.63.187-.775.483l-.828 1.644c-.115.246-.115.53 0 .776l.105.199c.145.293.447.477.775.471.553.001 1.07.28 1.372.744l1.025 1.528c.96-1.1 1.521-2.53 1.521-4.053-.001-.623-.094-1.225-.267-1.792zM5.652 7.414c-.265.638-.416 1.302-.46 1.967H7.81c.676.01 1.291-.392 1.555-1.015.265-.623.126-1.344-.35-1.824l-1.551-1.55c-.78.63-1.41 1.456-1.812 2.422z" transform="translate(-48 -1537) translate(0 1508) translate(28.125) translate(20.813 29.172)"/>
                    </g>
                </g>
            </g>
        </g>
    </g>
</svg>
