<svg xmlns="http://www.w3.org/2000/svg" width="25" height="25" viewBox="0 0 25 25">
    <g fill="none" fill-rule="evenodd">
        <g fill="#F09D4C">
            <g>
                <g>
                    <g>
                        <path d="M18.681 1c.762 0 1.492.303 2.03.841.54.539.842 1.269.842 2.03v5.072c-.004.765-.317 1.497-.869 2.026l-.967.982c1.001.47 1.861 1.232 2.449 2.216 1.067 1.785 1.067 4.012 0 5.798-1.067 1.785-3.028 2.84-5.106 2.746-2.19-.005-4.088-1.255-5.022-3.08l-1.069 1.053c-.531.55-1.261.863-2.026.869-.764-.006-1.495-.32-2.026-.869l-5.083-5.048c-1.11-1.123-1.11-2.93 0-4.053l9.738-9.738c.535-.54 1.265-.845 2.026-.845h5.083zM17.06 12.29c-2.547.125-4.547 2.226-4.547 4.776s2 4.65 4.547 4.776c1.763.087 3.43-.804 4.337-2.318.907-1.513.907-3.403 0-4.917-.561-.936-1.413-1.634-2.397-2.01-.038.013-.077.019-.116.019-.116 0-.227-.047-.307-.13l-.026-.034c-.478-.13-.98-.188-1.491-.163zm1.621-10.422h-5.083c-.53.002-1.039.215-1.413.59l-9.738 9.739c-.777.781-.777 2.044 0 2.825l5.084 5.072c.786.764 2.038.764 2.825 0l1.327-1.328c-.169-.535-.26-1.104-.262-1.694.071-3.01 2.434-5.45 5.414-5.64l.225-.01c.605-.028 1.2.042 1.767.2l1.267-1.266c.38-.371.593-.881.59-1.413V3.872c0-1.107-.897-2.004-2.003-2.004zm.776 14.957c.095.147.095.335 0 .481-.096.146-.268.222-.44.194h-3.902c-.172.028-.345-.048-.44-.194-.095-.146-.095-.334 0-.48.095-.147.268-.223.44-.194h3.902c.172-.029.344.047.44.193zM15.96 5.723c.351 0 .668.212.802.537.135.324.06.698-.188.946-.166.16-.385.25-.614.255-.23-.005-.448-.096-.614-.255-.248-.248-.323-.622-.188-.946.134-.325.45-.537.802-.537z" transform="translate(-48 -1444) translate(0 1415) translate(28.125) translate(20.813 29.172)"/>
                    </g>
                </g>
            </g>
        </g>
    </g>
</svg>
