<svg xmlns="http://www.w3.org/2000/svg" width="25" height="25" viewBox="0 0 25 25">
    <g fill="none" fill-rule="evenodd">
        <g fill="#F09D4C">
            <g>
                <g>
                    <g>
                        <path d="M8.688 13.17c.777.218 1.316.925 1.322 1.732l-.001 1.267h1.184c.573.005 1.111.276 1.454.735.344.458.453 1.05.296 1.602l-.765 2.682c-.189.61-.754 1.027-1.393 1.026h-3.75c-.384-.008-.752-.144-1.048-.387l-.544-.453-.005.045c-.085.456-.485.796-.96.795H3.022c-.538 0-.974-.436-.974-.974v-4.599c0-.538.436-.974.974-.974h1.456c.35.024.648.218.82.497l1.36-2.205c.425-.686 1.253-1.008 2.03-.79zm-1.402 1.166l-1.834 2.99v3.036l1.038.857c.163.138.372.213.586.21h3.709c.296-.002.556-.198.639-.482l.765-2.661c.084-.296.034-.614-.137-.87-.193-.285-.514-.458-.859-.46H9.611c-.085-.015-.16-.055-.217-.113-.088-.059-.152-.153-.17-.265v-1.676c.006-.47-.302-.888-.754-1.02s-.936.054-1.184.454zm-2.808 2.116H3.022c-.104 0-.189.085-.189.189v4.599c0 .104.085.189.189.189h1.456c.089-.002.165-.062.189-.147v-4.589c0-.146-.084-.24-.189-.24zM18.087 1.524c1.074-.01 2.064.58 2.566 1.53l1.802 3.54c.409.802.369 1.76-.105 2.525-.39.63-1.005 1.075-1.707 1.253v10.009h.65c.155-.026.311.043.397.175.086.133.086.303 0 .435s-.242.201-.398.176h-5.238c-.192-.032-.333-.198-.333-.393s.14-.362.333-.393h3.803V10.46h-.117c-1.002-.03-1.934-.538-2.502-1.372-.609.876-1.615 1.391-2.682 1.372-1.077.028-2.093-.498-2.692-1.393-.598.892-1.609 1.417-2.682 1.393-1.075.03-2.09-.492-2.692-1.383-.565.836-1.493 1.346-2.492 1.382l-.2.001c-.984-.001-1.898-.508-2.42-1.341-.471-.767-.507-1.724-.095-2.525l1.812-3.54c.499-.944 1.48-1.533 2.546-1.53h12.446zm0 .838H5.64c-.766-.018-1.482.383-1.865 1.048L1.985 6.95c-.295.556-.271 1.227.063 1.76.382.597 1.04.96 1.75.964.552.059 1.106-.105 1.538-.454.384-.311.645-.747.739-1.228l.027-.182c-.003-.104.037-.204.11-.278.074-.073.174-.113.278-.11.104-.003.205.037.28.11.075.073.118.173.118.278.12 1.147 1.146 1.98 2.294 1.864.561.055 1.12-.118 1.553-.48.431-.363.699-.885.741-1.447.032-.193.198-.334.393-.334s.361.141.393.334c.042.562.31 1.084.741 1.446.432.363.992.536 1.553.481.561.055 1.121-.118 1.553-.48.432-.363.7-.885.741-1.447.032-.193.198-.334.393-.334s.362.141.393.334c.043.562.31 1.084.742 1.446.431.363.991.536 1.552.481.71-.004 1.367-.367 1.75-.964.331-.533.359-1.2.073-1.76l-1.802-3.54c-.383-.665-1.098-1.066-1.864-1.048z" transform="translate(-48 -1238) translate(0 1209) translate(28.125) translate(20.813 29.172)"/>
                    </g>
                </g>
            </g>
        </g>
    </g>
</svg>
