<svg xmlns="http://www.w3.org/2000/svg" width="25" height="25" viewBox="0 0 25 25">
    <g fill="none" fill-rule="evenodd">
        <g fill="#F09D4C">
            <g>
                <g>
                    <g>
                        <path d="M18.9 8.96l2.26 4.195c.052.03.096.071.13.122.046.07.066.153.06.233l.08.15c.459.853.524 1.863.178 2.767-.3.786-.885 1.425-1.631 1.795l.905 2.573 1.368-.495c.193-.068.405.03.48.22.035.094.03.198-.013.289-.044.09-.122.16-.217.191l-3.37 1.23-.13.02c-.176-.012-.32-.143-.35-.317-.028-.174.067-.345.23-.413l1.332-.482-.93-2.564c-.259.063-.525.095-.792.096-.556 0-1.103-.142-1.59-.41-.84-.46-1.444-1.257-1.66-2.19l-1.18-5.22c-.157-.674.218-1.359.87-1.59l2.29-.84c.641-.222 1.349.048 1.68.64zM7.53 8.32l2.29.84c.652.231 1.027.916.87 1.59l-1.18 5.22c-.216.933-.82 1.73-1.66 2.19-.487.268-1.034.41-1.59.41-.265-.001-.528-.033-.785-.094l-.932 2.549 1.337.475c.19.075.288.287.22.48-.044.157-.186.267-.35.27h-.13l-1.645-.61H3.93c-.03-.012-.057-.027-.081-.045L2.25 21c-.104-.027-.191-.097-.24-.193-.047-.096-.051-.208-.01-.307.04-.093.115-.166.208-.204.094-.037.2-.036.292.004l1.346.478.93-2.555c-.747-.369-1.333-1.008-1.634-1.796-.346-.904-.28-1.914.178-2.767l2.53-4.7c.328-.596 1.039-.866 1.68-.64zm13.178 5.54H15.55L16 15.81c.165.722.632 1.339 1.282 1.693.592.321 1.283.398 1.927.219l.191-.062c.703-.255 1.262-.802 1.53-1.5.266-.703.215-1.487-.14-2.15l-.082-.15zm-11.472 0H4.08l-.08.15c-.355.663-.406 1.447-.14 2.15.246.64.736 1.153 1.357 1.43l.173.07c.69.253 1.456.195 2.1-.16.651-.354 1.12-.969 1.29-1.69l.456-1.95zM7.06 8.99c-.23 0-.442.126-.55.33l-2.028 3.79H9.41L10 10.59c.07-.307-.096-.618-.39-.73l-2.3-.83c-.079-.034-.165-.047-.25-.04zm10.42 0l-2.3.83c-.294.112-.46.423-.39.73l.589 2.56H20.3L18.24 9.32c-.108-.204-.32-.33-.55-.33-.07-.014-.14-.014-.21 0zM13.57 1.5c1.17.038 2.096 1 2.09 2.17 0 1.693-2.172 3.086-2.99 3.473-.056.058-.134.096-.219.106l-.071.001c-.14.022-.275-.035-.357-.139-.86-.425-2.933-1.79-2.933-3.441-.006-1.17.92-2.132 2.09-2.17.443-.006.87.14 1.214.408.333-.259.746-.405 1.176-.408zM9.84 3.67c0 1.262 1.914 2.465 2.518 2.784.557-.283 2.552-1.513 2.552-2.804-.004-.748-.593-1.363-1.34-1.4-.316-.008-.62.114-.842.336-.014.039-.038.073-.068.104-.057.052-.128.085-.204.096l-.076.004c-.024 0-.047-.004-.07-.008l.07.008c-.11-.003-.215-.05-.29-.13-.225-.268-.56-.419-.91-.41-.755.038-1.346.664-1.34 1.42z" transform="translate(-48 -1723) translate(0 1694) translate(28.125) translate(20.813 29.172)"/>
                    </g>
                </g>
            </g>
        </g>
    </g>
</svg>
