<svg xmlns="http://www.w3.org/2000/svg" width="25" height="25" viewBox="0 0 25 25">
    <g fill="none" fill-rule="evenodd">
        <g fill="#F09D4C">
            <g>
                <g>
                    <g>
                        <path d="M19.669 13.016c.392-.012.771.14 1.047.42l1.603 1.707c.557.563.557 1.47 0 2.032l-4.63 4.63c-.26.258-.61.404-.975.41H13.97c-.216 0-.393-.173-.399-.388v-2.714c-.011-.392.14-.771.42-1.047l4.63-4.63c.241-.245.562-.392.901-.417l.147-.003zm-.032.86c-.173-.005-.34.063-.46.188l-4.631 4.63c-.125.12-.193.288-.189.461v2.274h2.357c.172-.003.337-.07.461-.189l4.63-4.63c.095-.12.147-.267.147-.42.004-.173-.065-.34-.188-.46l-1.666-1.666c-.097-.1-.223-.163-.358-.182l-.103-.007zM6.848 2.571H18.16c1.373.005 2.483 1.12 2.483 2.493v5.238c-.032.192-.198.334-.393.334s-.361-.142-.393-.334V5.065c0-.94-.758-1.702-1.697-1.708H7.023V16.19h3.804c.192.032.333.198.333.393s-.14.362-.333.393H4.54c-.64-.05-1.254.263-1.59.81-.046.076-.086.154-.12.234l.002.664c-.002.102-.044.195-.11.264.033.217.11.429.228.623.336.547.95.86 1.59.81h6.286c.192.031.333.198.333.393s-.14.361-.333.393H4.54c-.927.06-1.811-.4-2.293-1.195-.402-.662-.469-1.463-.202-2.171l.002-12.736C2.053 3.69 3.166 2.577 4.54 2.57h1.873c.132-.085.302-.085.434 0zm-.61.785H4.541c-.943 0-1.708.765-1.708 1.708v11.658c.476-.377 1.082-.573 1.708-.533h1.697V3.357z" transform="translate(-48 -1340) translate(0 1302) translate(28.125) translate(20.813 38.86)"/>
                    </g>
                </g>
            </g>
        </g>
    </g>
</svg>
