<svg xmlns="http://www.w3.org/2000/svg" width="25" height="25" viewBox="0 0 25 25">
    <g fill="none" fill-rule="evenodd">
        <g fill="#F09D4C">
            <g>
                <g>
                    <g>
                        <path d="M12.375 20.511c.186 0 .345.135.375.319v1.55c-.005.202-.168.365-.37.37-.206 0-.375-.164-.38-.37v-1.55c.03-.184.189-.319.375-.319zM6.62 18.09c.071.07.112.165.112.265s-.04.195-.112.265l-1.05 1.09c-.07.074-.168.114-.27.11-.111.01-.221-.031-.3-.11-.071-.07-.112-.165-.112-.265s.04-.195.112-.265l1.09-1.09c.148-.144.382-.144.53 0zm12 0l1.09 1.09c.071.07.112.165.112.265s-.04.195-.112.265c-.07.069-.162.108-.26.11-.102.004-.2-.036-.27-.11l-1.09-1.09c-.071-.07-.112-.165-.112-.265s.04-.195.112-.265c.148-.144.382-.144.53 0zm-6.447-8.437l.207.207.07-.08c.913-.967 2.426-1.042 3.43-.17.499.4.818.982.888 1.618.069.636-.117 1.274-.518 1.772-1.054 1.387-2.28 2.634-3.65 3.71-.067.037-.144.051-.22.04-.083-.002-.164-.03-.23-.08-1.34-1.05-2.542-2.262-3.58-3.61-.846-1.048-.709-2.579.31-3.46.958-.829 2.377-.794 3.293.053zM10.5 9.75c-.67.003-1.28.391-1.565.997-.287.607-.199 1.324.225 1.843.945 1.222 2.025 2.332 3.22 3.31 1.22-1.006 2.324-2.147 3.29-3.4.548-.704.442-1.715-.24-2.29-.7-.632-1.774-.597-2.43.08l-.35.38c-.152.151-.398.151-.55 0l-.35-.38c-.324-.345-.777-.54-1.25-.54zM2.38 12h1.54c.184.03.319.189.319.375s-.135.345-.319.375H2.38c-.149.024-.298-.041-.38-.167-.082-.127-.082-.29 0-.416s.231-.191.38-.167zm18.54 0h1.46c.184.03.319.189.319.375s-.135.345-.319.375h-1.46c-.149.024-.298-.041-.38-.167-.082-.127-.082-.29 0-.416s.231-.191.38-.167zm-1.408-7.027c.13.035.23.136.265.265.035.13-.002.267-.097.362l-1 1c-.07.069-.162.108-.26.11-.1 0-.198-.04-.27-.11-.071-.07-.112-.165-.112-.265s.04-.195.112-.265l1-1c.095-.095.233-.132.362-.097zM5.57 5l1 1c.071.07.112.165.112.265s-.04.195-.112.265c-.053.09-.14.154-.24.18-.098-.002-.19-.041-.26-.11l-1-1c-.107-.09-.159-.229-.135-.367.024-.137.12-.251.25-.3.131-.048.278-.022.385.067zm7.013-3c.126.082.191.231.167.38v1.45c0 .206-.164.375-.37.38-.1 0-.197-.04-.269-.111C12.04 4.027 12 3.93 12 3.83V2.38c-.024-.149.041-.298.167-.38.127-.082.29-.082.416 0z" transform="translate(-48 -1630) translate(0 1601) translate(28.125) translate(20.813 29.172)"/>
                    </g>
                </g>
            </g>
        </g>
    </g>
</svg>
