<svg xmlns="http://www.w3.org/2000/svg" width="25" height="25" viewBox="0 0 25 25">
    <g fill="none" fill-rule="evenodd">
        <g fill="#F09D4C">
            <g>
                <g>
                    <g>
                        <path d="M16.924 1.283c.364.276.577.706.576 1.163v3.792h.66c1.373.006 2.483 1.12 2.483 2.493v11.524c-.006 1.37-1.114 2.477-2.483 2.483H5.589c-1.373 0-2.488-1.11-2.494-2.483V6.636c.022-1.08.737-2.023 1.77-2.336l10.802-3.237c.43-.127.895-.046 1.257.22zm1.236 5.74H3.881v13.232c.006.94.769 1.697 1.708 1.697H18.16c.935-.005 1.691-.762 1.697-1.697V8.731c0-.939-.758-1.701-1.697-1.707zm-4.484 3.406c1.672.005 3.027 1.356 3.038 3.027 0 2.776-4.494 5.092-4.84 5.092-.356 0-4.798-2.316-4.798-5.092.011-1.651 1.335-2.993 2.986-3.027.66-.01 1.304.217 1.812.639.504-.424 1.144-.651 1.802-.64zm0 .785c-.578-.01-1.132.23-1.519.66-.16.159-.417.159-.576 0-.386-.43-.94-.67-1.52-.66-1.218.029-2.194 1.022-2.2 2.242 0 2.022 3.207 3.897 4.013 4.274.796-.377 4.002-2.252 4.002-4.274-.005-1.22-.98-2.213-2.2-2.242zm2.19-9.397L5.096 5.054c-.563.169-.999.617-1.152 1.184h12.77V2.446c.005-.207-.093-.403-.262-.524-.164-.133-.386-.173-.586-.105z" transform="translate(-48 -1037) translate(0 1008) translate(28.125) translate(20.813 29.172)"/>
                    </g>
                </g>
            </g>
        </g>
    </g>
</svg>
