<svg xmlns="http://www.w3.org/2000/svg" width="25" height="25" viewBox="0 0 25 25">
    <g fill="none" fill-rule="evenodd">
        <g fill="#F09D4C">
            <g>
                <g>
                    <g>
                        <path d="M20.255 1c1.373.006 2.483 1.12 2.483 2.493v5.238c-.006 1.37-1.114 2.478-2.483 2.483h-9.534v1.373l4.097.66c1.334.2 2.264 1.427 2.095 2.765l-.576 4.547c-.153 1.244-1.209 2.178-2.462 2.18H8.333c-.84.006-1.628-.412-2.095-1.111L3.41 17.385c-.505-.807-.401-1.853.251-2.546.805-.752 2.055-.752 2.86 0l.272.272v-3.897h-3.3c-1.373 0-2.487-1.11-2.493-2.483V3.493C1.006 2.12 2.119 1.006 3.493 1h16.762zm-12.1 6.09c-.382.237-.597.67-.555 1.118v7.857c-.007.155-.104.292-.248.351-.144.059-.31.028-.422-.079l-.943-.943c-.23-.232-.543-.364-.87-.366-.458-.002-.88.248-1.099.651-.218.402-.199.893.052 1.276l2.828 4.243c.321.477.86.76 1.435.754h5.542c.857.002 1.581-.637 1.687-1.487l.566-4.547c.113-.909-.51-1.746-1.415-1.896l-4.42-.712c-.192-.031-.333-.195-.336-.388v-1.883c-.086-.132-.086-.303 0-.435V8.208c.042-.448-.173-.88-.555-1.118-.382-.237-.865-.237-1.247 0zm12.1-5.304H3.493c-.943 0-1.707.764-1.707 1.707v5.238c.005.94.768 1.698 1.707 1.698l3.3-.001v-2.22c-.053-.736.309-1.44.939-1.825.63-.385 1.422-.385 2.052 0 .63.384.992 1.089.938 1.825l-.001 2.22h9.534c.935-.005 1.692-.762 1.697-1.697V3.493c0-.939-.758-1.702-1.697-1.707zm-2.547 1.936c.855.356 1.41 1.192 1.405 2.118-.002.485-.155.934-.415 1.303l.572.572c.075.073.118.173.118.278 0 .104-.043.205-.118.277-.075.074-.177.115-.282.116-.103-.002-.2-.044-.273-.116l-.572-.572c-.369.26-.818.413-1.303.415-.926.005-1.762-.55-2.118-1.405-.357-.854-.162-1.839.493-2.493.654-.655 1.639-.85 2.493-.493zm-.868.62c-.607-.004-1.156.358-1.392.917-.235.56-.11 1.206.319 1.637.427.43 1.072.56 1.633.329.172-.07.325-.17.455-.293.008-.016.02-.03.033-.044l.046-.036c.248-.27.394-.63.394-1.012 0-.823-.665-1.492-1.488-1.498z" transform="translate(-48 -1137) translate(0 1101) translate(28.125) translate(20.813 36.438)"/>
                    </g>
                </g>
            </g>
        </g>
    </g>
</svg>
