<svg xmlns="http://www.w3.org/2000/svg" xmlns:xlink="http://www.w3.org/1999/xlink" width="360" height="359" viewBox="0 0 360 359">
    <defs>
        <path id="kt0rzp379a" d="M0 0h360v179.52c0 98.616-79.944 178.56-178.56 178.56h-2.88C79.944 358.08 0 278.136 0 179.52V0z"/>
        <path id="5j5rhmwgxc" d="M0 49.476S17.5 28.21 38.284 15.783C62.836 1.1 77.493 0 77.493 0l23.07.448s11.741 3.222 24.2 13.132c15.327 12.192 33.346 33.4 33.346 33.4s-1.833 3.669-4.764 11.01c-5.02 12.569-14.426 9.192-14.426 9.192s4.465 27.508 5.99 43.034c1.524 15.526 2.308 25.254 2.308 25.254s-18.98 12.811-54.051 13.638c-38.853.915-69.22-12.407-69.22-12.407l7.005-42.548 7.19-9.279s-10.294-7.573-15.372-11.46C7.77 61.936 0 49.476 0 49.476"/>
    </defs>
    <g fill="none" fill-rule="evenodd">
        <g>
            <path fill="#EDF6FA" d="M0 0h360v179.52c0 98.616-79.944 178.56-178.56 178.56h-2.88C79.944 358.08 0 278.136 0 179.52V0z"/>
            <g>
                <mask id="f8b9w25gzb" fill="#fff">
                    <use xlink:href="#kt0rzp379a"/>
                </mask>
                <path fill="#FFF" d="M218.89 453.12c4.715 0 4.81 2.508 8.654 2.508 1.247 0 1.25 1.332 0 1.332-4.713 0-4.811-2.508-8.654-2.508l-.33.006c-3.522.14-3.749 2.502-8.324 2.502-4.71 0-4.807-2.508-8.648-2.508l-.33.006c-3.52.14-3.748 2.502-8.322 2.502-1.247 0-1.25-1.332 0-1.332 3.838 0 3.942-2.508 8.652-2.508 4.71 0 4.807 2.508 8.648 2.508l.33-.006c3.52-.139 3.75-2.502 8.324-2.502zm21.224 2.88c.467 0 .846.215.846.48s-.38.48-.846.48h-1.195c-1.117 0-1.12-.96 0-.96zm122.814-36.48c1.215 0 1.217 1.871 0 1.871h-39.414c-2.159 0-3.914 1.786-3.914 3.982v.856c0 2.196 1.755 3.982 3.914 3.982h34.167c3.171 0 5.752 2.626 5.752 5.853v.642c0 3.228-2.58 5.854-5.752 5.854h-14.21c-1.216 0-1.218-1.871 0-1.871h14.21c2.158 0 3.913-1.787 3.913-3.983v-.642c0-2.195-1.755-3.981-3.913-3.981h-34.167l-.22-.005c-3.071-.118-5.534-2.697-5.534-5.849v-.856c0-3.227 2.581-5.853 5.754-5.853zm-63.815 0c3.297 0 5.98 2.626 5.98 5.853v1.498c0 3.226-2.683 5.853-5.98 5.853H285.34c-2.244 0-4.068 1.787-4.068 3.982 0 2.196 1.824 3.983 4.068 3.983h29.545c.527 0 .956.419.956.936 0 .516-.429.935-.956.935h-29.545c-3.297 0-5.979-2.626-5.979-5.854s2.682-5.854 5.98-5.854h13.773c2.243 0 4.069-1.786 4.069-3.981v-1.498c0-2.196-1.826-3.982-4.069-3.982h-15.678l-.13-.007c-1.13-.124-1.09-1.864.13-1.864zm-244.108 0c3.185 0 5.778 2.626 5.778 5.853v.856c0 3.227-2.593 5.854-5.778 5.854H34.987c-2.168 0-3.932 1.786-3.932 3.981v.642c0 2.196 1.764 3.983 3.932 3.983H83.36c2.167 0 3.932-1.787 3.932-3.983 0-2.195-1.765-3.982-3.932-3.982h-4.383l-.222-.005c-3.083-.118-5.556-2.697-5.556-5.848v-1.498c0-3.227 2.592-5.853 5.778-5.853h15.147l.126.007c1.093.124 1.053 1.864-.126 1.864H78.977c-2.168 0-3.93 1.786-3.93 3.982v1.498c0 2.195 1.762 3.981 3.93 3.981h4.383c3.186 0 5.778 2.626 5.778 5.854s-2.592 5.854-5.778 5.854H34.987c-3.187 0-5.779-2.626-5.779-5.854v-.642c0-3.227 2.592-5.853 5.779-5.853h20.018c2.168 0 3.93-1.786 3.93-3.982v-.856c0-2.196-1.762-3.982-3.93-3.982h-25.29l-.125-.007c-1.093-.124-1.053-1.864.126-1.864zm186.808 18.24l.39.007c3.915.147 4.104 2.501 7.497 2.501.474 0 .86.298.86.666 0 .368-.386.666-.86.666-4.299 0-4.38-2.508-7.887-2.508-1.136 0-1.139-1.332 0-1.332zm-42.127 0c4.713 0 4.809 2.508 8.65 2.508.521 0 .944.298.944.666 0 .367-.423.666-.944.666-2.5 0-3.788-.747-4.923-1.406-1.021-.59-1.902-1.102-3.727-1.102l-.312.005c-1.616.055-2.454.541-3.415 1.097-1.135.66-2.423 1.406-4.924 1.406-2.499 0-3.785-.747-4.92-1.406-1.02-.592-1.9-1.102-3.724-1.102l-.312.005c-1.616.055-2.452.54-3.412 1.097-1.136.66-2.424 1.406-4.924 1.406-.52 0-.943-.299-.943-.666 0-.368.423-.666.943-.666 1.825 0 2.705-.511 3.726-1.102 1.135-.66 2.423-1.406 4.922-1.406 4.71 0 4.807 2.508 8.644 2.508l.33-.006c3.52-.14 3.749-2.502 8.321-2.502zm56.748 2.88c.467 0 .846.215.846.48s-.38.48-.846.48h-1.195c-1.118 0-1.12-.96 0-.96zm-34.848-2.88c2.207 0 3.342.747 4.345 1.406.9.591 1.677 1.102 3.286 1.102l.27-.005c.617-.022 1.14-.125 1.628-.318.137-.054.269-.077.392-.077l.09.005c.71.07 1.072.944.256 1.266-.786.31-1.648.461-2.636.461-2.206 0-3.342-.747-4.343-1.406-.9-.592-1.678-1.102-3.288-1.102l-.275.005c-1.426.055-2.165.541-3.013 1.097-1.002.66-2.139 1.406-4.345 1.406-.46 0-.833-.298-.833-.666 0-.368.373-.666.833-.666 1.61 0 2.387-.51 3.287-1.102 1.003-.66 2.14-1.406 4.346-1.406zm7.86-11.52c4.71 0 4.81 2.508 8.65 2.508.52 0 .944.299.944.666 0 .368-.423.666-.944.666-2.501 0-3.788-.747-4.925-1.406-1.02-.591-1.9-1.102-3.726-1.102l-.312.005c-1.616.055-2.453.54-3.414 1.097-1.135.659-2.423 1.406-4.924 1.406-2.498 0-3.786-.747-4.922-1.406-1.019-.591-1.899-1.102-3.722-1.102l-.313.005c-1.615.055-2.452.54-3.412 1.097-1.135.659-2.423 1.406-4.923 1.406-.52 0-.943-.298-.943-.666 0-.367.423-.666.943-.666 1.824 0 2.705-.51 3.725-1.102 1.136-.659 2.423-1.406 4.923-1.406 2.354 0 3.556.627 4.648 1.254l.383.22c.954.546 1.92 1.034 3.613 1.034l.33-.006c3.52-.139 3.747-2.502 8.32-2.502zm-41.282 0c2.356 0 3.56.627 4.653 1.254l.383.22c.955.546 1.921 1.034 3.616 1.034.521 0 .944.299.944.666 0 .368-.423.666-.944.666-2.5 0-3.79-.747-4.925-1.406-1.021-.591-1.902-1.102-3.727-1.102l-.313.005c-1.616.055-2.454.54-3.414 1.097-1.136.659-2.424 1.406-4.926 1.406-4.71 0-4.806-2.508-8.647-2.508l-.329.006c-3.518.139-3.748 2.502-8.319 2.502-1.247 0-1.25-1.332 0-1.332 3.837 0 3.94-2.508 8.648-2.508 4.71 0 4.808 2.508 8.647 2.508l.313-.005c1.617-.055 2.454-.54 3.415-1.097 1.136-.659 2.424-1.406 4.925-1.406zM17.393 400.32c7.447 0 7.611 12.444 0 12.444h-34.768c-2.126 0-3.854 1.806-3.854 4.027v.649c0 2.221 1.728 4.028 3.854 4.028H7.126c.5 0 .906.423.906.945 0 .523-.406.947-.906.947h-24.501c-3.124 0-5.665-2.656-5.665-5.92v-.649c0-3.264 2.541-5.92 5.665-5.92h34.768c2.126 0 3.854-1.806 3.854-4.026v-.605c0-2.22-1.728-4.027-3.854-4.027H5.81l-.123-.007c-1.072-.126-1.033-1.886.123-1.886zm165.971 10.56c2.501 0 3.789.747 4.925 1.406 1.02.591 1.903 1.102 3.728 1.102.52 0 .943.299.943.666 0 .368-.423.666-.943.666-4.714 0-4.81-2.508-8.653-2.508l-.33.006c-3.521.139-3.748 2.502-8.322 2.502-4.71 0-4.807-2.508-8.647-2.508l-.33.006c-3.518.139-3.748 2.502-8.32 2.502-1.246 0-1.248-1.332 0-1.332 3.839 0 3.94-2.508 8.65-2.508 4.71 0 4.807 2.508 8.647 2.508l.33-.006c3.522-.139 3.748-2.502 8.322-2.502zm186.594-.96c.332 0 .602.215.602.48s-.27.48-.602.48h-2.642c-.794 0-.796-.96 0-.96zm-12.86 0c.542 0 .982.215.982.48s-.44.48-.982.48h-10.525c-1.296 0-1.299-.96 0-.96zm-116.53-22.08l.005 1.584-20.756.052.014 4.1h43.291l-.015-5 1.753-.004.016 5.004h5.365c2.385 0 4.319 1.747 4.319 3.902v.67c0 2.154-1.934 3.901-4.319 3.901H220.96c.26.114.503.236.74.358l.351.185c.933.488 1.864.943 3.569.943.483 0 .876.355.876.792 0 .438-.393.793-.876.793-2.248 0-3.424-.622-4.463-1.172-.968-.512-1.804-.955-3.576-.955l-.303.005c-1.568.047-2.362.468-3.274.95-1.037.55-2.213 1.172-4.46 1.172-4.285 0-4.355-2.127-8.033-2.127-1.159 0-1.161-1.584 0-1.584 2.246 0 3.421.622 4.46 1.172.966.512 1.802.954 3.573.954l.303-.005c1.566-.047 2.361-.467 3.272-.95.336-.177.691-.36 1.088-.53h-.184l-.215-.006c-2.285-.101-4.103-1.807-4.103-3.897v-.669c0-2.155 1.933-3.902 4.318-3.902h4.055l-.017-5.68 22.508-.056zm-57.218 13.44c2.455 0 3.74.483 4.874.91.563.211 1.886.774 3.967.755l.288-.006c.391-.013.807-.047 1.248-.107 1.244-.168 1.635 1.033.4 1.202-.617.085-1.27.126-1.998.126-2.341 0-3.53-.413-4.638-.825l-.413-.154c-.965-.356-1.97-.671-3.728-.671-1.266 0-1.268-1.23 0-1.23zm-48.055-96.96v19.487h29.825v1.848h-41.907l.001 1.731v8.496l-.001 2.605V339.945l-.001.358v1.05l-.001.34v.666l-.002.954v.602c-.003 1.174-.005 2.163-.008 2.86h10.659c-.095-1.234-.107-2.569-.11-4.63l-.001-.53c-.002-1.55-.003-3.49-.029-6.041l1.843-.02c.023 2.22.026 3.974.028 5.409v.557c.003 2.164.008 3.562.086 4.797l.021.306.012.151h3.53v1.849h-3.308c.217 1.366.57 2.988 1.153 5.608h2.156v1.849h-1.745c.328 1.483.714 3.234 1.167 5.338l-1.8.39c-.49-2.281-.9-4.155-1.246-5.728h-14.11l-2.795 13.593 21.003.068h6.54c1.763-6.826 5.495-14.295 13.341-20.843l1.178 1.421c-6.147 5.13-10.5 11.905-12.647 19.422h2.775v1.848h-3.249c-.684 2.927-1.047 5.948-1.047 9.02v7.231h2.631v6.59h4.681c5.996 0 5.955 9.73 0 9.73H95.751c-.768 0-1.492-.195-2.123-.538h-9.882l-.224-.004c-3.197-.118-5.762-2.764-5.762-5.999 0-3.31 2.686-6.003 5.986-6.003.501 0 .908.407.908.91 0 .502-.407.91-.908.91-2.3 0-4.171 1.877-4.171 4.183 0 2.307 1.871 4.184 4.171 4.184h8.07c-.34-.633-.533-1.355-.533-2.124v-.768c0-2.475 2-4.481 4.468-4.481h5.065v-6.59h8.367v-7.23c0-3.105-.371-6.122-1.051-9.02h-4.566v-1.85h4.084c-4.716-16.445-19.842-28.516-37.737-28.516l-.649.005c-21.356.349-38.62 17.88-38.62 39.38v7.231H28.8v-7.23c0-22.737 18.444-41.234 41.113-41.234l.567.003c18.67.255 34.365 13.06 39.086 30.362h7.25l2.81-13.661h-1.581v-1.849h1.96l1.153-5.608h-3.113v-1.849h3.323l.003-21.119H85.344v-1.848h36.027V304.32h13.924zM5.76 332.16v55.68h1.99c1.186 0 1.188 1.791 0 1.791h-55.894c-2.107 0-3.821 1.71-3.821 3.813v1.272c0 2.101 1.714 3.811 3.82 3.811h29.055c.495 0 .897.402.897.897 0 .494-.402.896-.897.896h-29.054c-3.097 0-5.616-2.514-5.616-5.604v-1.272c0-3.09 2.52-5.604 5.616-5.604H4.8v-55.68h.96zm412.909 55.68c3.116 0 5.651 2.514 5.651 5.604v1.272c0 3.09-2.535 5.604-5.651 5.604h-56.23c-1.193 0-1.196-1.792 0-1.792h56.23c2.12 0 3.845-1.71 3.845-3.812v-1.272c0-2.103-1.725-3.813-3.845-3.813l-6.418.001c-34.552.005-56.87.054-71.275.065l-1.288.001-1.245.001h-5.607c-19.76-.013-17.91-.19-17.91-.963 0-.495.405-.896.903-.896zm-272.847-16.25h-35.8c.65 2.905 1.004 5.921 1.004 9.02v7.23h6.509v1.82H102.63v4.77h44.793v-4.77h-8.332v-1.82h5.672c0-3.543-.373-9.497 1.06-16.25zm55.809 18.17c.513 0 .929.215.929.48s-.416.48-.93.48h-14.47c-1.226 0-1.228-.96 0-.96zm81.6-1.92c.513 0 .929.215.929.48s-.416.48-.929.48h-14.47c-1.227 0-1.229-.96 0-.96zm12.954-48l.778.007c21.998.404 40.957 17.637 40.957 40.019v7.014h-1.873v-7.014c0-21.372-18.106-37.841-39.12-38.226l-.743-.007-.745.007c-3.233.058-6.527.498-9.825 1.36l-.494-1.73c3.718-.972 7.43-1.431 11.065-1.43zm-26.63-251.52l.188.001c3.243.066 6.186 2.99 5.531 6.737l-3.027 20.154-1.788-.273c3.143-20.922 3.546-21.413 2.558-22.878l-.064-.094-.103-.15c-1.996-2.869-6.413-1.834-7.008 1.566l-5.073 28.992 13.957 2.483 5.075-28.996c.481-2.752 2.849-4.698 5.525-4.738l.212.001c.284.007.57.034.858.085 3.09.549 5.161 3.53 4.617 6.645l-3.784 21.614-1.78-.316 3.783-21.615c.45-2.579-1.6-4.591-3.837-4.6l-.16.004c-.696.027-1.404.25-2.056.71-1.813 1.28-1.139-.106-6.672 31.523l13.958 2.483 5.075-29c.547-3.127 3.502-5.203 6.595-4.651 3.09.548 5.162 3.529 4.617 6.644l-5.076 29 13.957 2.484 5.076-29.005c.373-2.124-1.04-4.159-3.15-4.534s-4.129 1.05-4.5 3.175l-3.487 20.997-1.783-.3 3.488-21.005c.547-3.123 3.504-5.207 6.596-4.661 3.09.55 5.162 3.53 4.618 6.644l-5.077 29.005 10.906 1.94-.314 1.795-74.458-13.245-12.985 72.43h3.718c.391-.015.91-.02 1.598-.022h.55l1.638-10.882c.495-2.835 2.886-4.72 5.52-4.761h.215c.286.007.575.036.863.087 3.098.55 5.164 3.522 4.617 6.644l-1.515 8.933h1.821V184.9h1.808v11.382c0 .059.013.114.026.167l.013.051c.09.352.047.549-3.97.654L255.1 211.09l-1.782-.307c.886-5.22 1.607-9.38 2.187-12.717l-2.573 4.638.33 10.85 15.166 2.858 4.812-27.497c.372-2.124-1.042-4.159-3.151-4.533-2.112-.377-4.128 1.05-4.5 3.175l-3.864 22.081-1.78-.317 3.863-22.081c.483-2.752 2.846-4.701 5.525-4.74l.212.002c.284.007.57.035.858.086 3.091.55 5.163 3.53 4.618 6.644l-4.816 27.515 4.519.852 4.824-27.563c.264-1.508 1.095-2.823 2.341-3.702 1.011-.714 2.106-1.04 3.172-1.052h.188c3.247.075 6.16 3.042 5.51 6.746l-3.545 20.262-1.781-.317 3.546-20.261c.373-2.129-1.036-4.159-3.151-4.534-2.095-.376-4.124 1.03-4.5 3.174l-4.827 27.581 13.933 2.627 4.853-27.728c.547-3.123 3.496-5.203 6.595-4.652 3.09.55 5.162 3.53 4.617 6.644l-4.873 27.845 6.072 1.144 7.493-41.759-6.772-1.314.341-1.788 6.752 1.31 6.718-37.432 1.779.324-6.721 37.452 3.094.601-.342 1.789-3.074-.597-7.491 41.75 3.294.62-.331 1.79-3.286-.618-7.855 43.777 3.492.677-.341 1.789-3.473-.674-3.364 18.748c1.371.55 2.703 1.322 3.956 2.334l-1.13 1.422c-1.003-.81-2.065-1.438-3.157-1.912l-2.33 12.98-1.778-.323 2.38-13.266c-1.065-.293-2.147-.445-3.222-.466l-.269-.002-.268.003c-6.881.145-13.335 5.613-13.335 13.618h-1.807c0-9.238 7.595-15.516 15.567-15.446l.281.005c1.127.031 2.259.19 3.377.485l3.324-18.525-44.45-8.623.14 4.62c.006.245-.085.484-.255.66-.171.178-.405.278-.65.278h-8.84c-.245 0-.48-.1-.65-.278-.17-.176-.261-.415-.254-.66l.2-6.62-15.038-2.917-3.237 18.05 6.484 1.152.324-1.85c.687-3.923 4.067-6.695 7.888-6.732l.245.002c.408.008.82.048 1.235.122 2.127.377 3.981 1.567 5.22 3.35 1.24 1.783 1.714 3.944 1.34 6.088l-.325 1.85 4.526.804.323-1.85c.688-3.932 4.082-6.711 7.915-6.733l.24.002c.401.01.807.05 1.214.122 4.391.78 7.334 5.014 6.559 9.439l-.324 1.85 4.477.795.065-.347c.646-3.422 1.354-5.146 3.632-6.754 5.844-4.122 13.859.909 12.603 8.09l-.619 3.532-1.78-.316.618-3.533c.6-3.436-1.684-6.723-5.094-7.328-.302-.054-.604-.086-.902-.095l-.224-.003-.222.005c-2.88.119-5.403 2.246-5.924 5.224l-.324 1.85 2.376.422-.315 1.795-2.375-.422-.81 4.623-1.78-.316c.313-1.785.552-3.31.768-4.631l-4.484-.797-3.499 19.994-1.78-.317 3.499-19.993-2.448-.435.314-1.794 2.448.435.323-1.851c.291-1.664-.078-3.343-1.04-4.727-.962-1.384-2.4-2.308-4.053-2.601-.378-.067-.755-.099-1.127-.096l-.222.005c-2.88.12-5.403 2.246-5.924 5.222l-.323 1.85 2.376.422-.314 1.795-2.376-.422-3.94 22.507-1.78-.317 3.939-22.506-4.525-.805-4.029 23.022v18.337h60.386v1.821h-60.356l.213 20.815h3.495v1.82h-3.27l1.185 5.529h2.085v1.822h-1.694l2.886 13.464h5.666c1.793-6.646 5.245-12.756 10.16-17.79l1.29 1.277c-4.578 4.688-7.828 10.351-9.575 16.513h3.764v1.822h-4.233c-.668 2.882-1.02 5.86-1.02 8.89v7.126h-1.808v-7.126c0-3.027.338-6.002.976-8.89h-4.83l.001.004-1.097-.004h-27.672c.629 2.847.964 5.82.964 8.89v7.126h-1.808v-7.126c0-3.077-.355-6.05-1.013-8.89h-4.9v-1.822h4.433c-4.691-16.522-19.94-28.085-36.92-28.136l-.63.003c-3.782.052-7.645.677-11.491 1.945l-.563-1.731c4.285-1.413 8.589-2.062 12.79-2.039l.663.01c17.642.396 33.35 12.635 38.026 29.948h5.635l2.756-13.464h-1.55v-1.822h1.922l1.132-5.528h-3.054v-1.821h3.26v-8.453h1.809l-.018 8.453h10.44l-.212-20.815h-40.823v-1.821h40.792v-17.595h-10.044v12.088h-1.809v-13.909h12.014l3.895-22.259-2.448-.435.315-1.794 2.447.435.324-1.85c.291-1.664-.078-3.343-1.04-4.727-.962-1.385-2.4-2.309-4.053-2.601-.378-.068-.755-.1-1.127-.098l-.222.005c-2.881.118-5.403 2.247-5.925 5.224l-.323 1.85.12.022-.314 1.793-.12-.021-4.514 25.795-1.78-.318 4.513-25.793-6.49-1.154-3.727 20.78c.323.972.505 2.009.505 3.089h-1.058l-.473 2.64-1.78-.323.94-5.249c-1.161-2.942-4.01-5.03-7.339-5.03l-.324.007c-1.726.072-3.392.716-4.723 1.831l-1.215 1.018-.256-1.57c-.728-4.48-4.532-7.73-9.042-7.73l-.266.003c-4.932.142-8.901 4.229-8.901 9.232h-1.808c0-6.097 4.923-11.057 10.975-11.057l.3.004c4.795.128 8.872 3.327 10.211 7.868l.306-.18c1.441-.812 3.076-1.247 4.743-1.247l.321.005c3.091.102 5.814 1.673 7.523 4.035l3.305-18.442-2.737-.486.314-1.794 2.745.487 3.241-18.079-2.756-.534.341-1.789 2.737.531 10.438-58.227h-1.1l-3.14 5.663c-.222.4-.363.478-1.808.484h-.474l-.177-.001c-.606-.004-1.378-.011-2.367-.015l-1.239 40.788-1.806-.055 1.258-41.42c-1.669-3.005-2.578-4.576-3.036-5.455l-5.86-.006-.051.1c-.485.918-1.419 2.537-3.107 5.58-.221.4-.361.478-1.807.484h-.474l-.177-.001c-.606-.004-1.378-.011-2.366-.015l-1.91 62.886h6.978l-1.71-56.29 1.808-.056 1.737 57.23c.008.245-.084.484-.254.66-.17.178-.404.278-.649.278-2.783 0-4.789.04-6.228.048l-.202.001-.194.001h-.187c-2.503-.002-2.96-.158-2.934-.989l1.957-64.462c-.467-.741-1.273-2.281-3.038-5.47l-5.847-.007-.05.096c-.468.892-1.371 2.46-2.996 5.387l1.93 63.573h2.1v1.822h-4.089c-2.84.005-4.667.025-5.861.03l-.146.001h-.637c-.488-.002-.818-.01-1.05-.031h-2.96v-1.822h2.067c.024-3.698.49-16.763 1.912-63.579-.468-.743-1.277-2.288-3.048-5.49l-5.833-.005-3.172 5.72c-.222.4-.362.478-1.808.484h-.474l-.177-.001c-.606-.004-1.377-.011-2.366-.015l-1.104 36.361c2.41 1.007 4.728 2.112 6.964 3.317.294.158.478.466.478.802v22.406h2.613v1.822h-2.613v5.484h-1.808v-5.481l-.397.002c-1.956.012-3.438.039-4.557.044h-.429c-.683 0-1.211-.013-1.618-.05h-3.322v-1.821h2.075l.768-25.31c-2.851-1.142-5.835-2.148-8.968-3.021l.019.58c.144 4.592.253 8.042.332 10.634v-1.21h5.424v1.822h-5.405c.1 3.296.146 5.092.15 6.083v.302c-.003.76-.042.895-.105.958l-.015.014-.034.027-.018.015-.02.02-2.217 2.544c3.074.869 5.337 3.71 5.337 7.081v10.605h5.432v1.822h-12.738v-1.822h5.498v-9.322h-10.993v10.233h-1.808v-10.233h-1.405v-1.822h1.432c.071-.973.33-1.892.741-2.725.048-2.66.174-6.929.388-13.78h-.491v-1.822h.549l.385-12.181c-8.555-1.546-18.125-2.294-28.964-2.294v-1.822l1.156.003c10.363.051 19.577.796 27.867 2.275l.02-.655c.257-8.133.572-18.176.948-30.578-.469-.744-1.28-2.294-3.058-5.508h-8.111v-1.822H189.349l.777-.002h.374c1.967-.005 3.523-.012 4.758-.016h.227l.433-.002h.405l.192-.001h.86c.624.003 1.102.009 1.47.021h9.168l.776-.002h.374c1.842-.004 3.325-.01 4.52-.015h.235l.448-.002h.213l.206-.001h.39l.185-.001h.516c.704.002 1.231.008 1.63.021h21.22l13.042-72.746-3.34-.593.314-1.795 3.347.595 1.347-7.513 1.78.323-1.346 7.507 5.118.91 5.074-28.992c.264-1.509 1.095-2.823 2.342-3.702.999-.705 2.088-1.029 3.151-1.043zM359.04 331.2v53.76h-.96V331.2h.96zM97.987 381.12c.493 0 .893.215.893.48s-.4.48-.893.48H69.054c-.494 0-.894-.215-.894-.48s.4-.48.894-.48zm97.92 0c.493 0 .893.215.893.48s-.4.48-.894.48h-28.94c-1.18 0-1.183-.96 0-.96zm100.764 0c.513 0 .929.215.929.48s-.416.48-.93.48H282.2c-1.226 0-1.228-.96 0-.96zm-50.911-4.8v1.052h-6.265v2.788h-1.848v-2.788h-6.287v-1.052h14.4zm-113.28 0v1.052h-6.265v2.788h-1.849v-2.788h-6.286v-1.052h14.4zm-74.88-5.76l.213.005c2.548.112 4.587 2.22 4.587 4.795 0 2.647-2.154 4.8-4.8 4.8-2.647 0-4.8-2.153-4.8-4.8s2.153-4.8 4.8-4.8zm0 1.715l-.181.005c-1.617.094-2.904 1.44-2.904 3.08 0 1.7 1.384 3.084 3.085 3.084l.18-.005c1.618-.094 2.905-1.44 2.905-3.08 0-1.7-1.385-3.084-3.085-3.084zm186.83-17.657h-13.856l-2.74 13.397 19.481.064-2.885-13.461zm-110.356-5.995H123.04l-1.153 5.608h13.323c-.577-2.618-.925-4.233-1.135-5.608zm108.78-1.355H232.08l-1.131 5.528h13.09l-1.184-5.528zM345.6 336.96v2.51h-4.915v7.09h-1.656v-7.09H336v-2.51h9.6zM32.64 340.8v1.052h-7.6v2.788h-1.85v-2.788h-4.95V340.8h14.4zm226.56-7.68l.15.006c.989.076 1.77.906 1.77 1.914 0 1.059-.861 1.92-1.92 1.92-1.06 0-1.92-.861-1.92-1.92s.86-1.92 1.92-1.92zm0 1.094l-.104.007c-.406.05-.721.399-.721.819 0 .455.37.826.825.826l.103-.007c.407-.05.723-.399.723-.819 0-.455-.37-.826-.826-.826zM100.8 331.2l.15.006c.989.076 1.77.906 1.77 1.914 0 1.059-.861 1.92-1.92 1.92-1.06 0-1.92-.861-1.92-1.92s.86-1.92 1.92-1.92zm120 1.92v.96h-9.6v-.96h9.6zm-120-.819l-.095.005c-.379.039-.73.31-.73.814 0 .546.412.818.825.818l.095-.004c.379-.04.73-.31.73-.814 0-.546-.412-.819-.825-.819zm32.652-26.133h-10.239v17.64h10.239v-17.64zM26.88 321.6v.96h-37.44v-.96h37.44zm354.24 0v.96h-37.44v-.96h37.44zM312 313.92v.96h-60.48v-.96H312zm-234.24 0v.96H-7.68v-.96h85.44zm147.84 0v.96h-86.4v-.96h86.4zm-114.24 0v.96h-19.2v-.96h19.2zm261.12 0v.96h-47.04v-.96h47.04zm-52.617-11.112c4.528-5.967 13.011-5.605 17.097.816l-1.495 1.16c-1.651-2.595-4.379-4.215-7.258-4.223l-.211.002c-2.746.068-5.607 1.609-7.789 5.17-.856-.585-2.048-1.542-4.011-1.542l-.223.004c-3.32.13-5.986 3.15-5.986 6.845h-1.827c0-5.127 3.836-8.884 8.063-8.872l.215.004c1.078.036 2.177.317 3.241.885zM39.36 278.4l.305.003c7.106.158 12.675 5.799 12.053 12.35.901.09 1.756.262 2.563.502l.12-.225c1.234-2.23 3.754-3.764 6.664-3.764 4.122 0 7.476 3.072 7.476 6.85v4.667H66.69v-4.666c0-2.843-2.523-5.156-5.625-5.156l-.257.005c-2.125.088-3.942 1.265-4.814 2.933 4.66 2.15 7.21 6.818 6.671 11.405l11.037-.014v-9.173c0-3.779 3.353-6.851 7.475-6.851s7.476 3.072 7.476 6.85v9.156l5.16-.007v-9.148c0-3.779 3.355-6.851 7.477-6.851 4.121 0 7.476 3.072 7.476 6.85v5.45h-1.851v-5.45c0-2.842-2.523-5.155-5.625-5.155l-.226.004c-2.998.11-5.4 2.378-5.4 5.152v9.147l15.694-.02.002 1.696-49.034.06v-.008l-.112.36c-.435 1.319-1.147 2.596-2.163 3.768l-1.45-1.055c3.858-4.448 2.852-11.47-3.138-14.381l-.017.215-.007.218h-1.85c0-.382.043-.755.108-1.12-1.217-.371-2.583-.6-4.112-.64l.178-.962c.1-.544.152-1.09.152-1.626 0-5.334-4.734-9.673-10.555-9.673V278.4zM26.4 267.84l.26.004c5.526.153 9.57 5.18 8.165 10.34 2.89 2.352 4.535 5.73 4.535 9.36h-1.929c0-3.771-1.835-6.492-4.851-8.71 1.974-5.483-2.05-9.158-6.18-9.158l-.232.003c-4.472.143-7.665 4.377-6.172 8.532l.224.622c-9.483 6.976-3.695 18.513 5.215 19.226v-6.508h1.93v6.487l.408-.047c.956-.126 1.933-.375 2.92-.773l.751 1.693c-1.35.543-2.723.848-4.079.945v7.344h-1.93v-7.35c-6.432-.473-11.995-5.557-11.995-12.307 0-3.63 1.644-7.007 4.534-9.359-1.426-5.237 2.764-10.344 8.426-10.344zm93.12 22.08c3.97 0 7.2 3.022 7.2 6.738v5.091h-1.782v-5.091c0-2.796-2.43-5.07-5.418-5.07l-.223.004c-2.884.11-5.195 2.34-5.195 5.066V307.2h-1.782v-10.542c0-3.716 3.23-6.738 7.2-6.738zM5.579 232.32v9.603l.265-.104c1.412-.533 2.842-.784 4.243-.787l.262.002c7.16.144 13.484 6.75 12.725 15.19 3.886.428 7.412 2.709 9.566 6.236l-1.457 1.011c-2.019-3.305-5.428-5.348-9.119-5.463l-1-.03c1.502-9.412-4.63-15.132-11.03-15.074l-.238.005c-1.424.044-2.856.376-4.217 1.017v61.354H3.84v-72.96h1.739zm96.86 1.92l4.277 11.71-.622.226h11.614v-5.75c0-.497.405-.9.903-.9h4.166v1.8h-3.265v4.85h5.47v1.8h-12.498l3.177 10.4.211-.107c.992-.482 2.033-.712 3.057-.72h.22c3.723.081 7.169 3.05 7.169 7.28v10.485h5.03v-10.486c0-4.012 3.268-7.276 7.286-7.276l.24.004c3.907.127 7.046 3.34 7.046 7.272v4.048h-1.803v-4.048c0-3.019-2.46-5.475-5.483-5.475l-.22.004c-2.922.116-5.263 2.526-5.263 5.471v10.486h7.772v1.8h-13.156l4.253 13.458.116-.237c1.202-2.349 3.66-3.965 6.498-3.965 4.018 0 7.286 3.233 7.286 7.21v4.307h-1.803v-4.308c0-2.983-2.46-5.408-5.483-5.408l-.22.004c-2.922.114-5.263 2.494-5.263 5.404h-.18l3.223 10.2-1.72.541-8.598-27.205H43.2v-1.801h9.74v-10.486c0-4.012 3.268-7.276 7.285-7.276l.24.004c3.908.127 7.047 3.34 7.047 7.272v10.486h5.03v-10.486c0-4.012 3.268-7.276 7.285-7.276 4.018 0 7.287 3.264 7.287 7.276v10.486h5.03v-10.486c0-4.012 3.268-7.276 7.286-7.276l.24.004c3.906.127 7.046 3.34 7.046 7.272v2.66h-1.804v-2.66c0-3.019-2.459-5.475-5.482-5.475l-.22.004c-2.922.116-5.263 2.526-5.263 5.471v10.486h25.002l-8.35-27.337H99.23v-1.801h5.65l-4.134-11.32 1.694-.616zm-21.262 54.721l-.226.004c-2.997.11-5.4 2.378-5.4 5.152v9.17l11.252-.013v-9.157c0-2.843-2.524-5.156-5.626-5.156zM361.92 228.48v72.96h-1.808v-61.09l-.28.024c-9.193.896-13.846 12.136-7.675 19.438l.734.868-.996.537c-2.987 1.61-5.159 4.51-5.901 7.829 1.425 2.172 2.204 4.731 2.204 7.421h-1.81c0-3.684-1.509-6.883-4.995-9.61.25-.74.597-1.63.597-2.947 0-3.963-3.18-7.186-7.09-7.186l-.24.004c-3.8.128-6.853 3.3-6.853 7.182 0 1.315.347 2.204.597 2.946-9.987 7.816-3.581 20.563 5.59 21.313v-7.294h1.809v7.285l.345-.037c1.499-.188 3.04-.703 4.571-1.616l.918 1.58c-1.88 1.121-3.869 1.705-5.834 1.836v8.161h-1.809v-8.166c-6.563-.487-12.394-5.948-12.394-13.451 0-3.985 1.704-7.69 4.697-10.26-1.5-5.701 2.778-11.316 8.602-11.316l.264.004c5.684.166 9.815 5.693 8.337 11.312.393.338.762.695 1.11 1.07l.127-.362c1.018-2.764 2.913-5.162 5.38-6.765-6.265-8.738-.43-20.96 9.995-21.634V228.48h1.808zm-47.04 47.04v1.64c-5.976 0-10.839 4.864-10.839 10.84H302.4c0-6.88 5.599-12.48 12.48-12.48zM79.827 259.353l-.22.004c-2.921.116-5.262 2.526-5.262 5.471v10.486H85.31v-10.486c0-3.019-2.46-5.475-5.483-5.475zm39.205 0l-.301.008c-.9.049-1.764.315-2.532.78l4.635 15.173h3.68v-10.486c0-3.019-2.459-5.475-5.482-5.475zm-58.807 0l-.22.004c-2.921.116-5.262 2.526-5.262 5.471v10.486h10.965v-10.486c0-3.019-2.46-5.475-5.483-5.475zM80.801 230.4l.249.004c4.14.124 7.47 3.337 7.47 7.268v6.02h-1.911v-6.02c0-3.017-2.606-5.472-5.808-5.472l-.228.004c-3.098.113-5.58 2.523-5.58 5.468v11.251H91.2v1.8H43.538l.038 23.835-1.91.002-.038-23.837H38.4v-1.8h3.224l-.005-3.294 1.91-.002.006 3.296h8.78v-11.251c0-4.01 3.463-7.272 7.72-7.272 4.255 0 7.718 3.262 7.718 7.272v11.251h5.329v-11.251c0-4.01 3.463-7.272 7.719-7.272zm172.517-14.981l.822 27.07 1.865-10.655c.524-2.99 3.064-4.73 5.644-4.737l.198.003c1.654.053 3.303.824 4.426 2.44.873 1.255 1.208 2.777.943 4.286l-2.948 19.88-1.789-.27 2.954-19.903c.383-2.192-1.062-4.187-3.148-4.557-.197-.035-.392-.055-.586-.06h-.193c-1.797.046-3.392 1.358-3.72 3.234l-3.374 19.28.28 9.248 12.083 2.344 4.968-28.392c.483-2.753 2.848-4.7 5.526-4.739l.212.001c.283.007.57.035.857.085 3.091.55 5.162 3.53 4.618 6.645l-3.185 18.2-1.781-.317 3.185-18.2c.372-2.124-1.042-4.158-3.15-4.534-.133-.023-.265-.04-.396-.049l-.196-.01-.194.001c-1.808.052-3.39 1.374-3.714 3.233l-4.974 28.42 13.92 2.7 5.011-28.64c.546-3.114 3.507-5.199 6.595-4.652 3.091.549 5.162 3.53 4.617 6.644l-5.043 28.818 5.87 1.139 7.855-43.768-54.058-10.188zm39.758 19.084l-.16.003c-.695.027-1.403.25-2.055.71-1.807 1.276-1.144-.093-6.615 31.195l7.629 1.48 5.039-28.79c.451-2.578-1.6-4.59-3.838-4.598zm-101.086-31.11l-1.91 62.886h6.977l-1.908-62.871h-.482c-.647-.001-1.511-.01-2.677-.015zm54.25 57.499l-.164 5.387h6.978l-.125-4.09-6.689-1.297zm-74.08-19.187l-.745 24.574h6.44V244.42c-1.839-.973-3.736-1.877-5.694-2.716zm-14.018 19.609l-4.328 4.965h9.205c-.251-2.605-2.3-4.685-4.877-4.965zm-2.776.425l-.244.114c-.961.48-1.761 1.235-2.305 2.162l-.02.67 2.569-2.946zm-1.702-25.625l-.359 11.838h3.029v1.822h-3.084l-.345 11.369.231-.185c1.176-.9 2.631-1.444 4.208-1.489l2.797-3.208-.571-18.806c-1.914-.493-3.88-.94-5.906-1.34zm93.99-21.763l-.309 10.146c2.818.76 4.649 3.585 4.133 6.533l-4.913 28.07 4.515.877 1.518-8.681-1.099-36.22-3.845-.725zm-2.167 11.79l-.194.025c-1.604.242-2.949 1.49-3.246 3.189l-4.887 27.922 7.338 1.423.989-32.559zm-2.32-28.881h-1.435l-.745.001h-.763l-10.5 58.573 5.66 1.098 4.882-27.895c.467-2.665 2.703-4.569 5.277-4.722l.312-10.303-5.22-.984.332-1.791 4.945.932.204-6.745-1.176-.18.568-3.777c-1.232-2.206-1.95-3.458-2.341-4.207zM60.034 232.2l-.227.004c-3.098.113-5.581 2.523-5.581 5.468v11.251h11.617v-11.251c0-3.017-2.606-5.472-5.809-5.472zm73.406 15.48v.96h-3.84v-.96h3.84zm11.52 0v.96h-3.84v-.96h3.84zm102.328-21.29l-.665 21.887 3.074-17.563c.327-1.865-.722-3.66-2.41-4.324zm-84.627-29.195l-3.179 5.73c-.221.4-.361.478-1.807.484h-.474l-.177-.001c-.606-.004-1.377-.011-2.366-.015l-.937 30.878c1.982.386 3.913.814 5.791 1.288l-.635-20.906 1.808-.056.025.854c.258 8.48.468 15.22.636 20.588 3.171.865 6.194 1.863 9.087 2.994l1.103-36.333c-.468-.744-1.28-2.292-3.055-5.502l-1.433-.001h-1.447l-1.463-.001-1.477-.001zm18.813 12.085l.926 28.743-1.954.057-.926-28.743 1.954-.057zm159.421 25.92c.478 0 .865.215.865.48s-.387.48-.865.48h-17.47c-.477 0-.865-.215-.865-.48s.388-.48.865-.48zM87.381 193.92c.747-.015.606.234 6.957 16.203l-1.719.574-6.004-15.096-.936.004c-17.688.096-30.208 1.831-41.47 5.74l.025 15.237H99.84v1.677H44.236l.01 6.378-1.828.003c-.004-2.346-.01-4.464-.016-6.38H39.36v-1.678h3.036c-.019-5.02-.041-8.502-.045-10.923l-.001-.486v-.884c.009-3.796.098-4.127.416-4.242l.035-.012.057-.017.04-.011.065-.021c11.967-4.25 25.213-6.063 44.291-6.063h.053l.05-.002zm213.6-4.005h-.2c-.732.021-1.468.25-2.117.709-.196.138-.364.247-.513.371l-.08.07c-1.135 1.036-1.27 3.54-5.86 29.83l7.637 1.44.158-.898c4.58-26.07 5.212-27.97 4.425-29.324l-.055-.092-.06-.092-.065-.093-.176-.251c-.736-1.057-1.899-1.641-3.094-1.67zm33.012 28.965c.578 0 1.047.215 1.047.48s-.469.48-1.047.48h-7.515c-1.383 0-1.385-.96 0-.96zm-250.67-14.4c.639 0 1.157.518 1.157 1.157v7.286c0 .639-.518 1.157-1.157 1.157h-7.286c-.639 0-1.157-.518-1.157-1.157v-7.286c0-.639.518-1.157 1.157-1.157zm-25.92 0c.639 0 1.157.518 1.157 1.157v7.286c0 .639-.518 1.157-1.158 1.157h-7.285c-.639 0-1.157-.518-1.157-1.157v-7.286c0-.639.518-1.157 1.157-1.157zm14.4 0c.639 0 1.157.518 1.157 1.157v7.286c0 .639-.518 1.157-1.157 1.157h-7.286c-.639 0-1.157-.518-1.157-1.157v-7.286c0-.639.518-1.157 1.157-1.157zm176.183-1.087l-.277 9.115 3.734.704-.298-9.804h-.482c-.646-.001-1.51-.01-2.677-.015zm-177.34 3.401h-4.972v4.972h4.972v-4.972zm11.52 0h-4.972v4.972h4.972v-4.972zm-25.92 0h-4.972v4.972h4.972v-4.972zm290.386 1.526c.49 0 .888.215.888.48s-.397.48-.888.48H335.92c-1.172 0-1.175-.96 0-.96zm-320.329-67.2l1.537.824c-9.962 20.762-15.844 43.095-17.481 66.376l-1.719-.135c1.654-23.523 7.597-46.087 17.663-67.065zm87.393 59.192c5.034-3.238 11.637-1.238 14.073 3.31l.123-.223c1.648-2.859 4.968-4.656 8.456-4.677l.268.002c1.703.034 3.437.495 5.028 1.464.828.505.353 1.503-.395 1.61l-.091.008c-.185.008-.382-.038-.579-.159-1.324-.807-2.775-1.173-4.193-1.17l-.223.002c-3.87.11-7.436 2.942-7.436 6.971 0 .515-.379.802-.8.86l-.106.009h-.106c-.461-.02-.906-.31-.906-.869 0-4.1-3.686-6.953-7.626-6.975l-.223.002c-1.415.03-2.854.43-4.16 1.269-.162.104-.326.157-.483.17l-.093.002c-.8-.016-1.37-1.065-.528-1.606zM85.44 187.2v1.826c-15.827 0-31.927 2.778-44.293 7.632v7.822h-1.762c0-2.778-.02-4.698-.024-6.034v-.859c.009-2.146.112-2.217.587-2.408 12.633-5.07 29.214-7.979 45.492-7.979zm252.154-55.68l.604.994c12.818 21.228 20.798 44.395 23.722 68.876l-1.844.21c-2.94-24.61-11.04-47.876-24.076-69.153l1.594-.927zm-129.692 65.711l2.406 4.34h3.852l2.4-4.329-8.658-.01zm18.679.023l2.393 4.316h3.851l2.39-4.31H232.794l-.838-.001h-.855l-.87-.002-3.65-.003zm-56.028-.055l2.425 4.371h3.85l2.422-4.366-8.697-.005zm83.354.014l-.38.003c-1.542.016-3.38.027-5.573.034-.174 1.183-.362 2.468-.569 3.862l.254.458h3.852l2.416-4.357zm-64.68-.001l2.416 4.358h3.852l2.411-4.35-8.68-.008zm-33.803-.02h-3.54l2.428 4.378h3.851l2.427-4.376h-3.425l-1.741-.001zm-22.9-21.512c1.22 0 1.223 1.885 0 1.885h-19.79c-3.884 6.353-6.801 13.233-8.669 20.452-.104.402-.443.668-.818.7l-.103.003c-.07-.003-.139-.013-.208-.032-.494-.132-.788-.648-.658-1.151 1.82-7.028 4.618-13.736 8.303-19.972h-9.825l-.126-.007c-1.093-.125-1.053-1.878.126-1.878zm113.618 21.575h-.443l-.452.001.704 1.27.191-1.271zm7.615-15.728h-.2c-.73.023-1.464.253-2.109.708-.228.161-.42.296-.588.453l-.076.074c-.868.887-1.099 2.617-2.553 12.59 1.45.006 3.315.015 5.72.017l.99.001h1.032c1.585-9.133 1.794-10.566 1.293-11.544l-.047-.088c-.042-.072-.087-.143-.135-.216l-.06-.089-.166-.236c-.698-1.004-1.778-1.578-2.902-1.66l-.199-.01zm-49.976-26.967l.419.853.422-.852L240 173.906l-.843 1.704-34.958-19.115-42.245 23.026h.191c12.245-.012 33.679.086 71.153.095h5.742v2.535h-91.26v6.969h-1.825v-8.236c0-1.041-1.419-1.319 13.772-1.359l-.367-.75 44.42-24.215zm-27.141 33.6v.96h-3.84v-.96h3.84zm34.56 0v.96h-3.84v-.96h3.84zm-12.48 0v.96h-3.84v-.96h3.84zm33.6 0v.96h-3.84v-.96h3.84zm-12.48 0v.96H216v-.96h3.84zm-31.68 0v.96h-3.84v-.96h3.84zm63.704-22.08l42.856 7.887-.344 1.713-42.856-7.887.344-1.713zm-47.04-21.12h.023c.03.003.052.01.072.02l.027.016c.035.025.063.058.113.085l26.301 14.122-.846 1.714-25.878-13.896-44.43 23.859-.846-1.713c40.67-21.84 44.764-24.198 45.464-24.207zm91.023-5.76l.227.007c.228.01.458.034.69.07 3.079.494 5.132 3.156 4.589 5.952l-4.161 20.997-1.77-.289c2.21-11.152 3.401-16.653 3.893-19.555l.057-.343c.383-2.365.237-2.824-.22-3.44l-.066-.087-.143-.185c-.794-1.029-1.973-1.497-3.14-1.494l-.174.004c-1.689.073-3.31 1.127-3.652 2.892l-5.086 26.191-1.771-.283 5.087-26.191c.487-2.51 2.916-4.274 5.64-4.246zm13.19.96l.218.001c.293.006.588.034.884.086 3.116.54 5.203 3.476 4.653 6.543l-4.174 22.17-1.79-.327 4.171-22.162c.374-2.085-1.05-4.088-3.176-4.457-.199-.035-.396-.054-.592-.059h-.194c-1.812.045-3.418 1.338-3.748 3.185l-3.015 16.833-1.794-.312 3.014-16.833c.484-2.702 2.857-4.62 5.543-4.667zm-244.457 24l.255.004c1.527.05 2.972.58 3.848 1.423l.149-.136c1.485-1.282 4.335-1.755 6.617-.742.752.333.306 1.004-.383 1.056l-.091.004c-.154 0-.318-.033-.481-.105-.511-.227-1.067-.34-1.615-.355l-.182-.001-.181.005c-1.566.077-2.973.926-2.973 2.118 0 .345-.356.533-.744.564l-.117.005c-.43 0-.861-.19-.861-.569 0-1.252-1.553-2.126-3.208-2.124l-.185.004c-.553.022-1.113.144-1.623.383-.129.06-.259.094-.384.107l-.093.006c-.74.015-1.285-.69-.515-1.051.87-.407 1.828-.593 2.767-.596zm75.493 2.88c.578 0 1.047.215 1.047.48s-.469.48-1.047.48h-7.515c-1.383 0-1.385-.96 0-.96zm139.454-31.68l.228.007c.228.01.458.034.688.07 3.073.493 5.132 3.163 4.59 5.953l-3.023 15.569-1.77-.284 3.023-15.569c.443-2.28-1.539-4.067-3.732-4.118h-.165c-.716.011-1.448.21-2.12.638-.846.537-1.41 1.34-1.589 2.263l-5.087 26.191-1.77-.283 5.087-26.192c.487-2.51 2.918-4.273 5.64-4.245zm-16.393-5.76l.2.004c1.66.06 3.313.846 4.43 2.47.876 1.273 1.213 2.817.948 4.347l-5.139 29.659-1.789-.322c5.573-32.161 5.77-30.768 4.493-32.624-.806-1.17-2.024-1.703-3.224-1.686l-.163.005c-1.688.093-3.304 1.267-3.65 3.27l-3.045 20.887-1.795-.27 3.048-20.914c.533-3.078 3.095-4.83 5.686-4.826zm-90.562 9.601h.846c8.748.06 17.454 1.744 25.668 5.008.986.392.63 1.829-.229 1.895l-.097.002c-.1-.004-.204-.027-.314-.07-8.134-3.233-16.7-4.872-25.463-4.872l-.656.003c-19.667.182-38.004 8.561-51.702 23.643-.179.196-.378.29-.574.307l-.084.003c-.694-.016-1.294-.964-.657-1.665 14.737-16.226 34.068-24.153 53.262-24.254zM55.592 159.36c.579 0 1.048.215 1.048.48s-.47.48-1.047.48h-7.515c-1.383 0-1.385-.96 0-.96zM301.16 95.74l-.193.003c-.71.033-1.419.262-2.049.706-.144.102-.274.188-.391.276l-.087.066c-1.264 1.008-1.231 2.815-6.194 31.183l7.65 1.36.164-.933c5.348-30.498 5.524-29.185 4.269-30.991-.75-1.077-1.947-1.665-3.17-1.67zm-248.09 27.257c.374-10.67 14.942-14.731 21.083-5.688l.112-.111c1.215-1.187 3.119-2.186 5.111-2.157l.187.006c1.997.094 4.064 1.243 5.6 4.29l.117-.125c1.001-1.031 2.626-1.722 3.742-1.737l.13.001c.645.024 1.089.295 1.089.887 0 .485-.409.878-.912.878-1.544 0-3.045 1.036-3.419 2.36-.112.397-.43.602-.766.634l-.102.005c-.373-.002-.748-.21-.88-.6-1.232-3.658-3.161-4.84-4.968-4.828l-.143.003c-1.847.077-3.543 1.378-4.203 2.52-.153.262-.386.403-.632.443l-.105.01c-.354.017-.714-.168-.88-.494-4.655-9.126-18.815-5.39-18.331 4.54.038.768-.459.945-2.278.964l-.17.001h-.36c-1.19-.003-2.841-.046-5.106-.046l-.125-.006c-1.08-.117-1.04-1.75.125-1.75zm142.08-2.88c.374-10.67 14.941-14.731 21.082-5.688l.112-.111c1.216-1.186 3.12-2.186 5.112-2.157l.187.006c1.997.094 4.064 1.244 5.6 4.29l.117-.125c1-1.031 2.626-1.722 3.741-1.737l.132.001c.644.024 1.088.295 1.088.887 0 .485-.41.879-.912.879-1.544 0-3.045 1.035-3.42 2.358-.111.398-.428.603-.766.636l-.101.004c-.373-.002-.749-.21-.88-.6-1.233-3.658-3.162-4.84-4.969-4.828l-.142.004c-1.848.077-3.544 1.377-4.204 2.519-.152.263-.386.404-.631.443l-.106.01c-.354.017-.713-.168-.88-.493-4.654-9.127-18.814-5.39-18.33 4.539.038.768-.459.945-2.278.964l-.169.001h-.36c-1.19-.003-2.842-.046-5.107-.046l-.125-.006c-1.079-.117-1.04-1.75.125-1.75zM107.7 101.76l.267.006c3.465.122 6.726 1.988 8.283 4.896l.123-.222c1.648-2.86 4.968-4.657 8.456-4.678l.268.002c1.703.035 3.437.495 5.028 1.465.828.505.353 1.502-.395 1.61l-.09.007c-.185.008-.383-.038-.58-.158-1.254-.765-2.622-1.134-3.968-1.169l-.224-.003-.224.004c-3.87.11-7.435 2.942-7.435 6.97 0 .515-.38.802-.8.86l-.106.009h-.107c-.461-.02-.906-.31-.906-.868 0-4.1-3.686-6.954-7.626-6.976l-.223.002c-1.415.031-2.854.43-4.16 1.27-.162.104-.326.157-.483.17l-.093.002c-.8-.017-1.37-1.065-.528-1.607 1.733-1.115 3.652-1.609 5.523-1.592zm77.582-30.547c.034-1.117.936-1.375 1.496-.92l.336-.056c4.366-.666 8.817.95 11.83 4.502l.244-.178c1.883-1.333 4.022-1.96 6.132-1.947l.275.005c3.572.114 7.025 2.056 8.973 5.488l.2-.15c6.112-4.478 14.814-.008 14.814 7.884 0 1.948-.558 3.806-1.593 5.385h16.859c1.216 0 1.219 1.894 0 1.894h-32.062c-1.216 0-1.219-1.894 0-1.894h12.853c.704-.95 2.101-2.345 2.101-5.385 0-4.624-3.664-7.71-7.51-7.765h-.2c-1.793.023-3.613.71-5.108 2.208-.143.144-.316.228-.495.257l-.108.011c-.36.015-.72-.186-.883-.563-1.487-3.47-4.73-5.436-8.066-5.48h-.25c-2.004.03-4.026.757-5.709 2.269-.144.13-.316.204-.49.226l-.106.007c-.282.003-.56-.126-.744-.375-2.13-2.893-5.29-4.518-8.617-4.64l-.303-.008-.304.002c-.81.014-1.627.118-2.44.314-.032.008-.064.013-.097.018l-.097.007c-.488.01-.955-.365-.931-1.116zm.144 13.267c.45 0 .815.215.815.48s-.365.48-.815.48h-15.657c-1.076 0-1.079-.96 0-.96zM124.19 54.72l.611 1.619c-19.893 6.584-38.232 16.376-54.506 29.101l-1.174-1.318c16.442-12.858 34.97-22.75 55.069-29.402zM263.827 72c2.876.033 15.555 2.189 71.213 10.61l-.25 1.87-70.217-10.623-1.708 10.078-1.745-.336 1.86-10.973c.006-.04.009-.079.01-.117v-.073c-.006-.25-.028-.429.724-.436zm-92.098-16.32l.389.004c5.05.116 9.752 2.48 12.947 6.527.541.685-.034 1.48-.678 1.52h-.085c-.225-.009-.454-.114-.641-.352-3.08-3.901-7.22-5.718-11.342-5.833l-.364-.006-.363.003c-7.749.157-15.212 6.26-15.212 15.745 0 3.552 1.123 6.903 3.248 9.693.308.403.238.986-.156 1.302-.12.097-.258.158-.4.183l-.106.013h-.107c-.249-.017-.49-.138-.655-.355-8.745-11.48-.77-28.444 13.525-28.444zm-27.597 24c.457 0 .828.215.828.48s-.37.48-.828.48h-15.631c-1.094 0-1.095-.96 0-.96zm181.994-13.44l1.234.283-1.646 12.197-1.234-.283 1.646-12.197zm-3.623-6.72l1.017.287-1.863 16.993-1.017-.287 1.863-16.993zm-18.29-3.84l.19.003c4.55.135 8.497 4.816 7.417 10.985l-1.101 6.292-1.648-.291 1.102-6.293c.888-5.073-2.23-8.947-5.87-9.01h-.17c-1.257.02-2.569.495-3.795 1.531-2.841 2.404-2.88 5.192-3.97 11.427l-1.648-.291c1.062-6.067 1.139-9.545 4.541-12.423 1.583-1.338 3.302-1.933 4.951-1.93zm-27.388-16.32c.087.003.18.02.285.038l54.09 9.33-.32 1.782-53.18-9.173-5.16 28.743-1.82-.314c5.05-28.128 5.113-30.388 6.073-30.406zm7.278 13.44l1.017.287-1.863 16.993-1.017-.287 1.863-16.993zM182.4 43.2l1.052.003c28.741.176 57.235 7.556 82.468 21.37l-.855 1.667c-25.279-13.838-53.864-21.153-82.665-21.153V43.2z" mask="url(#f8b9w25gzb)"/>
                <g mask="url(#f8b9w25gzb)">
                    <g>
                        <path fill="#FFF" d="M148 213.872c1.123-14.414-.566-22.858-.566-22.858l-105.726 2.165-7.37 50.29-2.113 11.734c17.494 5.72 33.747 7.977 52.102 9.151 26.81 1.716 37.84-.38 60.087-6.29 1.07-4.797 3.121-38.218 3.586-44.192" transform="translate(86.814672, 96.986479)"/>
                        <g transform="translate(86.814672, 96.986479) translate(9.185328, 63.333521)">
                            <use fill="#F09D4C" xlink:href="#5j5rhmwgxc"/>
                        </g>
                        <path fill="#FFF" d="M120.14 23.589c-5.052-7.838-21.936-8.327-26.397-1.892-4.462 6.434-4.937 13.585-4.937 13.585s-1.822-1.498-4.053-1.568c-2.896-.092-7.324 3.865-4.675 8.696 1.561 2.848 4.416 3.573 6.506 3.693-.078 4.466-.229 11.748-.437 14.97-.308 4.812-.334 9.52-.334 9.52s.768 9.423 12.838 9.05c15.076-.467 13.774-10.257 13.774-10.257s-1.404-1.878-1.605-3.688c-.257-2.325-.44-5.237-.555-7.437 3.436-.958 8.045-3.988 9.426-11.744 1.61-9.042.45-22.928.45-22.928M229.697 112.874H139.32c-.16-.64-.352-1.266-.648-1.852.124.089.248.061.294.247.2-.475-.363-1.492-.612-1.435-.05-.305.201-.127.277-.344.07-.456-.66-.91-.422-1.208.038-.05.129.086.172.154-.214-.224-.316-1.235-.584-.884-.044-.761-.558-1.31-.534-1.936-.492-.245-.206-1.266-.78-1.204.572-.134.032-1.382-.384-1.73.218.088.038-.446.328-.355-.188-.502-.457-.927-.706-.735.15-.597-.106-.9-.535-1.672-.375-.641-.648-1.054-.541-1.968-.012-.023-.027-.042-.039-.058-1.49.306-2.97.542-3.447.676-.709.154-1.403.282-2.09.387.018-.581 1.537-.146 1.44-.753-1.302.32-2.04.858-3.36.786-.345-.062.18-.263.29-.367-1.31.307-2.56.07-3.724.438.001-.055.126-.12.244-.168-.232.028-.544-.062-.506.2l.224-.081c.387.368-.89.84-.922 1.043.362-.772-1.174-.142-.586-1.124-.151.056-.337.189-.296.365-.23-.043-.305-.144-.083-.353-.826.177-.52.447-1.274.47-.002-.13.148-.185.22-.337-.371.263-.747.527-1.388.442.035-.078-.043-.175.147-.18-1.093.08-1.843.73-3.053.53.336-.567-.415-.168-.494-.646l-.643.164.268.225c-.567.01-1.055.376-1.548.234l.415-.211-1.058.125.606.162c-.566.267.08.608-.678.497.152-.054-.566.013-.87-.263h.001c-.275.161-.559.33-.98.223-.115-.15.071-.534-.003-.635-.265.41-1.323.15-1.661.589.114-.105.113-.357.073-.407l-.223.333c-.265-.097-.305-.146-.268-.349-.79-.041.266.605-.676.363.073-.028.037-.076.188-.129-.941-.118-1.81.25-2.676.1-.26-.48.752-.128.455-.532-1.24.1-2.567.615-3.772.493l.225.054c-.168.683-.897-.34-1.505-.018.15-.05.197-.38.157-.303-.823-.117-1.685.153-2.938.344l.159-.173c-.483-.168-1.277-.12-1.798-.212-.16.17-.46.13-.285.392-1.579-1.052-3.11.426-4.502-.491.172.007.417-.132.28-.14l-1.227.092c.078.303.149.19.391.437-.165.168-.52.28-.822.261.563-.16.025-.477-.2-.659.034.095-.054.19-.04.283-.601-.571-.149.594-.995.173l.058-.153c-.332.055-.648.242-.996.167-.118-.356.359-.131.404-.413-.492-.02-1.027.57-1.443.187.217-.075.518-.052.736-.13-.451-.443-.516-.345-.869-.443l.035.012c-.218-.082-.665-.182-1.074-.292l.32.145c-.313.32-.549.399-.846.394-.288-.005-.643-.091-.941-.068-.03.185.014.476.089.765-.335-1.432-.25-.472-.58-.885-.138.183-.323.577-.4.36.093.415.001.604-.085.868-.085.252-.166.592-.004 1.04-.13.02-.08.42-.376.285.015.524.234-.086.382-.018.299.85-.806 1.76-.405 2.978.079.953.421 1.244.515 2.056-.01.058-.02.114-.028.172-.218.147-.361-.357-.361-.357-.26.46-.286.836-.218 1.321-.093-.11-.2-.03-.361.09-.027.376.41.32.15.781-.123-.106-.327-.25-.438-.451.045.456.207.925.246 1.397-.235.085-.283-.328-.398-.51.015.525-.016 1.35.3 1.563l.174-.306c-.012.188-.308.047-.349-.1-.197-.48.22-.61.347-.614l.029.336c.778-.214.09-1.315.235-1.957l.406.297c-.258 1.613-.532 3.306-.8 4.953-.004.02-.01.043-.013.064-.537-.186-1.056-.49-1.608.388l.238.77-.326.173.086-.595c-.328.287-.125.542-.01.812-.163.028-.288.107-.371.235l.427.8c-.247.038-.396-.4-.613.038.198.376.576-.208.643.364-.337.283-.534.138-.39.581-.162.024-.24-.08-.274-.25.107.389-.119.945.154 1.194-.403.279-.18 1.206-.725 1.046.107.14.298.717.243 1.045-.522-.743-.325 1.196-.995.871.49.578-.12 1.631.01 2.482-.035-.055-.108-.164-.06-.224-.16.42-.37.5-.554.748.475.182.411.884.613 1.328-.61.404-.486-.474-.982-.427.403.078.15 1.023.527.932-.399.326-.237.31-.696.408.59.238 0 .404.282.842-.459.502-.61-.007-.603.685-.272.252-.327-.377-.327-.377-.193.648.362.432.586.644-.089.816-.438.266-.746.463-.019.519.296 1.012.171 1.37-.083.004-.13.067-.2-.043.027.077.04.159.042.244l-.001.13-.04.226c-.06.302-.152.622-.242.949-.174.642-.358 1.332-.208 1.652-.073.093-.134.153-.183.194.343-.302.64-.448.844-.524-.031.11-.03.198-.021.272.021.079.226.05.291.08.082.023.11.067.044.16-.212-.072-.368.013-.592.046l.546.022c-.066.43-.76-.031-1.077.147 1.017.242 2.246.127 2.761.384-.04.445-1.646-.254-.97.314-.347-.139-.656-.288-.949-.433.211.783-.655-.246-.542.56.753.31 1.324.368 1.81.445l.791.107.436.079c.1.023.208.052.33.093.266-.197-.008-.367.257-.567 1.457-.194.923 1.278 2.041.85.308-.253.484-.776 1.172-.4l-.311.46c.948.165.63-.639 1.585-.187-.199.172-.766.071-.63.148.604.466.49-.22.985-.17l.056.445c1.023.04 2.167-.176 3.29-.178-.071.125-.273.247-.02.401 1.43-.119 3.016.252 4.374.553l.535-.359c.121.009.22.179.085.247.528.163.036-.238.296-.378.303-.016.393.232.198.338.951-.273 2.682-.638 3.665-.21l-.194.11c.77.169.872-.768 1.582-.415l-.138.067c1.667.167 3.5-.194 4.781.34.229-.55 1.655.21 1.741-.552.96.344.692.487 2.04.69.36.021.515-.495.954-.59l.027.397.582-.44.34.463.41-.117c-.167-.018-.36-.166-.34-.281.638-.202 1.59.194 1.618.399l1.514-.42c-.025.162-.278.23-.476.343.795-.45.174.41.901-.003-.105-.084.04-.238.053-.32.388.224 1.24.158 1.862.014l-.103.282c1.144-.007 2.387-.302 3.662-.417-.469-.086-.404-.568-.035-.647l.185.406c.218-.28-.402-.125.063-.484.478.007.363.447.101.608l.565-.196c.047.121-.083.199-.104.362.212-.279 1.04.33 1.338-.16l.045.12c.797-.082 1.318-.188 1.847-.291L96.49 186.453h77.912c-.09.067-.181.14-.271.216H81.64c3.488-2.703 4.122-5.349 2.645-6.534-.93-.745-18.212 4.658-18.212 4.658s-11.335-12.668-17.84-18.815c-6.504-6.147-8.627-9.05-8.627-9.05l7.197-9.298s-6.782-4.322-16.768-12.671c-12.46-10.418-17.11-16.668-17.11-16.668S3.907 125.6 1.305 139.57c-2.602 13.97 1.588 24.36 11.066 33.674 9.477 9.314 28.367 19.745 38.824 23.67 17.837 6.699 28.665 5.035 37.543 2.07 6.994-2.338 13.132-5.813 14.334-6.123h71.046c-.466.39-.846.924-.885 1.665-.113 2.158 1.1 2.755 2.296 2.747 2.044-.012 17.892.967 21.087-.274 4.118-1.601 8.268-5.336 10.136-11.045 3.386-10.347 2.145-22.56 2.145-22.56l-6.268 12.567c-.094.02-.408.093-.87.198l30.74-58.637c1.107-2.112-.42-4.647-2.8-4.647l-.673-.1" transform="translate(86.814672, 96.986479)"/>
                        <g>
                            <g fill="#475574">
                                <path d="M103.422 218.898c-.347-.038-.654.257-.67.613-.008.166-.809 16.738-3.422 32.474-.058.35.177.682.527.74.036.007.07.01.105.01.309 0 .58-.224.633-.539 2.626-15.808 3.43-32.457 3.438-32.625.018-.355-.256-.656-.61-.673M109.7 81.195c-.286.21-.347.614-.136.9.124.171.32.263.517.263.132 0 .264-.041.378-.125 5.865-4.324 7.018-11.787 5.692-14.409-.161-.317-.547-.444-.863-.282-.316.16-.44.548-.28.865.948 1.876.264 8.68-5.308 12.788M95.004 85.71c.991.083 1.957.124 2.896.124 2.333 0 4.494-.255 6.455-.763.343-.09.55-.44.46-.785-.089-.344-.44-.553-.781-.461-2.61.675-5.613.878-8.925.602-8.306-.694-13.597-4.023-15.729-9.893-.12-.335-.492-.505-.822-.385-.333.12-.505.49-.384.824 1.594 4.39 5.808 9.816 16.83 10.737M104.668 35.952c0-.998-.62-1.807-1.383-1.807-.764 0-1.383.809-1.383 1.807 0 .998.62 1.806 1.383 1.806s1.383-.808 1.383-1.806M114.222 35.395c.025.998.604 1.792 1.294 1.774.69-.017 1.228-.84 1.204-1.837-.026-.998-.604-1.793-1.294-1.775-.69.017-1.23.84-1.204 1.838M109.72 46.101c.038.33.316.572.637.572.023 0 .048-.002.072-.004l3.795-.43c.2-.024.38-.14.482-.316.101-.174.116-.388.037-.575l-1.119-2.661c-1.08-2.57-2-7.052-2.009-7.098-.072-.348-.41-.572-.757-.5-.347.07-.571.41-.5.759.038.188.953 4.65 2.084 7.339l.786 1.869-2.942.334c-.353.04-.606.358-.566.711M99.426 44.89c-.054-.35-.376-.592-.73-.54-.35.053-.59.378-.54.729.01.052.834 5.249 6.798 5.895.023.003.048.004.07.004.324 0 .6-.245.637-.575.037-.353-.216-.67-.569-.709-4.955-.537-5.64-4.63-5.666-4.804M104.493 28.942c-3.1-1.578-5.503-.01-6.345 1.037-.221.275-.178.677.096.9.12.098.262.145.404.145.187 0 .37-.08.498-.235.074-.092 1.84-2.188 4.767-.7.315.163.702.034.862-.282.16-.316.035-.704-.282-.865M117.504 30.336c.167 0 .333-.065.46-.194.247-.255.242-.662-.013-.91-2.074-2.032-4.515-1.193-5.515-.468-.286.207-.35.608-.144.896.205.287.604.353.894.15.082-.06 2.059-1.433 3.87.343.125.122.286.183.448.183M77.857 117.355c-.348-.075-.687.15-.758.498-.004.02-.44 2.094-1.425 5.459-.1.341.094.699.434.798.061.019.122.027.182.027.277 0 .532-.182.614-.462 1.003-3.42 1.432-5.474 1.45-5.559.073-.349-.15-.688-.497-.761M85.285 38.061c.328.133.703-.025.836-.353.135-.33-.024-.706-.352-.84-.825-.337-1.731-.332-2.552.017-.82.347-1.457.994-1.792 1.821-.336.829-.33 1.739.016 2.561.345.824.99 1.463 1.816 1.8.405.165.83.247 1.256.247.439 0 .878-.088 1.295-.264.327-.139.48-.515.342-.843-.137-.329-.517-.479-.84-.343-.504.215-1.064.218-1.57.01-1.046-.428-1.553-1.63-1.126-2.682.425-1.051 1.626-1.557 2.671-1.13" transform="translate(86.814672, 96.986479)"/>
                                <path d="M205.755 186.139c-1.605 4.91-5.244 8.883-9.735 10.63-2.405.937-13.328.507-17.994.322-1.334-.052-2.331-.09-2.777-.09h-.04c-.39-.037-.892-.07-1.229-.423-.316-.333-.456-.886-.416-1.643.077-1.466 2.067-1.93 2.307-1.981.07.002 3.444.113 7.674.113 1.01 0 2.071-.005 3.147-.022 6.643-.098 10.25-.728 10.401-.754.35-.062.582-.396.52-.747-.062-.35-.387-.585-.744-.52-.036.006-3.67.638-10.196.734-5.566.08-10.711-.09-10.762-.091-.01-.001-.02.004-.03.004l-.033-.003c-.024-.001-2.34-.193-2.552-2.065-.19-1.678 1.676-2.602 2.112-2.794h.163c1.304 0 6.74-.031 12.985-.515 6.893-.534 13.161-1.44 13.224-1.45.351-.05.593-.377.542-.728-.051-.354-.38-.606-.726-.545-.063.009-6.29.91-13.14 1.44-6.203.48-11.597.511-12.883.511h-.149c-.393-.198-1.217-.734-1.383-1.435-.11-.463.077-.988.557-1.562.778-.93 5.18-1.526 9.438-2.103 1.245-.168 2.548-.345 3.87-.54 5.242-.776 11.689-2.256 13.806-2.742.356-.082.586-.135.666-.15l.307-.063 5.33-10.701c.172 4.022.163 12.499-2.26 19.913zm-102.556 6.454l.001-.013c-.064-.01-.127-.016-.202-.01H74.776c.746-.722 2.186-1.885 4.91-3.487.76-.447 1.441-.912 2.067-1.386h90.695c-.322.563-.52 1.239-.427 2.052.15 1.331.96 2.158 1.847 2.639-.096.059-.186.137-.28.205H103.2zm-1.46 19.11c-35.632.843-64.472-10.536-68.415-12.17l1.537-9.347c6.053 3.367 11.87 6.12 16.081 7.704 9.193 3.455 16.576 4.676 22.722 4.676 6.08 0 10.949-1.195 15.162-2.605 4.657-1.556 8.853-3.577 11.63-4.915 1.111-.533 2.156-1.036 2.452-1.165h51.783c.197 2.264.326 3.813.38 4.483-2.602 1.624-21.318 12.583-53.333 13.338zm-88.858-38.52C2.94 163.404-.41 153.209 2.022 140.13c2.172-11.68 8.994-18.687 10.881-20.436 1.404 1.741 6.331 7.49 16.743 16.207 8.225 6.884 14.347 11.079 16.21 12.318l-7.054 9.119.287.391c.088.121 2.228 3.019 8.686 9.129 6.394 6.05 17.647 18.625 17.76 18.752l.275.307.394-.123c7.744-2.424 16.324-4.824 17.656-4.695.317.293.457.69.422 1.182-.094 1.316-1.522 3.502-5.245 5.693-5.307 3.121-6.105 4.729-6.212 5.02l-.315.864h27.452l-.06.03c-2.749 1.323-6.9 3.321-11.483 4.854-8.673 2.9-19.16 4.66-37.028-2.058-9.923-3.73-28.826-13.972-38.51-23.5zm219.627-58.639c-.694-1.153-1.909-1.84-3.25-1.84h-63.126c.676-1.495 1.056-2.263 1.064-2.279l.19-.381-.274-.324c-.18-.212-18.215-21.413-33.399-33.513-11.482-9.15-22.496-12.688-24.166-13.19.036.469.075.931.116 1.385 2.644.846 12.732 4.43 23.252 12.813 14.068 11.21 30.631 30.322 32.948 33.021-.211.438-.608 1.287-1.137 2.469H143.66l-.143-.474c-5.426-17.504-10.142-26.643-10.189-26.733-.165-.316-.552-.438-.866-.273-.313.165-.436.554-.272.868.048.09 4.715 9.14 10.102 26.52l.028.092h-3.884c-2.454 0-4.688 1.354-5.831 3.535l-25.11 47.952c-.166.314-.045.704.268.869.316.168.702.044.867-.27l25.11-47.953c.92-1.755 2.72-2.847 4.696-2.847h90.822c.889 0 1.694.456 2.153 1.219.459.763.487 1.69.074 2.48l-30.533 58.304c-2.476.567-8.384 1.896-13.233 2.614-1.315.195-2.612.37-3.854.539-5.845.792-9.204 1.3-10.25 2.55-.754.903-1.03 1.807-.82 2.689.18.761.704 1.338 1.198 1.733-.035.022-.072.051-.108.075H97.42l5.359-10.233c.165-.315.045-.704-.269-.869-.313-.166-.7-.044-.866.27l-5.786 11.048H83.265c1.39-1.359 2.204-2.75 2.297-4.037.068-.952-.279-1.785-.98-2.348-.292-.235-1.178-.948-18.368 4.417-1.776-1.977-11.69-12.968-17.56-18.522-5.057-4.784-7.456-7.608-8.234-8.574l6.52-8.432c7.38 4.625 14.075 6.941 14.143 6.964l.43.146.28-.355c.051-.066 5.189-6.634 9.753-17.191 1.164-2.69 2.252-5.464 3.234-8.24.119-.335-.056-.703-.389-.822-.336-.118-.702.056-.82.39-.972 2.75-2.05 5.495-3.2 8.158-3.89 8.996-8.188 15.037-9.307 16.54-1.619-.599-7.556-2.917-13.92-6.978-.297-.22-9.342-6.891-14.507-10.823-.706-.578-1.425-1.17-2.168-1.792-5.032-4.211-8.773-7.737-11.455-10.445-5.41-5.756-8.639-10.437-9.528-11.782 2.407-2.851 18.817-21.86 37.774-33.216 13.116-7.858 23.411-11.798 30.103-13.77-.068.367-.295 1.775-.229 3.7.01.349.296.623.64.623h.022c.354-.013.632-.31.619-.666-.069-2.04.219-3.477.222-3.492.037-.184-.011-.364-.114-.505 2.513-.7 4.418-1.097 5.695-1.32l-.182 9.16c-.008.356.273.65.628.657h.013c.348 0 .634-.28.641-.631l.526-26.357c1.293.03 2.238-.145 2.339-.165.348-.07.573-.407.505-.756-.068-.348-.4-.574-.753-.507-.244.049-6 1.12-8.398-3.257-1.242-2.27-.69-4.076-.01-5.19 1.058-1.73 2.895-2.602 4.118-2.587 1.981.064 3.662 1.416 3.679 1.431l.962.785.003-.043c.39.336.63.5.878.5.077 0 .154-.015.237-.045l.373-.149.062-.374c.448-2.688 1.282-7.69 5.72-12.732.956-1.088 3.924-3.132 5.578-4.015-.197.54-.212 1.044-.043 1.507.37 1.01 1.446 1.338 1.569 1.371l.237.068.222-.11c1.384-.693 5.403-2.4 7.375-2.013.797.158 1.582.435 2.413.729 1.281.452 2.698.94 4.536 1.184.409.418.778.855 1.087 1.316.12 1.584 1.03 14.32-.458 22.687-1.792 10.07-9.058 11.42-10.498 11.586-4.086.481-7.436-.4-10.854-2.84-2.143-1.53-4.332-3.875-5.717-6.123-.187-.304-.584-.398-.882-.21-.302.187-.396.584-.21.886 1.491 2.421 3.758 4.85 6.064 6.496 3.054 2.18 6.057 3.206 9.504 3.206.727 0 1.473-.046 2.243-.136 4.624-.54 10.102-4.144 11.613-12.64 1.61-9.055.471-23.041.46-23.182l-.013-.16-.088-.136c-.134-.209-.284-.405-.432-.602.314.01.634.017.972.011 3.023-.054 5.8-2.085 8.03-5.874.585-.994.769-1.737.596-2.409-.247-.953-1.12-1.467-2.327-2.178-.562-.33-1.199-.706-1.885-1.19-1.024-.722-1.835-1.964-2.695-3.28-1.57-2.404-3.35-5.13-7.16-6.281-4.606-1.395-8.313.74-9.43 1.502-1.072-.532-4.367-2.057-7.883-2.6-3.499-.54-11.685-1.804-17.688 8.784-5.412 9.543-.12 23.254.08 23.746.06.251.252.966.545 1.367-.78.544-1.482 1.25-1.986 2.073-1.215 1.989-1.221 4.291-.02 6.484 1.498 2.734 4.033 3.681 6.149 3.963l-.32 15.952c-4.607.749-17.848 3.788-37.64 15.645-20.618 12.353-38.232 33.65-38.408 33.864l-.293.357.244.393c.033.052 1.423 2.25 4.075 5.596-1.714 1.516-9.108 8.677-11.46 21.32-2.485 13.364 1.081 24.234 11.222 34.21 5.422 5.335 13.685 10.882 21.686 15.417l-1.773 10.8.457.2c.089.04 2.784 1.204 7.498 2.804l-5.944 40.596-.38 3.287c-.04.353.212.672.564.713.358.05.671-.212.71-.564l.379-3.268 5.907-40.35c11.22 3.708 32.215 9.298 56.875 9.297 1.257 0 2.53-.014 3.806-.044 21.287-.502 36.771-5.484 45.643-9.31.067 3.065.117 6.632.126 10.7.02 9.519-.7 20.555-1.28 29.424-.148 2.279-.287 4.419-.403 6.362-.022.354.247.659.601.682h.04c.335 0 .618-.263.638-.606.116-1.94.256-4.078.404-6.354.582-8.888 1.304-19.948 1.283-29.51-.01-4.315-.066-8.07-.137-11.257 4.812-2.167 7.35-3.844 7.418-3.89l.311-.21-.03-.375c-.003-.04-.141-1.744-.403-4.765h16.548c-.128.294-.225.612-.245.985-.058 1.126.2 2 .77 2.6.516.543 1.277.814 2.165.822.406-.02 1.412.037 2.76.09 2.767.109 6.725.265 10.325.265 3.607 0 6.854-.157 8.182-.674 4.845-1.885 8.767-6.157 10.49-11.429 3.38-10.345 2.18-22.675 2.169-22.8l-.054-.52 23.53-44.932c.624-1.192.582-2.591-.11-3.744z" transform="translate(86.814672, 96.986479)"/>
                                <path d="M162.026 155.802c-2.01-2.293-1.05-6.448 2.139-9.263 1.808-1.596 3.95-2.424 5.832-2.424 1.438 0 2.725.484 3.596 1.476 2.01 2.293 1.051 6.448-2.138 9.263-3.189 2.815-7.419 3.24-9.429.948m10.276.02c3.72-3.285 4.731-8.255 2.255-11.08-2.478-2.826-7.52-2.454-11.24.83-3.72 3.284-4.73 8.255-2.254 11.08 1.117 1.274 2.755 1.898 4.558 1.898 2.196 0 4.638-.926 6.68-2.728M30.54 148.087c-3.165-2.688-7.526-6.481-7.526-6.481l-.841.973s4.368 3.799 7.54 6.492c3.123 2.652 7.275 6.423 7.318 6.46.122.113.276.168.43.168.175 0 .348-.071.475-.212.238-.264.218-.67-.045-.909-.041-.038-4.21-3.824-7.35-6.49" transform="translate(86.814672, 96.986479)"/>
                            </g>
                        </g>
                        <g>
                            <path fill="#FFF" d="M8.524 111.307c.086.017.049.082 0 .14-.026-.02-.062-.042-.116-.062l-.038.023c.056-.042.108-.08.154-.101m-1.197 2.404c-.027-.05-.073-.103-.126-.156.082-.097.188-.171.215-.133-.078.038-.059.167-.09.289m-.316-.333l-.005.005-.091-.07.096.065m-4.458-3.434c.143.191.433-.207.678-.34.284.133-.19.322-.318.55.211.059.635-.115.704-.001-.055.058-.06.096-.155.135.41-.098.372.408.876.267-.021.04-.046.072-.071.098.16-.18.342-.34.479-.446.074.075.356-.047.143.184-.035-.054-.134.023-.227.063l.173-.005c-.276.365-.215-.013-.468.2.251.07.696.02.705.227-.31.312-.361-.197-.514.223l-.04-.303c-.399.596-.064-.15-.51.465.125.34.412.146.54.481.234-.103.255-.254.49-.357.645.068-.581 1.004.093.883.28-.124.717-.465.664-.085l-.428.265c.181.277.655-.334.634.141-.187.086-.293-.08-.305-.005-.143.427.314-.07.429.054l-.302.32c.287.208.78.276 1.098.501-.11.073-.256.117-.293.275.487.21.669.788.806 1.305l.398-.133c.026.033-.07.173-.154.192.022.23.18-.159.348-.2.092.057-.061.25-.19.282.456.01 1.13.178 1.082.696l-.127.032c.077.294.763-.335.683.084l-.08.015c.29.516.973.718.889 1.424.441-.331.239.564.796.045-.027.495-.189.528-.032 1.028.065.11.46-.216.625-.17l-.272.29.436-.159-.248.42.173.025c-.024-.058.036-.213.121-.29.283.022.207.567.07.72l.618.11c-.117.108-.22.089-.34.117.484-.107-.247.34.196.242.035-.09.175-.16.233-.216-.068.263.145.462.373.533l-.216.173c.243.315.693.464 1.021.752-.032-.198.313-.526.44-.475l-.243.345c.235-.139.005-.206.346-.33.09.143-.237.427-.4.467l.247.022c-.075.101-.154.12-.27.23.235-.14-.022.541.369.281l-.075.1c.327.292.572.315.855.534.243-.267.295-.115.567-.265.119.26.153.663.415.84.287.006.25-.19.466-.29-.203.26.058.439-.22.514.323.201.411.26.95.362.048-.137.042-.218.138-.285.101.014.06.232-.052.345l-.039.01c.727-.034.327 1.53 1.096 1.278l-.04.01.568.008c.12.176-.251.113-.267.367.72-.123.537.534 1.075.496-.377.945.886.621.815 1.361l.127-.193c.223-.109.017.182.046.272.102-.145.039-.233.168-.288.869.351 1.246 1.412 1.856 2.135.231.255.878-.82.88-.129l-.355.263c.853.006 1.09.868 1.892.914-.091.055-.169.156-.22.116-.074.33.41.321.564.12.066.084-.118.196-.144.337.005.23.522-.106.399.185-.02.048-.092.056-.127.06.163-.066.322.284.464-.054.101.285.48.155.516.443.341-.245.23.408.598-.023-.359.46.076.64.364.511-.145.11.004.229-.19.389.151.1.352.106.501-.154-.135.757.874-.072.505.761.622.055 1.148.167 1.62.331-.348.465-.468-.258-.803.252.513.068 1.015-.19 1.303.186.052.132-.198.168-.287.227.512.063.7.539 1.216.506-.031.045-.1.069-.161.082.078.029.107.175.249-.048l-.105.015c.111-.387.716-.482.84-.641-.538.548.224.38-.493 1.05.072-.012.197-.079.287-.232.035.087-.003.186-.18.308.318.041.391-.248.602-.098-.072.106-.143.117-.25.227.249-.133.498-.265.619-.053-.055.056-.089.153-.143.115.334.181.902-.194 1.115.23-.41.396.016.229-.232.64l.267.003.054-.243c.158.113.495-.086.548.137l-.23.086.356.123-.072-.266c.3-.1.315-.52.459-.267-.072.013.158.11.088.403h-.001c.164-.075.335-.157.39.022-.053.148-.315.43-.351.528.3-.286.442.155.775-.14-.088.063-.226.274-.243.324l.244-.232c.02.136.004.185-.118.347.197.193.257-.559.387-.167-.035.008-.051.055-.123.07.2.285.64.156.804.448-.184.455-.283-.037-.416.36.41.154 1.06-.02 1.35.296l-.037-.087c.409-.549.08.45.431.284-.07.017-.257.288-.205.23.186.24.585.157 1.064.195l-.136.122c.06.22.329.305.442.467.137-.123.21-.045.288-.296-.039 1.147 1.187.08 1.187 1.043-.052-.027-.2.062-.16.086l.447.072c.121-.273.043-.183.084-.427.136-.125.307-.183.396-.132-.262.076-.24.413-.253.598.034-.085.11-.158.15-.242-.077.568.332-.499.41-.04l-.09.127c.136-.012.328-.14.412-.043-.13.323-.184.081-.332.323.157.065.616-.401.58-.029-.112.048-.202-.002-.312.045-.057.433.012.353.089.47l-.007-.013.16.3-.009-.132c.63-.675.46.07.997-.301-.515.348-.198.258-.408.587.011.13.05.29-.032.37.272-.207.077.328.47.018-.054.113.122.08-.058.34.204 0 .07-.21.158-.341.447-.245.313.762.94.433.411-.051.669-.398 1.043-.438-.002.225-.291.363-.291.363.063.242.193.272.401.219-.08.082-.093.18-.116.327.13.031.29-.365.353-.122-.09.111-.227.292-.347.388.188-.032.432-.173.624-.201-.063.213-.238.251-.354.353.205-.007.502.033.708-.251l-.045-.161c.065.013-.105.279-.177.314-.26.172-.14-.207-.09-.322l.137-.02c.235-.707-.455-.097-.635-.242l.332-.43-.41.286c.021-.147.131-.426.267-.445-.018-.309-.215.101-.198-.223.009-.047.026-.067.048-.08l-.213.069c.08-.085.155-.346.204-.233-.101-.402-.59.144-.49-.263l.036-.018c-.429-.026-.22.328-.699.593l.293-.945-.223.327c-.028-.032-.084-.095.005-.226-.26.164-.06.161-.258.343.003-.406-.55-.11-.286-.678-.206.229.051.29-.232.373.277-.615-.266-.013-.268-.37.217-.277.272-.034.271-.392-.38.46-.236-.28-.42-.254-.237.404-.378.011-.674.023.093-.13-.282-.45-.397-.714l.046-.065c-.277.386-.438.188-.638.185.148-.241.231-.321.377-.383l-.143-.08c-.11.111-.194.154-.313.147l.214-.283c-.197-.094-.59.137-.712-.207-.183.275-.275.901-.646.941.081-.159.229-.426.333-.45-.034.008-.154.081-.16-.01l.256-.197c-.044-.178-.187.181-.26.106.132-.218.027-.195.143-.36.035-.008.024.135.109.069-.077-.097-.12-.296-.06-.484-.066.128-.176.293-.266.278-.197-.097.094-.3.052-.477-.136.123-.16-.105-.36.218-.054-.035.028-.192.06-.293-.183.085-.475-.23-.577.18l.012.038-.024.004v.001c-.515.13-.547-.581-.947-.633l.067-.107c-.265.011-.461-.181-.738-.034-.055-.034-.007-.277.097-.39-.193-.009-.286.102-.378-.204.26-.098.054-.197.232-.046-.126-.208-.059-.406-.442-.236.241-.234.08-.434-.058-.407l.004.279c-.124-.022-.194-.1-.268-.178l.278-.332c-.094-.676-1.16.323-.97-.595-.263.188.087.31-.191.546-.141-.16.015-.792-.038-.828-.104-.35-.56.382-.717.086-.053.149-.246.51-.51.51-.141-.16.142-.673.317-.705.048.016.042.069.011.111.086-.01.195-.017.218-.2l-.106.113c0-.186-.245-.325-.05-.499-.21.038-.195.174-.142.302-.098-.327-.34-.228-.485-.5-.01.094-.077.265-.111.24-.227-.373-.307.147-.57.056.002-.277.356-.432.02-.418-.048-.223.197-.354.321-.423-.368.108-.273-.417-.358-.54l.176-.03c-.105.017-.156-.02-.21-.056l-.11.294c-.032-.086-.085-.124-.013-.228-.177.122-.234.455-.517.594.004-.185-.35-.035-.15-.39.186.292.199-.357.46-.26-.07.01-.123-.026-.155-.113.016-.044.055-.063.086-.07-.048-.47-.375.3-.63.115.162-.166.183-.399.113-.387.102.074-.165.349-.361.427-.067-.26-.257-.015-.334-.091l.054.137c-.164.165-.231.084-.39.064.091-.154.177-.03.18-.122-.36.243-.058-.542-.395-.441.005-.185.238-.358.224-.494-.373.106-.041-.406-.39-.353-.117.294-.063.24-.384.381l.471.066-.478.21c.102.078.332-.003.366.083-.25.133-.196.077-.291.32.119-.476-.44.02-.427-.35l.442-.619c-.053-.452-.667.007-.88-.376l.027.18c-.218.217-.224-.105-.399-.079.157-.2.145-.321.192-.482-.105.158-.225-.18-.55.212l.05-.374c-.182-.294-.722.379-.922.131.237-.17.229-.396.512-.439-.082-.06-.13-.152-.235-.009.045-.164-.433.114-.367-.138-.102.064-.268.272-.35.186.02-.049.075-.101.075-.101-.074.101-.247.031-.331.319.213-.828-.748-.478-.567-1.19-.23-.063-.497-.157-.67-.262.054-.053.075-.101.09-.057-.085-.356-.577.482-.676.081.115-.425.27-.076.281-.262.467-.695-.38-.136-.258-.653l.072-.008c.039-.323-.513.016-.69-.197 0 0 .056-.05.078-.1-.404.23-.765.13-1.044.067.264-.21.2-.066.363-.36-.12-.033-.299.444-.539.378.05-.188.012-.414.213-.708l.183.117c.192-.431-.233-.159-.274-.291l.134-.15c-.304-.152-.618.246-.88-.001l-.065.142c-.464.276.042-.322-.343-.147l.267-.437c-.178.019-.663.112-.908.044.339-.215.674-.201.945-.275-.099-.081-.368-.235-.577-.078.072-.008.2-.067.192.026-.37.218-.66.25-.854.08.649-.743-.366-.61-.031-1.324-.58.003-.6-.68-1.046-.961-.34.71-.133-.08-.607.551-.128-.038-.155-.077-.131-.123l.008-.596c.077-.232.201-.062.304-.205-.17-.213.125-.328.12-.6-.151.24-.328.254-.38.075l-.062.415c-.56.088.166-.708-.387-.63l.25-.115c-.242-.012-.542-.46-1.093-.097.032-.093.135-.286.237-.275-.292-.369-1.223-.147-1.246-.675l.152-.123c-.102-.013-.35.179-.307-.039.056-.056.151-.123.128-.157-.078.02-.394.108-.409-.05l.215-.102c-.18-.48-.873-.044-1.25-.188.37-.426.227-.8.155-.984l.057-.056c-.345-.396-.977-.231-1.49-.386.182-.655-.596-.863-.715-1.447-.015.125-.308.318-.41.301-.005-.16-.498.078-.132-.293l.023.035c.284-.432.02-.49-.103-.622l-.487.478c.324-1.042-1.17-.58-.745-1.406-.2.043-.301-.056-.502-.012l.258-.259c-.165-.285-.247-.427-.591-.636l.24-.131c-.143-.17-.939.559-1.103.433l.339-.432c-.283-.264-.22-.879-.84-.799.06-.051.181-.154.24-.126-.118-.138-.234-.753-.72-.182.344-.345-.25-.314-.55-.314l.28-.226c-.452.192-.546.275-.808.186-.008-.075.17-.237.16-.117 0-.27-.352.127-.38-.176l.228-.096c-.119-.163-.197-.066-.467.039-.192.008-.199-.338.016-.582-.162.117-.432.22-.445.07.078-.096.163-.117.205-.126-.054-.408-.65-.076-.547-.486.084-.085.117-.136.13-.174.174.2.306.37.273.373.243-.226.138-.421.59-.609-.3.046-.897.198-.924-.06.016-.03.032-.059.065-.098l.042-.01c-.009-.058-.06-.068-.13-.06-.004-.085-.003-.144-.043-.194.186-.203-.057-.28-.119-.367-.263.25-.314.109-.448.406.008-.03.047-.014.105.027.02.005.036.016.06.009l-.028.016c.054.044.122.106.197.179-.193.062-.367.101-.3-.122-.21.113-.43.229-.534.284.274-.449.286-.838.491-1.074-.368-.107-.608-.482-1.257-.187-.128-.012.075-.21.132-.306.087-.004.122.05.215.007-.255-.023-.416-.366-.805-.088.006-.316.418-.188.146-.378l.138-.062c.174-.97-1.6.002-1.302-1.164-.015.075-.021.112-.077.17-.175-.884-1.365-1.029-1.308-2.07-.024-.26-.281-.096-.549-.067l.283-.272-.502.082c-.47-.07.43-1.023-.32-.994l-.181.196c-.05-.149-.405-.3-.142-.451-.048.015-.253.115-.174-.01l.165-.12-.499-.105c-.036-.318.697-.417.503-.773-.148-.082-.725-.028-.812.087.02.053-.027.195-.196.309l-.167-.063c-.526.29-1.123.504-1.261 1.064l.453.019-.196.23-.138-.172c-.16.254.087.187.274.167-.117.103-.186.194-.205.269l.619-.114c-.177.158-.45.171-.46.383.287-.054.37-.39.625-.33-.155.254-.357.352-.084.337-.115.105-.213.136-.302.128.226 0 .26.233.56.1-.2.298.323.293-.145.617.133-.047.492-.081.581-.003-.678.234.23.37-.39.761.587-.242.56.295 1.004.304-.048.018-.145.054-.136.016.057.153-.062.301-.09.451.412-.293.654-.174.979-.264-.265.45-.538.276-.87.611.317-.26.528.01.755-.253-.146.302-.037.19-.317.508.51-.373.17.04.55-.11-.109.36-.427.413-.13.472-.08.208-.385.188-.385.188M67.014 20.12c-.002.039.003.087.01.136-.06.02-.126.017-.126-.015.043.012.07-.068.116-.121zm-1.155.856c-.035-.048-.003-.07.032-.083.008.024.02.05.038.087l.023.002c-.036 0-.068 0-.093-.006zM86.602 1.571l.085-.02c.014-.376-.32-.02-.465-.077l.126-.245-.208.18c-.019-.075-.008-.227.079-.249-.083-.152-.121.071-.183-.092-.006-.025.002-.036.013-.045l-.125.054c.033-.05.022-.188.08-.135-.164-.194-.358.128-.39-.086l.02-.013c-.29.03-.066.187-.314.37l-.046-.499-.063.188c-.027-.012-.081-.036-.057-.111-.129.114.003.087-.08.202-.105-.2-.387.018-.367-.296-.073.139.111.136-.05.214.013-.34-.177.027-.276-.146.064-.165.168-.054.067-.229-.12.275-.234-.1-.35-.057-.037.23-.244.068-.431.123.02-.076-.32-.169-.478-.273L83.2.29c-.057.229-.223.169-.353.21.018-.14.045-.194.119-.251L82.846.24c-.034.073-.075.11-.153.132L82.738.2c-.16-.002-.333.184-.528.053-.02.164.129.469-.087.564-.002-.09-.001-.242.056-.275-.018.01-.07.07-.104.03l.095-.144c-.088-.072-.056.121-.128.102.01-.127-.05-.094-.032-.194.018-.01.06.057.091.009-.081-.028-.178-.11-.206-.209.003.073-.009.17-.07.183-.158-.001-.047-.157-.137-.226-.042.088-.14-.005-.149.184-.046 0-.052-.089-.068-.14-.085.082-.383.02-.295.223l.021.014-.014.008c-.267.187-.551-.111-.818-.032V.287c-.156.066-.35.059-.457.2-.046.003-.116-.108-.099-.185-.119.056-.127.127-.309.035.115-.119-.048-.096.12-.09-.16-.043-.205-.143-.362.041.047-.165-.135-.195-.207-.141l.121.108c-.082.03-.158.02-.234.011l.022-.215c-.36-.246-.533.505-.836.108-.064.162.191.077.137.262-.149-.005-.35-.286-.398-.278-.225-.086-.14.337-.365.291.041.07.1.267-.041.362-.15-.005-.242-.286-.159-.361.034-.012.056.01.058.035.043-.035.102-.076.027-.148l-.005.077c-.088-.065-.293-.025-.27-.155-.098.089-.022.13.069.156-.215-.085-.295.065-.507.038.041.033.09.112.059.12-.305-.019-.091.173-.272.254-.137-.084-.03-.278-.198-.135-.139-.045-.078-.189-.046-.26-.139.188-.359-.007-.471-.006l.078-.084c-.047.05-.093.062-.14.074l.096.132c-.062-.011-.11 0-.126-.06-.029.11.116.231.044.39C75.599.81 75.5 1 75.413.817c.25.003-.088-.187.097-.27-.03.032-.077.044-.14.033-.016-.02-.005-.043.007-.057-.277-.1-.03.253-.253.331-.009-.118-.123-.184-.15-.146.091-.034.105.162.054.276-.172-.028-.13.121-.207.14l.098.007c.012.118-.063.13-.146.202-.04-.08.066-.092.018-.115-.034.229-.322-.097-.422.087-.101-.043-.091-.194-.174-.218-.113.202-.25-.07-.383.114.118.118.11.081.048.266l.248-.214-.095.278c.088-.033.145-.161.208-.159-.039.15-.043.112.048.212-.21-.161-.181.208-.378.133l-.16-.346c-.277-.04-.268.37-.569.428l.114.012c.037.152-.148.106-.2.206-.056-.116-.13-.127-.207-.176.052.08-.194.099-.087.33l-.202-.08c-.242.067-.053.422-.25.525-.023-.156-.156-.168-.088-.343-.063.045-.13.068-.081.142-.082-.04-.07.268-.196.212.008.064.076.178.004.22-.023-.014-.037-.05-.037-.05.036.052-.054.148.087.218-.422-.176-.489.409-.865.27l-.328.401c-.019-.035-.043-.046-.013-.057-.225.064.163.357-.088.428-.226-.06.008-.169-.098-.17-.316-.275-.155.244-.439.188l.009-.045c-.188-.008-.09.325-.248.446 0 0-.02-.031-.046-.042.068.241-.056.464-.13.641-.095-.15-.012-.117-.168-.197-.035.08.22.147.163.312-.102-.012-.232.04-.383-.055l.083-.138c-.228-.073-.112.177-.192.221l-.074-.069c-.115.225.089.375-.073.579l.077.02c.128.26-.184.02-.109.241l-.237-.106c-.004.114.02.408-.034.57-.108-.177-.078-.393-.1-.557-.044.063-.102.195-.09.304.001-.023.007-.043.03-.047.106.201.107.374-.002.523-.422-.28-.327.365-.729.302.013.38-.367.552-.516.915.41.038-.041.105.328.247-.018.09-.038.117-.065.114l-.336.147c-.13.014-.046-.113-.128-.14-.107.17-.185.011-.332.092.14.03.163.144.073.229l.224-.078c.098.337-.391.098-.298.438l-.083-.129c.018.161-.191.5.06.737-.053.009-.167.004-.171-.065-.16.312.04.812-.198 1.014l-.085-.054c.01.071.146.159.032.209-.037-.015-.086-.052-.1-.025.024.042.12.209.045.275l-.086-.098c-.207.29.126.562.121.841-.275-.067-.432.166-.51.284l-.038-.013c-.128.372.115.697.161 1.063-.338.168-.253.718-.473 1.051.056-.049.22.034.243.1-.064.077.18.248-.08.21l.007-.03c-.259.036-.205.216-.222.35l.338.051c-.522.312.111.919-.347 1.087.082.086.084.191.168.277l-.183-.01c-.048.233-.071.351-.027.641l-.131-.06c-.012.165.527.207.539.354l-.274.048c.005.282-.243.58.032.85-.041-.003-.12-.007-.135-.053.002.133-.15.528.222.457-.244.017-.005.294.113.437l-.181-.01c.237.11.3.109.376.281-.02.045-.142.05-.1-.01-.083.149.177.094.095.273l-.12-.053c-.002.146.062.129.205.194.084.082-.01.277-.17.316.102.008.243.072.207.161-.059.019-.102-.007-.121-.02-.092.256.252.33.098.518-.058.012-.086.027-.103.043-.02-.192-.03-.348-.015-.335-.164.021-.173.18-.417.086.141.11.438.286.378.448-.013.01-.028.019-.053.028l-.02-.013c-.012.038.007.067.038.092-.02.053-.037.087-.033.133-.134.039-.042.189-.035.267.179-.035.168.07.3-.049-.011.015-.025-.01-.042-.06-.006-.01-.012-.023-.024-.029l.017.002c-.013-.049-.033-.113-.045-.188.099.047.19.097.104.197l.309.06c-.23.144-.33.369-.478.425.143.216.167.542.529.62.054.057-.083.096-.13.131-.042-.031-.044-.077-.096-.09.105.118.116.385.355.366-.067.188-.236-.047-.145.172l-.079-.015c-.261.536.75.587.411 1.19.02-.04.028-.06.065-.078-.056.616.508 1.088.363 1.73-.016.176.134.146.273.203l-.174.095.27.088c.235.17-.313.55.084.733l.11-.083c.015.112.197.294.05.332.026.002.14-.016.091.048l-.093.04.26.186c.013.22-.39.121-.286.415.079.09.407.19.45.118-.015-.046.008-.135.1-.18l.092.072c.281-.105.587-.176.69-.464l-.235-.082.114-.106.062.125c.096-.126-.035-.124-.134-.145.066-.04.108-.083.122-.125l-.328-.047c.103-.06.244-.016.264-.144-.152-.023-.218.167-.347.079.098-.126.212-.144.068-.19.068-.04.12-.039.166-.017-.118-.045-.118-.192-.283-.178.128-.137-.138-.255.132-.343-.073-.002-.26-.066-.298-.136.37.022-.079-.282.28-.363-.328 0-.246-.317-.465-.442.026.003.08.006.07.027-.008-.107.07-.165.106-.246-.246.063-.352-.076-.528-.117.195-.192.309-.01.521-.117-.195.067-.264-.154-.413-.063.118-.139.047-.103.235-.21-.309.07-.076-.074-.284-.099.11-.18.275-.116.141-.24.074-.097.218.006.218.006-.037-.154-.245-.01-.385-.006-.117-.166.145-.131.246-.224-.093-.098-.329-.13-.344-.218.037-.017.046-.037.1-.03-.222-.072-.1-.358-.365-.446.019-.014.036-.024.054-.032-.112.052-.23.083-.315.099-.02-.07-.176-.097-.03-.16.005.045.067.034.12.044l-.084-.06c.203-.116.098.084.26.046-.103-.126-.323-.254-.287-.377.209-.071.13.24.288.05l-.043.189c.308-.207 0 .108.335-.094.01-.234-.167-.222-.156-.457-.13-.024-.173.055-.303.03-.29-.273.487-.36.155-.535-.154-.032-.43-.003-.317-.198l.254.011c-.014-.22-.373-.06-.25-.318.103.024.111.157.134.12.166-.182-.157-.08-.178-.194l.213-.061c-.075-.225-.285-.453-.353-.708.068.005.141.039.2-.031-.15-.31-.061-.698.028-1.021l-.204-.1c-.001-.028.08-.06.12-.035.055-.128-.121.007-.203-.045-.023-.07.101-.102.16-.064-.175-.199-.386-.59-.199-.832l.06.04c.064-.18-.402-.177-.237-.353l.036.03c.045-.39-.122-.816.165-1.114-.273-.056.123-.38-.259-.408.19-.22.257-.155.384-.46.02-.081-.242-.132-.271-.235l.2.005-.198-.147.243-.063-.043-.097c-.015.037-.097.076-.152.067-.08-.155.166-.356.269-.352l-.142-.365c.08.016.103.076.15.127-.188-.204.211-.016.04-.204-.047.019-.118-.023-.158-.03.126-.076.143-.269.103-.42l.135.043c.045-.255.014-.547.058-.837-.08.093-.312.036-.32-.053l.213-.003c-.12-.075-.093.078-.231-.06.041-.106.247-.036.306.036l-.051-.143c.064.003.09.039.168.06-.12-.075.245-.19.035-.306l.062.004c.05-.285-.007-.43.03-.665-.176-.042-.113-.123-.238-.223.102-.16.29-.314.328-.521-.05-.166-.137-.08-.225-.172.163.03.202-.177.29-.041.037-.252.048-.32 0-.67-.073.014-.112.044-.16.007-.011-.064.1-.108.174-.077l.012.02c-.125-.427.745-.623.515-1.004l.01.02-.064-.342c.075-.118.087.123.218.065-.138-.4.197-.462.159-.764.535.023.295-.66.698-.765l-.109-.04c-.067-.114.097-.046.143-.08-.081-.034-.126.021-.161-.047.12-.63.779-.97 1.189-1.395.145-.16-.41-.455-.032-.522l.125.194c.022-.549.605-.659.724-1.136.018.054.063.099.035.128.173.042.235-.238.15-.33.056-.04.09.07.163.086.124 0 .022-.31.16-.234.024.013.017.056.014.076-.017-.105.214-.173.053-.268.186-.034.198-.25.37-.247-.058-.207.281-.094.13-.333.169.237.366.014.37-.16.023.092.124.019.162.143.09-.074.144-.184.044-.296.354.149.23-.46.567-.148.223-.302.462-.556.715-.773.117.265-.298.198-.145.46.205-.243.242-.577.562-.612.089.008.01.131.006.186.235-.22.552-.186.748-.433.009.025-.009.064-.026.094.046-.028.13-.004.079-.126l-.037.053c-.147-.148.063-.455.041-.554.04.39.287-.01.304.496.024-.037.046-.113.01-.193.057.005.089.048.071.162.157-.132.053-.237.223-.282.018.062-.009.094-.004.17.048-.141.1-.282.26-.268.001.038.032.083-.01.093.238-.082.336-.43.64-.386-.017.292.114.065.18.295l.13-.107-.083-.099c.127-.034.209-.225.338-.163l-.079.111.237-.082-.156-.068c.112-.142-.072-.295.118-.257-.031.03.137-.018.23.11l-.002.002c.054-.086.11-.176.218-.133.037.072.02.265.045.313.034-.208.3-.102.353-.327-.021.054-.005.179.006.203l.033-.17c.069.042.08.066.083.167.187 0-.095-.293.14-.197-.016.015-.005.038-.037.069.226.03.419-.138.63-.077.08.236-.172.07-.085.27.284-.064.585-.33.875-.294l-.055-.023c.027-.339.22.146.358-.008-.034.025-.041.189-.032.151.196.056.396-.082.695-.187l-.037.088c.114.079.304.047.427.087.039-.087.11-.073.07-.2.364.499.753-.223 1.069.21-.041-.002-.102.07-.07.072l.296-.06c-.01-.15-.03-.093-.082-.213.044-.084.134-.146.207-.141-.14.088-.02.237.028.324-.005-.046.018-.095.018-.142.127.275.056-.298.247-.096l-.02.077c.082-.03.166-.124.248-.092.015.176-.093.07-.113.21.118.004.27-.294.356-.11-.056.04-.127.032-.184.073.093.215.112.165.193.207l-.008-.005.186.115-.042-.06c.206-.424.31-.048.55-.307-.234.243-.056.153-.1.344.042.062.108.134.077.185.117-.14.134.148.3-.056-.004.063.1.023.05.175.129-.029-.008-.113.015-.188.223-.177.387.324.705.091.253-.07.34-.268.577-.324.051.113-.108.21-.108.21.096.115.186.117.312.07-.035.049-.022.098-.006.174.09.006.111-.207.204-.088-.036.062-.088.165-.146.223.115-.032.244-.12.363-.148 0 .113-.104.144-.158.204.084-.011.188-.033.28-.079-.118.074-.116-.103-.106-.162z" transform="translate(86.814672, 96.986479) translate(14.945328, 3.813521)"/>
                        </g>
                    </g>
                </g>
            </g>
        </g>
    </g>
</svg>
