<svg xmlns="http://www.w3.org/2000/svg" xmlns:xlink="http://www.w3.org/1999/xlink" width="360" height="358" viewBox="0 0 360 358">
    <defs>
        <path id="sbiizfdyla" d="M0 0h358.09v178.568c0 98.092-79.52 177.612-177.613 177.612h-2.864C79.52 356.18 0 276.66 0 178.568V0z"/>
        <path id="0xotav96uc" d="M74.379 31.08S63.329 14.82 55.326 7.694c-8-7.125-15.87-8.75-23.49-7.105-.924.2-1.835.504-2.731.905l.175-.947c-3.048.961-8.623 2.944-14.72 6.234C9.28 9.629 3.377 14.49 0 17.437l11.861 14.366c-2.913 16.028-3.6 42.655-3.6 42.655s8.775.979 25.539 1.162c16.765.182 26.834-.523 26.834-.523s-.662-6.51-1.493-12.887c-1.143-8.769-2.91-20.462-2.91-20.462s1.191-.437 7.099-3.36c5.905-2.924 11.049-7.308 11.049-7.308"/>
    </defs>
    <g fill="none" fill-rule="evenodd">
        <g>
            <path fill="#EDF6FA" d="M0 0h358.09v178.568c0 98.092-79.52 177.612-177.613 177.612h-2.864C79.52 356.18 0 276.66 0 178.568V0z" transform="translate(0.954907, 0.954907)"/>
            <g transform="translate(0.954907, 0.954907)">
                <mask id="ixfkjpdy7b" fill="#fff">
                    <use xlink:href="#sbiizfdyla"/>
                </mask>
                <path fill="#FFF" d="M316.99 220.776l11.237 41.875 11.695-11.693 23.873 23.872-23.873 23.873-23.872-23.873 1.457-1.459-36.524 9.772-4.476-16.682-59.316 15.87 10.194 37.994c.144.536-.174 1.088-.712 1.233-.536.144-1.088-.175-1.234-.712l-10.716-39.94 61.262-16.39-8.203-30.572 49.208-13.168zm22.932 33.027l-11.093 11.09 1.365 5.084-8.806 2.356-2.496 2.497 21.03 21.028 21.03-21.028-21.03-21.027zm-230.787-1.596c.401-.392 1.05-.392 1.45 0l38.055 37.147c.401.392.401 1.026 0 1.416-.2.197-.462.294-.725.294-.263 0-.526-.097-.724-.294l-38.056-37.149c-.4-.39-.4-1.024 0-1.414zm206.431-28.964l-45.318 12.125 7.683 28.626 37.6-10.059c.539-.144 1.09.175 1.234.713.072.268.029.541-.1.763-.129.224-.343.397-.612.47l-37.6 10.059 3.953 14.737 37.947-10.152 6.23-6.23-11.017-41.052zm11.62 43.293l-2.952 2.951 3.493-.934-.542-2.017zM147.207 92.738c.397-.393 1.039-.393 1.436 0 .396.393.396 1.031 0 1.426l-37.386 37.118 10.983 10.904-33.128 32.893-10.982-10.905-27.54 27.345 36.01 35.755c.397.394.397 1.032 0 1.425-.197.197-.457.296-.717.296-.26 0-.52-.1-.718-.296l-37.445-37.18 28.974-28.77-20.711-20.563 33.129-32.893 20.71 20.563zm-117.646 44.79l8.74 32.61-32.612 8.738-8.738-32.61 32.61-8.738zm-1.421 2.462l-28.725 7.698 7.695 28.727 28.726-7.699-7.696-28.726zm81.682-7.282l-30.256 30.041 9.546 9.478 30.256-30.041-9.546-9.478zm-20.71-20.564l-30.257 30.042 19.275 19.138 30.256-30.042-19.274-19.138zM203.529-71.53c.538-.146 1.091.173 1.235.713l13.452 50.937 14.935-4.06 11.922 45.137-14.935 4.058 9.911 37.522 48.97-13.308c.54-.146 1.093.173 1.235.713.072.269.027.544-.103.77-.13.223-.345.4-.615.473l-50.922 13.838-10.428-39.477-28.164 7.654-11.921-45.136 28.163-7.655-13.453-50.935c-.142-.54.18-1.096.718-1.244zm70.427 19.782l44.826 44.86 22.374-22.391 36.008 36.032-36.008 36.035L305.15 6.753l12.21-12.217-43.403-43.434-27.806 27.825c-.393.393-1.03.393-1.424 0-.393-.392-.393-1.03 0-1.424l29.23-29.25zm67.2 25.317l-20.95 20.967 27.512 27.533c.394.394.394 1.03 0 1.425-.196.196-.455.295-.711.295-.259 0-.515-.099-.713-.295L318.782-4.04 307.997 6.753l33.16 33.187 33.159-33.187-33.16-33.184zm-124.375 9.037l-26.21 7.123 10.887 41.224 26.212-7.123-10.889-41.224zm14.934-4.059l-12.981 3.528L229.622 23.3l12.981-3.528-10.888-41.224zm-80.328-9.608c.54-.151 1.089.166 1.226.708.07.272.024.547-.108.775-.131.228-.347.407-.616.48l-51.2 14.383c-.538.151-1.087-.166-1.226-.707-.138-.544.186-1.105.726-1.256z" mask="url(#ixfkjpdy7b)" transform="translate(187.058038, 125.013742) rotate(-270.000000) translate(-187.058038, -125.013742)"/>
                <g mask="url(#ixfkjpdy7b)">
                    <g>
                        <g fill="#FFF">
                            <path d="M117.384 256.931h-101C7.337 256.931 0 249.6 0 240.556V16.376C0 7.33 7.336 0 16.385 0h101c9.049 0 16.384 7.331 16.384 16.375v224.181c0 9.043-7.335 16.375-16.385 16.375" transform="translate(67.798408, 98.355438)"/>
                            <path d="M116.292 6.541h-17.58c0 5.664-4.596 10.255-10.263 10.255h-42.89c-5.666 0-10.26-4.59-10.26-10.255H17.716c-6.395 0-11.58 5.182-11.58 11.574v220.96c0 6.392 5.185 11.575 11.58 11.575h98.577c6.395 0 11.58-5.183 11.58-11.575V18.115c0-6.392-5.185-11.574-11.58-11.574M193.882 235.904L195.667 250.027 202.508 252.257 205.781 250.918 205.781 232.634zM167.726 235.904L169.511 250.027 176.352 252.257 179.625 250.918 179.625 232.634z" transform="translate(67.798408, 98.355438)"/>
                            <path d="M147.2 257.31h35.995c1.933 0 1.784-5.796.744-8.472-1.042-2.677-2.38-4.311-3.422-4.163-1.041.149 0 3.122-5.8 3.717-5.802.595-5.504-3.717-6.099-4.609-.595-.891-4.165-1.19-6.395 1.189-2.232 2.38-9.669 5.352-12.494 6.69-2.827 1.337-2.53 5.649-2.53 5.649" transform="translate(67.798408, 98.355438)"/>
                            <path d="M173.355 257.31h35.995c1.934 0 1.785-5.796.745-8.472-1.043-2.677-2.38-4.311-3.422-4.163-1.041.149 0 3.122-5.8 3.717-5.802.595-5.504-3.717-6.1-4.609-.594-.891-4.164-1.19-6.395 1.189-2.231 2.38-9.668 5.352-12.494 6.69-2.826 1.337-2.53 5.649-2.53 5.649M257.453 242.013h-.001c-8.514 6.738-20.882 5.302-27.624-3.207L108.41 85.554 93.358 38.976c-.867-3.29 1.122-5.087 4.128-3.49l41.757 25.666L260.66 214.404c6.742 8.51 5.305 20.87-3.208 27.609" transform="translate(67.798408, 98.355438)"/>
                        </g>
                        <g fill="#70A6BD">
                            <path d="M20.1 10.217L4.365.593C1.336-1.009-.667.792.205 4.091l5.728 17.632c1.558.003 4.329-.603 8.317-3.743 4.224-3.326 5.479-6.216 5.85-7.763M165.51 207.613c8.577-6.754 10.025-19.144 3.233-27.674l-7.992-10.038s-.594 6.386-12.96 16.125c-12.823 10.097-18.098 8.336-18.101 8.335l7.993 10.038c6.791 8.53 19.25 9.969 27.827 3.214" transform="translate(67.798408, 98.355438) translate(91.288174, 36.085001)"/>
                        </g>
                        <g transform="translate(67.798408, 98.355438) translate(149.607035, 58.440318)">
                            <use fill="#F09D4C" xlink:href="#0xotav96uc"/>
                        </g>
                        <g fill="#FFF">
                            <path d="M180.805 157.895c-.471-11.086-.357-37.188-.288-47.714-3.907.2-12.187.519-23.733.386l-1.275-.017v-.001c-11.5-.165-18.961-.724-22.064-1.005-.3 10.013-.563 29.154.876 48.724 2.088 28.4 5.37 58.054 5.37 58.054s5.666.598 10.438.299c4.772-.3 7.456-1.196 7.456-1.196l.588-22.989c3.221 12.28 5.974 22.334 5.974 22.334s2.386 1.794 10.14 1.494c7.756-.299 10.142-3.288 10.142-3.288s-3.029-41.03-3.624-55.08M158.218 96.522s6.333-2.406 8.999-2.406h4.6l-.867 3.475-5 .067s-8.332 1.603-7.732-1.136" transform="translate(67.798408, 98.355438) translate(25.973475, 22.726790)"/>
                            <path d="M194.83 67.365s5.27 6.282 8.412 13.267c3.143 6.987.958 9.314-1.093 11.232-2.049 1.918-10.523 6.165-19.543 9.453-6.479 2.36-11.616 4.246-11.616 4.246s-5.096 1.21-10.865 3.795c-.515.23-1.534.197-1.754-.207-.29-.537-.184-1.18-.184-1.18s-.687.098-1.13-.832c-.435-.913.213-1.649.213-1.649s-.744-.559-.583-1.65c.131-.892 1.673-2.673 2.382-3.311 3.972-3.566 10.828-5.24 10.828-5.24s5.193-3.56 9.566-7.26c2.987-2.526 4.647-3.425 4.647-3.425l-4.396-8.441s7.606-2.933 15.115-8.798M168.825 13.056c-2.334-.563-3.819 1.275-3.819 1.275s2.249-4.337-.034-8.772c-2.283-4.434-11.891-7.985-15.733-3.458 0 0-3.892 9.393-1.354 17.436 1.915 6.07 3.914 6.78 5.27 7.04-.033 1.271-.114 2.756-.295 4.15-.15 1.15-.813 4.814-.813 4.814s-3.175 3.04 6.409 3.736c7.671.557 8.294-4.18 8.294-4.18s-1.024-3.52-.962-6.591c.043-2.074.182-5.016.293-7.159.719.237 3.131.79 4.517-1.835 1.736-3.29.022-6.024-1.773-6.456M21.582 50.194H4.236c-2.34 0-4.236-1.9-4.236-4.245V28.562c0-2.345 1.896-4.245 4.236-4.245h17.346c2.339 0 4.235 1.9 4.235 4.245v17.387c0 2.345-1.896 4.245-4.235 4.245M21.582 98.504H4.236c-2.34 0-4.236-1.9-4.236-4.245V76.87c0-2.344 1.896-4.244 4.236-4.244h17.346c2.339 0 4.235 1.9 4.235 4.244V94.26c0 2.345-1.896 4.245-4.235 4.245M21.582 146.815H4.236c-2.34 0-4.236-1.9-4.236-4.245v-17.388c0-2.345 1.896-4.245 4.236-4.245h17.346c2.339 0 4.235 1.9 4.235 4.245v17.388c0 2.344-1.896 4.245-4.235 4.245M21.582 195.124H4.236c-2.34 0-4.236-1.9-4.236-4.244v-17.389c0-2.344 1.896-4.244 4.236-4.244h17.346c2.339 0 4.235 1.9 4.235 4.244v17.389c0 2.344-1.896 4.244-4.235 4.244M96.15 79.686s-1.849.644-.059 3.862c.293.525 1.462 1.951 1.462 1.951s-.367.87.38 1.849c.85 1.115 2.051 1.396 2.051 1.396s-.07 1.599 1.435 2.21c3.019 1.227 8.532-1.714 9.932-3.074.628-.611 1.876-1.494 2.018-2.655.145-1.185-.429-1.649-.429-1.649s.679-.956.106-2.155c-.498-1.04-1.71-.6-1.71-.6s-.64-.84-1.413-.944c-3.108-.425-6.54 1.547-9.346 2.013-2.979.496-4.427-2.204-4.427-2.204" transform="translate(67.798408, 98.355438) translate(25.973475, 22.726790)"/>
                        </g>
                        <g fill="#70A6BD">
                            <path d="M15.944 7.471c0 4.127-3.57 7.471-7.972 7.471C3.57 14.942 0 11.598 0 7.471 0 3.344 3.57 0 7.972 0c4.402 0 7.972 3.344 7.972 7.471M15.944 55.799c0 4.126-3.57 7.47-7.972 7.47C3.57 63.27 0 59.926 0 55.8c0-4.127 3.57-7.472 7.972-7.472 4.402 0 7.972 3.345 7.972 7.472M15.944 104.127c0 4.127-3.57 7.471-7.972 7.471-4.403 0-7.972-3.344-7.972-7.471 0-4.127 3.57-7.471 7.972-7.471 4.402 0 7.972 3.344 7.972 7.471M15.944 152.454c0 4.127-3.57 7.471-7.972 7.471-4.403 0-7.972-3.344-7.972-7.47 0-4.127 3.57-7.472 7.972-7.472 4.402 0 7.972 3.345 7.972 7.471" transform="translate(67.798408, 98.355438) translate(29.661231, 52.124492)"/>
                        </g>
                        <g fill="#475574">
                            <path d="M85.107 1.345h6.462c.372 0 .674-.3.674-.673 0-.371-.302-.672-.674-.672h-6.462c-.374 0-.675.3-.675.672 0 .373.301.673.675.673M46.156 16.653c-5.291 0-9.598-4.295-9.598-9.574v-.673H18.286c-6.763 0-12.266 5.49-12.266 12.237v12.488c0 .372.302.673.675.673.372 0 .673-.301.673-.673V18.643c0-6.006 4.897-10.892 10.918-10.892h16.946C35.582 13.461 40.346 18 46.156 18h42.931c5.81 0 10.576-4.538 10.925-10.248h16.946c6.02 0 10.918 4.886 10.918 10.892v19.058c0 .372.3.674.673.674.372 0 .675-.302.675-.674V18.643c0-6.747-5.503-12.237-12.266-12.237H98.685v.673c0 5.279-4.305 9.574-9.598 9.574h-42.93zM57.248 250.985c0 .371.301.672.674.672h59.035c6.763 0 12.266-5.49 12.266-12.237V131.433c0-.372-.301-.672-.674-.672-.372 0-.673.3-.673.672V239.42c0 6.006-4.899 10.891-10.919 10.891H57.922c-.373 0-.674.302-.674.674M6.694 70.755c-.372 0-.674.3-.674.672V239.42c0 6.747 5.503 12.237 12.266 12.237h9.818c.372 0 .673-.3.673-.672 0-.373-.301-.673-.673-.673h-9.818c-6.02 0-10.917-4.886-10.917-10.892V71.427c0-.371-.302-.672-.675-.672M50.973 67.498c0 2.818-2.298 5.111-5.124 5.111H31.546c-2.825 0-5.125-2.293-5.125-5.11V53.227c0-2.819 2.3-5.112 5.125-5.112h14.303c2.826 0 5.124 2.293 5.124 5.112v14.27zm1.348-14.27c0-3.56-2.902-6.458-6.472-6.458H31.546c-3.569 0-6.472 2.898-6.472 6.458v14.27c0 3.56 2.903 6.456 6.472 6.456h14.303c3.57 0 6.472-2.896 6.472-6.456v-14.27zM61.352 51.181H86.9c.372 0 .675-.3.675-.672 0-.373-.303-.673-.675-.673H61.352c-.372 0-.674.3-.674.673 0 .371.302.672.674.672M89.516 60.34H61.352c-.372 0-.673.3-.673.672 0 .372.3.672.673.672h28.164c.372 0 .673-.3.673-.672 0-.371-.3-.672-.673-.672M50.973 115.734c0 2.819-2.298 5.112-5.124 5.112H31.546c-2.825 0-5.125-2.293-5.125-5.112v-14.27c0-2.819 2.3-5.111 5.125-5.111h14.303c2.826 0 5.124 2.292 5.124 5.11v14.271zm1.348-14.27c0-3.56-2.902-6.457-6.472-6.457H31.546c-3.569 0-6.472 2.897-6.472 6.457v14.27c0 3.56 2.903 6.457 6.472 6.457h14.303c3.57 0 6.472-2.897 6.472-6.457v-14.27zM103.091 98.073H61.352c-.372 0-.674.3-.674.672 0 .371.302.672.674.672h41.739c.372 0 .675-.3.675-.672 0-.372-.303-.672-.675-.672M61.352 109.921h30.093c.373 0 .675-.3.675-.673 0-.371-.302-.672-.675-.672H61.352c-.372 0-.674.3-.674.672 0 .373.302.673.674.673M50.973 163.97c0 2.82-2.298 5.113-5.124 5.113H31.546c-2.825 0-5.125-2.294-5.125-5.112V149.7c0-2.818 2.3-5.112 5.125-5.112h14.303c2.826 0 5.124 2.294 5.124 5.111v14.27zm1.348-14.27c0-3.559-2.902-6.455-6.472-6.455H31.546c-3.569 0-6.472 2.896-6.472 6.455v14.27c0 3.562 2.903 6.457 6.472 6.457h14.303c3.57 0 6.472-2.895 6.472-6.456V149.7zM107.135 146.31H61.352c-.372 0-.673.3-.673.672 0 .372.3.672.673.672h45.783c.373 0 .675-.3.675-.672 0-.371-.302-.672-.675-.672M61.352 158.158h45.542c.373 0 .674-.3.674-.672 0-.372-.301-.673-.674-.673H61.352c-.372 0-.674.301-.674.673 0 .371.302.672.674.672M26.422 212.208v-14.27c0-2.818 2.299-5.112 5.124-5.112H45.85c2.826 0 5.125 2.294 5.125 5.111v14.27c0 2.82-2.3 5.113-5.125 5.113H31.546c-2.825 0-5.124-2.293-5.124-5.112zm19.427 6.456c3.57 0 6.472-2.895 6.472-6.456v-14.27c0-3.56-2.902-6.457-6.472-6.457H31.546c-3.57 0-6.472 2.896-6.472 6.456v14.27c0 3.562 2.903 6.457 6.472 6.457H45.85z" transform="translate(67.798408, 98.355438) translate(0.434883, 0.442726)"/>
                            <path d="M61.352 195.892h45.783c.373 0 .674-.301.674-.673 0-.372-.301-.673-.674-.673H61.352c-.372 0-.674.3-.674.673 0 .372.302.673.674.673M61.352 206.395h21.336c.373 0 .673-.3.673-.672 0-.373-.3-.673-.673-.673H61.352c-.372 0-.674.3-.674.673 0 .371.302.672.674.672M107.14 205.05H88.003c-.372 0-.675.3-.675.673 0 .371.303.672.675.672h19.135c.373 0 .675-.3.675-.672 0-.373-.302-.673-.675-.673M183.849 36.43c.083-.626-.241-1.185-.723-1.249-.483-.063-.942.393-1.025 1.02-.083.626.242 1.186.724 1.249.482.064.94-.392 1.024-1.02M176.26 34.998c-.433-.068-.866.382-.964 1.007-.098.624.174 1.186.608 1.254.434.068.867-.383.964-1.008.1-.623-.173-1.185-.607-1.253M178.821 39.367c.453-.816.852-1.786.87-1.827.14-.344-.025-.736-.369-.877-.339-.14-.739.024-.88.368-.004.009-.386.939-.8 1.684l-.157.273c-.296.513-.604 1.04-.436 1.606.098.325.331.581.692.763.34.17.748.22 1.113.22.426 0 .786-.068.898-.091.364-.076.597-.432.522-.795-.075-.364-.438-.595-.797-.522-.296.062-.794.092-1.092-.007.057-.139.18-.348.266-.5l.17-.295zM185.058 32.166c-.122-.071-1.23-.674-2.953-.211-.36.096-.572.466-.475.825.095.356.47.571.824.474 1.173-.317 1.888.055 1.929.077.106.06.22.087.334.087.23 0 .456-.118.582-.332.188-.321.08-.732-.241-.92M179.11 44.958c.579.163 1.117.233 1.617.233 2.18 0 3.593-1.342 4.099-2.207.188-.32.079-.727-.24-.916-.323-.19-.733-.081-.923.235-.053.09-1.333 2.166-4.186 1.36-.363-.101-.73.107-.832.465-.101.358.108.729.466.83" transform="translate(67.798408, 98.355438) translate(0.434883, 0.442726)"/>
                            <path d="M176.65 55.507c1.913-.191 2.533-1.592 2.752-2.739l.445-2.329c.28.037.56.073.873.073 2.253 0 5.275-1.006 8.064-3.886.26-.267.252-.692-.014-.951-.27-.258-.697-.249-.954.016-2.938 3.032-6.154 3.726-8.047 3.395-1.233-.216-3.098-.542-5.025-6.618-.898-2.836-.951-5.864-.666-8.57.029.004.055.02.084.02.141 0 .283-.044.403-.133.66-.493 1.57-.265 1.592-.259.36.1.726-.113.826-.469.098-.358-.11-.728-.47-.828-.053-.013-1.166-.306-2.241.18.03-.193.056-.393.09-.58.487-.783 1.66-2.607 3.12-4.472 1.932-2.47 2.664-2.83 2.664-2.83s2.34 2.571 4.908 6.154c3.345 4.668 4.52 8.969 6.62 7.347.317-.246.534-.46.717-.652.542-.384 1.428-.797 2.56-.522.669.16 1.306.75 1.665 1.543.304.67.664 2.072-.324 3.935-1.304 2.457-3.618 1.564-3.885 1.451-.338-.146-.735.01-.884.35-.029.064-.036.132-.043.2-.498.717-2.057 3.226-2.45 7.087-.344 3.387.18 4.744 7.918 5.043 3.78.146 8.159-.834 10.756-2.405 2.156-1.304 2.156-2.075-.226-6.481-1.647-3.048-4.365-10.253-6.9-18.323-2.306-7.336-4.456-9.589-11.007-10.883-5.614-1.108-8.954 1.983-8.954 1.983s-1.445-.461-2.786.237c-2.725 1.419-3.616 3.252-4.682 7.213-2.78 10.322-5.494 14.881-7.349 18.863-1.957 4.199-2.714 6.14-1.59 7.026 2.164 1.704 11.379 1.92 12.44 1.814" transform="translate(67.798408, 98.355438) translate(0.434883, 0.442726)"/>
                            <path d="M192.424 41.108c-.35-.12-.733.067-.855.417-.12.35.065.734.418.855.038.013.538.18 1.17.18.557 0 1.215-.13 1.75-.612 1.223-1.108.842-2.847.825-2.92-.082-.362-.443-.583-.803-.504-.363.08-.59.438-.512.8.002.011.22 1.053-.416 1.627-.528.482-1.557.165-1.577.157M240.228 220.309c-1.417 1.12-2.819 2.152-4.165 3.065-.308.21-.387.627-.178.934.13.192.342.294.557.294.132 0 .264-.038.38-.117 1.373-.931 2.802-1.981 4.244-3.123.292-.23.34-.653.108-.945-.23-.292-.655-.34-.946-.108M178.45 59.119c-.15-.338-.543-.49-.883-.347-.342.146-.5.542-.353.883.063.148 1.56 3.462 7.525 3.462.292 0 .597-.008.91-.024 5.355-.285 7.645-2.45 7.74-2.541.267-.257.27-.68.015-.946-.257-.267-.68-.276-.951-.021-.021.019-2.073 1.91-6.874 2.164-5.744.312-7.069-2.502-7.13-2.63" transform="translate(67.798408, 98.355438) translate(0.434883, 0.442726)"/>
                            <path d="M257.835 241.829c-.514.406-1.042.78-1.583 1.124-.242.154-.495.28-.742.422-.304.176-.603.363-.914.52-7.885 3.97-17.77 2.012-23.466-5.164l-6.99-8.808c1.278-.061 3.166-.43 5.631-1.48.342-.145.502-.54.356-.882-.147-.34-.542-.498-.885-.354-3.685 1.566-5.655 1.42-6.205 1.33l-13.317-16.78c-.8-11.566-1.637-24.338-1.92-30.967-.314-7.33-.368-21.284-.348-32.992l45.336 57.119c-.355 1.197-2.079 5.882-8.701 12.053-.273.254-.288.68-.033.95.254.27.682.286.952.032 5.795-5.4 7.99-9.718 8.776-11.779l7.156 9.013c1.585 1.997 2.692 4.218 3.355 6.526 2.06 7.17-.242 15.205-6.458 20.117zm-50.401 4.19c.063-.142.147-.338.087-.338.525-.083 1.654 1.05 2.7 3.737.864 2.215.958 6.192.174 7.337-.146.213-.247.213-.29.213h-35.357c.044-1.143.361-3.52 2.145-4.364.549-.259 1.269-.58 2.09-.945 3.477-1.542 8.73-3.874 10.622-5.888 1.523-1.623 3.508-1.665 4.089-1.623.774.04 1.19.257 1.26.349.055.085.145.416.21.657.416 1.551 1.29 4.784 6.523 4.242 4.483-.458 5.306-2.355 5.747-3.376zm-34.037 10.95h-24.831c.041-1.14.352-3.517 2.147-4.365.549-.259 1.27-.58 2.094-.946 3.474-1.543 8.725-3.874 10.616-5.887 1.526-1.623 3.51-1.665 4.09-1.623.774.04 1.19.256 1.26.349.056.085.146.417.21.658.416 1.551 1.288 4.78 6.523 4.241 4.483-.458 5.306-2.357 5.748-3.377.062-.142.146-.338.085-.338.449-.069 1.267.693 2.12 2.43-1.717.852-3.538 1.66-5.023 2.321-.834.37-1.564.694-2.119.956-2.486 1.176-2.875 4.192-2.92 5.58zm.004-16.758c.996 0 2.01-.023 2.994-.084 1.236-.078 2.331-.193 3.282-.325v6.355c-.483.77-1.476 1.613-4.308 1.903-4.097.407-4.666-1.704-5.084-3.254-.05-.185-.096-.345-.145-.497l-.532-4.201c1.143.06 2.448.103 3.793.103zm25.498-.407c.542 0 1.113-.01 1.715-.032 2.112-.081 3.836-.359 5.244-.724v7.108c-.482.77-1.475 1.614-4.308 1.904-4.1.407-4.669-1.704-5.085-3.255-.05-.185-.097-.345-.145-.497l-.587-4.643c.92.086 1.969.14 3.166.14zm-71.157-126.448c-.527-.212-.78-.59-.904-.923 1.894-.092 6.792-.753 11.97-4.776.019.143.026.31 0 .52-.086.697-.82 1.348-1.41 1.87-.153.138-.295.264-.415.38-1.404 1.355-6.607 3.99-9.24 2.93zm-1.587-2.253c-.21-.064-1.03-.353-1.628-1.133-.284-.37-.333-.685-.33-.9 1.361-.095 7.688-.728 13.52-4.589.14-.043.622-.16.828.27.34.708.07 1.263-.014 1.41-5.92 4.878-11.702 4.957-12.376 4.942zm-2.287-3.36c-.01 0-.016.004-.026.005-.429-.535-.953-1.214-1.107-1.49-.803-1.436-.744-2.173-.637-2.484 0-.003.001-.005.003-.008.852 1.03 2.458 2.188 4.653 1.827 1.071-.176 2.18-.545 3.358-.936 1.957-.649 3.986-1.321 5.817-1.072.136.018.272.09.403.176-5.947 3.66-12.397 3.978-12.464 3.982zM94.652 39.315c-.353-1.336-.187-2.432.443-2.93.14-.11.306-.185.485-.236.066-.018.14-.02.212-.03.117-.017.237-.032.366-.028.168.005.35.04.536.083.079.018.153.023.235.047.273.083.556.196.85.352l15.204 9.328c-.467 1.475-1.775 4.004-5.447 6.903-3.381 2.673-5.812 3.442-7.36 3.567l-5.524-17.056zm90.536 80.675c1.514-.548 6.2-2.18 8.307-2.18h1.945c-1.177.327-3.94 1.177-6.679 2.614-1.699.1-3.15-.007-3.573-.434zm12.324 9.208c0-.001 4.494-1.641 10.38-3.779.352 3.126.624 5.781.745 6.985-2.283.14-10.122.553-21.858.513 5.607-2.487 10.608-3.685 10.733-3.72zm64.482 85.154l-7.94-10.006h-.002l-46.596-58.708c.009-3.268.02-6.318.034-8.914.003-.37-.297-.673-.67-.675h-.003c-.372 0-.671.298-.674.669-.066 12.222-.113 34.209.309 44.13.566 13.247 3.337 50.95 3.615 54.716-.656.61-3.283 2.625-9.505 2.863-6.23.25-8.902-.902-9.567-1.256-.91-3.316-10.23-37.382-14.182-55.13-2.609-11.708-5.463-29.486-7.398-42.339-.055-.367-.401-.612-.766-.566-.368.056-.621.399-.567.766 1.938 12.874 4.798 30.686 7.414 42.43 4.146 18.606 14.17 55.087 14.27 55.453.04.144.126.27.246.36.07.053 1.24.887 4.34 1.352l.44 3.475c-.262-.073-.542-.13-.855-.156-1.544-.128-3.726.346-5.317 2.036-.777.827-2.265 1.748-3.97 2.648-1.084-2.17-2.33-3.314-3.5-3.151-.05.007-.08.032-.125.043v-4.799c1.9-.33 2.952-.67 3.022-.693.268-.09.452-.337.46-.621l.36-13.978c.009-.371-.285-.68-.657-.689-.398.008-.683.285-.692.656l-.345 13.485c-.94.256-3.326.81-6.862 1.031-3.827.235-8.295-.11-9.82-.244-.456-4.166-3.409-31.469-5.323-57.398-1.26-17.07-1.226-33.789-.976-44.812.008-.37-.288-.679-.658-.686-.394.001-.682.284-.69.657-.075 3.27-.13 7.05-.137 11.183l-26.308-33.144c2.435-.787 4.712-2.165 5.52-2.947.11-.104.237-.218.375-.339.72-.639 1.704-1.512 1.85-2.714.107-.854-.095-1.438-.306-1.798.207-.506.4-1.378-.077-2.371-.478-.997-1.42-1.143-2.087-1.053-.326-.324-.885-.774-1.563-.866-2.143-.288-4.32.43-6.424 1.13-1.126.372-2.187.725-3.153.885-1.158.192-2.03-.189-2.647-.652L110.54 86.797c1.474-.067 3.942-.538 7.552-2.366.332-.168.466-.572.297-.903-.17-.332-.573-.465-.907-.296-4.545 2.301-7.064 2.301-7.896 2.207l-8.99-27.768c1.763-.214 4.353-1.106 7.78-3.813 3.588-2.834 5.131-5.384 5.783-7.236l25.02 15.35c-.368 1.486-2.375 7.185-12.544 15.217-.293.23-.341.654-.109.945.133.168.33.255.528.255.148 0 .294-.047.419-.145 9.17-7.244 11.94-12.677 12.773-15.12l20.531 25.869c-2.793 16.335-3.486 43.061-3.494 43.368-.008.346.25.643.596.684.087.01 8.839 1.006 25.145 1.19 1.869.022 3.654.03 5.35.03 13.112 0 20.966-.558 21.053-.565.182-.013.35-.099.466-.238.118-.138.173-.317.157-.497-.005-.05-.354-3.604-.854-8.02 8.614-3.126 17.495-7.415 19.803-9.564 2.474-2.304 4.43-4.953 1.252-11.984-3.153-6.978-6.735-11.347-6.887-11.53-.238-.288-.662-.327-.95-.091-.286.236-.327.66-.089.946.036.044 3.623 4.425 6.697 11.228 3.045 6.734.926 8.708-.941 10.447-1.929 1.795-10.174 5.96-19.376 9.297-6.455 2.341-11.58 4.214-11.579 4.218-.09.021-5.264 1.263-11.02 3.83-.279.125-.82.093-.89.086-.087-.16-.113-.352-.119-.508.012-.012.028-.016.039-.029.03-.033 3.079-3.42 7.882-4.64.36-.092.58-.458.487-.817-.092-.359-.454-.582-.819-.486-4.719 1.199-7.783 4.227-8.43 4.911-.091-.046-.219-.149-.342-.408-.23-.48.08-.877.11-.913.016-.018.022-.043.035-.063.01-.015.03-.021.038-.037.022-.037 2.241-3.663 7.516-4.82.364-.078.594-.437.513-.8-.078-.362-.43-.592-.802-.512-4.207.92-6.644 3.246-7.72 4.541-.008-.095-.02-.188-.004-.302.09-.601 1.397-2.212 2.174-2.904 3.806-3.403 10.503-5.063 10.57-5.08.08-.02.155-.053.222-.098.052-.036 5.288-3.618 9.65-7.29 2.893-2.435 4.533-3.333 4.55-3.343.32-.173.445-.573.277-.898l-2.592-5.023c-.172-.33-.577-.458-.907-.29-.332.17-.463.576-.292.906l2.303 4.463c-.489.308-1.314.871-2.392 1.7-.613-4.454-1.16-8.268-1.36-9.653.094-.04.17-.098.234-.169.007-.003.013-.005.02-.01l-.005-.01c.017-.019.03-.04.043-.06.126-.05.449-.18.928-.387 1.062-.511 2.723-1.335 5.31-2.668 5.806-2.99 10.78-7.374 10.988-7.56.25-.22.3-.59.117-.868-.11-.167-10.985-16.761-18.81-24.011-3.786-3.508-7.68-5.989-11.573-7.375-.162-.058-.33-.044-.478.016.117.565.23 1.035.314 1.363 3.624 1.345 7.262 3.686 10.82 6.98 6.95 6.441 16.41 20.468 18.274 23.269-1.346 1.136-5.587 4.58-10.27 6.992-5.634 2.9-6.853 3.383-6.904 3.403-.012.004-.019.013-.03.018-4.428 1.493-8.75 1.197-10.153 1.036-.081-.54-.228-1.581-.452-3.384-.37-2.957-2.968-21.285-2.994-21.47-.053-.368-.39-.627-.762-.572-.37.053-.626.393-.573.76.026.186 2.622 18.503 2.99 21.449.378 3.009.535 3.93.535 3.93.05.281.27.5.552.55.112.019 1.425.235 3.394.235 1.933 0 4.5-.211 7.187-1.018.237 1.648.808 5.645 1.431 10.19-.198.164-.376.302-.59.48-2.727 2.297-5.803 4.56-7.708 5.921h-4.142c-2.766 0-9.001 2.346-9.265 2.445-.214.081-.372.263-.421.485-.164.75.132 1.247.41 1.53.475.489 1.336.727 2.319.827-.587.398-1.15.826-1.665 1.287-.609.543-2.43 2.511-2.606 3.71-.117.783.123 1.408.415 1.823-.217.479-.325 1.147.013 1.859.287.6.688.926 1.06 1.085.025.286.097.628.276.954.103.19.272.324.464.434-.485-.004-.96-.007-1.456-.013-13.799-.156-22.149-.894-24.392-1.118.14-4.748 1.174-35.395 4.744-48.633 1.846-6.843 4.139-12.532 6.811-16.91.194-.316.094-.73-.225-.923-.316-.193-.732-.093-.926.225-2.74 4.485-5.082 10.292-6.96 17.26-.356 1.321-.687 2.816-.995 4.435l-10.328-13.011c3.356-3.02 8.823-7.64 13.7-10.378 5.686-3.19 10.953-5.183 13.991-6.199.078-.436.171-.966.264-1.503-2.95.954-8.69 3.036-14.916 6.53-4.95 2.778-10.465 7.429-13.878 10.494l-9.471-11.933-.073-.092-5.14-3.154V16.827C135.245 7.549 127.679 0 118.379 0h-10.344c-.372 0-.674.3-.674.672 0 .373.302.673.674.673h10.344c8.556 0 15.518 6.945 15.518 15.482v40.327l-19.361-11.878v-.001L98.45 35.406c-1.63-.865-3.157-.89-4.19-.076-1.078.854-1.41 2.43-.9 4.364l5.84 18.04h.001l9.225 28.498.038.115 12.86 16.203c-.176.177-.35.395-.473.716-.358.938-.12 2.165.708 3.648.241.43.95 1.325 1.317 1.78-.085.535-.01 1.321.582 2.093.64.837 1.449 1.271 1.957 1.478.104.667.483 1.796 1.823 2.338.58.234 1.228.335 1.915.335.589 0 1.205-.093 1.827-.222l2.918 3.678v122.84c0 8.539-6.962 15.483-15.518 15.483H16.867c-8.558 0-15.52-6.944-15.52-15.483V16.827c0-8.537 6.962-15.482 15.52-15.482h58.115c.373 0 .675-.3.675-.673 0-.371-.302-.672-.675-.672H16.867C7.566 0 0 7.549 0 16.827v224.407c0 9.28 7.566 16.828 16.867 16.828h101.512c9.3 0 16.866-7.547 16.866-16.828V120.092l23.463 29.56c.02 9.386.29 20.407 1.115 31.59 2.073 28.045 5.356 57.693 5.388 57.989.036.315.285.563.6.595.093.01 1.031.107 2.428.2l.374 2.945c-.262-.072-.54-.129-.853-.155-1.522-.13-3.726.343-5.322 2.036-1.703 1.814-6.803 4.078-10.178 5.577-.836.372-1.568.696-2.122.959-3.21 1.517-2.93 6.105-2.917 6.299l.044.626H210.105c.39 0 .949-.14 1.402-.799 1.227-1.79.833-6.37-.03-8.584-1.212-3.115-2.748-4.777-4.147-4.581-.048.007-.08.032-.123.043v-5.749c2.91-1.007 4.014-2.322 4.082-2.406.107-.133.158-.301.146-.47-.015-.2-.743-10.027-1.55-21.636l20.188 25.438c.02.023.042.043.062.067.448.56.925 1.089 1.423 1.594.16.16.326.304.488.458.382.363.772.713 1.177 1.043.174.14.35.27.527.405.428.323.864.63 1.313.917.158.1.317.2.478.297.501.302 1.016.58 1.543.836.12.058.236.12.356.175.612.284 1.236.537 1.876.759.043.016.084.034.128.048 1.361.463 2.777.796 4.24.965.8.094 1.598.14 2.39.14 3.923 0 7.721-1.13 11.018-3.268.051-.033.105-.06.155-.094.486-.321.962-.664 1.426-1.029 4.95-3.91 7.586-9.671 7.705-15.527.094-4.553-1.335-9.163-4.384-13.003z" transform="translate(67.798408, 98.355438) translate(0.434883, 0.442726)"/>
                        </g>
                    </g>
                </g>
            </g>
        </g>
    </g>
</svg>
