<svg xmlns="http://www.w3.org/2000/svg" width="24" height="25" viewBox="0 0 24 25">
    <g fill="none" fill-rule="evenodd">
        <g fill="#F09D4C">
            <g>
                <g>
                    <g>
                        <path d="M2.737 6.79L5.84 8.363c.104.05.183.14.22.248.037.11.029.228-.023.331-.12.205-.382.277-.59.162l-2.699-1.32c-.583 1.28-.884 2.67-.88 4.076-.007 3.882 2.238 7.416 5.754 9.06 3.517 1.644 7.668 1.1 10.642-1.395.171-.166.443-.166.614 0 .083.081.13.192.13.307 0 .116-.047.226-.13.307-1.96 1.662-4.447 2.573-7.017 2.57C5.87 22.705 1.013 17.853 1 11.862c-.007-1.686.39-3.35 1.158-4.852.045-.107.133-.192.242-.233.11-.042.231-.037.337.013zm9.359-1.158c.146.095.222.268.193.44v1.006h.29c1.367.01 2.497 1.069 2.594 2.433.013.238-.167.444-.406.463-.117.017-.235-.019-.324-.096-.09-.078-.14-.191-.139-.31-.06-.909-.814-1.617-1.725-1.62h-1.586c-.81-.007-1.497.595-1.598 1.399-.1.804.417 1.556 1.204 1.75l2.721.683c1.195.314 1.973 1.463 1.82 2.69-.151 1.225-1.187 2.15-2.422 2.162h-.43l.001 1.019c-.006.234-.194.422-.428.428-.239 0-.434-.19-.44-.428v-1.02h-.29C9.763 16.63 8.63 15.567 8.539 14.2c-.013-.239.167-.445.405-.463.116-.013.233.023.321.1.088.077.14.188.142.305.061.91.814 1.617 1.726 1.621h.485l.074-.04c.131-.052.281-.04.403.04h.624c.88.109 1.68-.516 1.789-1.395.109-.88-.516-1.68-1.395-1.79l-2.721-.636c-1.218-.295-2.021-1.456-1.867-2.7C8.678 8 9.74 7.068 10.993 7.08h.428V6.071c-.028-.172.048-.345.194-.44.146-.095.335-.095.48 0zm4.303-3.567c3.825 1.783 6.269 5.622 6.265 9.842.004 1.683-.393 3.342-1.158 4.84-.072.117-.198.191-.335.197-.065.017-.133.017-.197 0l-3.103-1.551c-.104-.05-.183-.14-.22-.249-.037-.108-.03-.228.023-.33.052-.105.143-.184.254-.221.11-.037.232-.028.336.024l2.698 1.355c.59-1.29.89-2.693.88-4.11.003-3.88-2.243-7.41-5.76-9.052C12.568 1.169 8.42 1.714 5.447 4.207c-.17.167-.443.167-.613 0-.083-.08-.13-.19-.13-.306 0-.116.047-.227.13-.307C8.063.878 12.575.28 16.399 2.064z" transform="translate(-40.000000, -137.000000) translate(0.000000, 116.000000) translate(24.000000, 0.000000) translate(16.000000, 21.906250)"/>
                    </g>
                </g>
            </g>
        </g>
    </g>
</svg>
