<svg xmlns="http://www.w3.org/2000/svg" xmlns:xlink="http://www.w3.org/1999/xlink" width="90" height="82" viewBox="0 0 90 82">
    <defs>
        <path id="dx1awytvsa" d="M0 13.734s1.063-3.59 6.378-7.963C11.835 1.282 15.925.146 15.925.146l7.938.417s5.198.258 8.98-.55c.786-.168 3.348 1.27 4.217 5.453.922 4.433-1.015 6.66-1.015 6.66l-6.8.558s.631 2.642 1.495 7.703c.616 3.61 2.34 10.789 2.34 10.789s-1.575 3.222-14.257 3.194c-5.203-.012-11.285-1.376-12.742-1.673-.259-.053-.429-.3-.387-.562l2.885-13.624S5.435 17.145 0 13.734"/>
    </defs>
    <g fill="none" fill-rule="evenodd">
        <g>
            <g>
                <g>
                    <g fill="#FFF">
                        <path d="M0 58.805s2.23-6.667 2.841-11.923c.503-4.318 20.871-1.562 20.871-1.562s.67 4.177 1.213 7.77c.544 3.595.91 6.172.91 6.172S16.541 63.922 0 58.805M27.631 17.626s.644-.111.913-.35c.27-.237.648-3.59.568-7.53-.036-1.783-.033-5.541-.383-5.744C27.5 3.294 25.499.89 25.49.482c-.028-1.275 3.428.382 3.428.382l2.41 2.394 2.152 2.604s-.11 2.68.514 7.702c.623 5.021.408 7.698-.174 9.733s-3.092 2.985-3.092 2.985l-3.097-8.656z" transform="translate(-173.000000, -303.000000) translate(173.000000, 303.000000) translate(8.490566, 1.769613) translate(22.075472, 17.876220)"/>
                    </g>
                    <g transform="translate(-173.000000, -303.000000) translate(173.000000, 303.000000) translate(8.490566, 1.769613) translate(16.997109, 34.959554)">
                        <use fill="#ADADAD" xlink:href="#dx1awytvsa"/>
                    </g>
                    <g fill="#FFF">
                        <path d="M40.61 21.784c-.795-2.91-3.006-5.786-3.006-5.786-.845-.52-2.366-.728-2.366-.728s-.97 2.872-1.758 5.34c-.784 2.451-3.115 2.817-3.115 2.817s-.654-.234-1.441.103c-.982.422-1.657 2.175-.175 3.237.9.645 1.894.428 2.539.159.08.853.174 1.816.238 2.382.135 1.187-.123 2.147-.123 2.147s-.199 2.959 4.437 3.07c2.176.053 3.374-.722 3.863-1.694.178-.354.05-.613-.344-.93-.36-.289-.879-.811-.98-1.444-.095-.597-.162-1.73-.205-2.675.338-.095.662-.223.949-.398 1.302-.795 2.284-2.691 1.488-5.6M21.097 43.317l5.629 8.932c.154.245.443.374.732.327l9.456-1.542c.498-.081.761-.63.508-1.064l-5.41-9.27c-.3-.514-.908-.771-1.492-.63l-8.981 2.173c-.478.116-.702.66-.442 1.074" transform="translate(-173.000000, -303.000000) translate(173.000000, 303.000000) translate(8.490566, 1.769613) translate(0.000000, 5.063720)"/>
                        <path d="M23.696 42.226l-.592-.953c-.223-.358-.022-.828.394-.918l3.334-.728c.45-.098.915.091 1.165.475l.662 1.016-4.963 1.108zM18.246 44.704s-1.214 1.184-.8 3.87c.414 2.686 2.268 4.355 6.127 5.529 3.859 1.174 7.153 1.772 9.709 1.476 2.556-.297 4.09-1.803 5.08-3.291.988-1.489.992-3.17.575-3.453-.296-.2-.565.136-.565.136s.017-1.145-.411-1.45c-.45-.32-.816.28-.816.28s0-.48-.482-.606c-.214-.056-.556.181-.834.778-.168.36-.625 1.098-1.399 1.71-.773.613-1.466.634-1.466.634s.26-1.151-.046-2.449c-.306-1.297-.96-1.113-1.084-.848-.124.266-.22 1.38-.53 2.043-.308.663-.819 1.234-.936 1.695-.117.462-.212.595-.212.595s-1.91-.855-5.31-2.806c-3.4-1.951-6.6-3.843-6.6-3.843M55.039 13.722c-.477-.23-.92.082-1.513.72-.593.64-1.314 1.42-.887 2.067.41.623 1.106.134 1.106.134s-.764.635-.29 1.301c.346.489.995.258.995.258s-.527.556-.113 1.053c.414.496.977.173.977.173s-.395.412-.085.779c.31.367 1.168.032 1.89-.395.888-.525 1.285-1 .874-1.602-.41-.602-.676-.27-.676-.27s.571-.598.161-1.242c-.33-.519-.95-.383-.95-.383s.417-.325.149-.777c-.47-.794-1.077-.45-1.077-.45s.598-.808-.561-1.366" transform="translate(-173.000000, -303.000000) translate(173.000000, 303.000000) translate(8.490566, 1.769613) translate(0.000000, 5.063720)"/>
                        <path d="M59.125 19.787c-.54-.502-3.539-4.11-4.288-5.271-.64-.992-1.07-1.45-1.182-1.564l.365-.255c.975-.682.1-3.566-1.957-6.442-2.057-2.875-4.515-4.653-5.49-3.97l-2.736 1.913c-.976.683-.1 3.567 1.956 6.442 2.057 2.875 4.515 4.653 5.49 3.97l.371-.258c.333.364 2.404 2.656 3.508 4.449.672 1.09.886 1.934 1.091 2.483.205.549 1.138 1.595 2.279 1.002 1.289-.67 1.134-1.998.593-2.5M65.425 37.173c-.37.486-.908.8-1.517.886-.608.085-1.214-.068-1.706-.433s-.81-.898-.897-1.5c-.086-.602.07-1.201.439-1.688.451-.594 1.143-.908 1.843-.908.481 0 .966.148 1.38.455 1.015.754 1.22 2.184.458 3.188m-.258-3.452c-1.162-.863-2.818-.63-3.69.519-.873 1.15-.638 2.787.524 3.65.188.14.393.244.605.329l-1.951 5.144.313.116 1.955-5.157c.214.055.432.09.656.09.124 0 .25-.008.376-.026.697-.097 1.314-.458 1.737-1.015.873-1.15.638-2.786-.525-3.65M71.369 43.313c-1.09-.81-2.638-.593-3.457.485-.406.535-.556 1.181-.472 1.795-.02-.006-.043-.01-.066-.008l-.59.051c-.09.008-.159.088-.151.179.007.086.08.15.166.15h.015l.59-.05c.036-.004.066-.02.092-.042.135.518.44.997.907 1.344 1.09.81 2.638.592 3.457-.486.819-1.078.599-2.609-.491-3.418M63.79 45.894l-.999.086c-.004 0-.007.002-.01.003-.081-.775-.473-1.516-1.152-2.02-1.294-.961-3.13-.703-4.102.576-.972 1.28-.71 3.095.583 4.056 1.294.96 3.13.703 4.102-.577.39-.513.578-1.114.583-1.71l.01.001h.015l.999-.086c.092-.008.16-.088.152-.179-.008-.09-.092-.158-.181-.15M65.786 45.722l-.998.086c-.092.008-.16.088-.152.179.008.086.08.15.166.15h.015l.998-.086c.092-.008.16-.088.152-.179-.008-.09-.089-.154-.18-.15M8.16 48.259c-.871.598-1.087 1.78-.483 2.642.605.861 1.801 1.075 2.672.477.871-.598 1.087-1.781.483-2.642-.605-.862-1.801-1.075-2.672-.477M4.15 44.287c-.12-.17-.261-.317-.415-.444.028-.01.055-.025.075-.05l.247-.303c.058-.07.047-.175-.025-.232-.072-.057-.177-.046-.235.025l-.247.303c-.023.028-.032.062-.034.095-.753-.481-1.755-.497-2.537.04-1.033.71-1.29 2.113-.572 3.135.717 1.022 2.136 1.275 3.17.566 1.033-.71 1.29-2.113.572-3.135M4.556 42.78c.049 0 .097-.02.13-.061l.629-.772c.058-.07.047-.175-.025-.232-.072-.057-.177-.046-.235.025l-.629.772c-.058.07-.047.175.025.232.031.025.068.036.105.036M5.814 41.237c.049 0 .097-.02.13-.061l.63-.772c.012-.015.02-.033.026-.05.63.384 1.456.389 2.104-.056.87-.597 1.087-1.78.482-2.642-.604-.861-1.8-1.074-2.672-.477-.87.598-1.087 1.781-.482 2.643.092.13.2.245.316.346-.012.009-.025.017-.035.029l-.629.772c-.058.07-.046.175.025.232.031.025.068.036.105.036M61.332 3.225c0 1.782-1.46 3.226-3.262 3.226-1.801 0-3.261-1.444-3.261-3.226 0-1.78 1.46-3.225 3.261-3.225 1.801 0 3.262 1.444 3.262 3.225" transform="translate(-173.000000, -303.000000) translate(173.000000, 303.000000) translate(8.490566, 1.769613) translate(0.000000, 5.063720)"/>
                        <path d="M7.67 48.667L4.35 46.704 4.179 46.987 7.499 48.95zM19.712 11.443c-.089.026-.14.117-.114.205.026.087.119.137.207.113 1.155-.332 1.96-.318 2.21.038.366.523-.369 1.825-1.917 3.396-.064.065-.063.17.003.233.032.032.075.047.116.047.044 0 .087-.016.12-.05 1.01-1.024 2.605-2.881 1.952-3.814-.346-.494-1.237-.552-2.577-.168M18.257 12.305c.022 0 .044-.004.065-.013.135-.056.267-.11.396-.16.086-.034.128-.13.094-.214-.034-.085-.132-.126-.217-.093-.132.051-.266.106-.403.163-.085.036-.125.133-.089.217.027.063.089.1.154.1M16.907 17.211c-.177.438-.454.806-.793 1.094-.09-.322-.181-.631-.269-.917-.026-.087-.12-.136-.208-.11-.088.027-.138.119-.112.206.11.36.21.701.304 1.036-.764.501-1.756.637-2.668.275-1-.397-1.652-1.29-1.783-2.28.6-.472 1.235-.943 1.903-1.4l.053-.035c.368.142.747.292 1.14.46.917.391 1.786.808 2.57 1.228-.035.15-.078.298-.137.443m-5.348-2.122c.078-.191.177-.37.291-.538.353.115.722.243 1.108.386-.557.385-1.092.778-1.602 1.175.004-.341.067-.687.203-1.023m1.542-1.559c.687-.29 1.445-.304 2.142-.046-.647.378-1.302.788-1.95 1.225-.412-.156-.823-.303-1.224-.436.28-.317.629-.572 1.032-.743m3.782 1.5c.193.447.265.923.218 1.393-.765-.407-1.609-.809-2.495-1.186-.31-.132-.622-.258-.934-.38.648-.432 1.3-.835 1.944-1.204.566.305 1.01.783 1.267 1.378m2.25 2.611c-.494-.342-1.077-.696-1.719-1.048.083-.569.01-1.151-.224-1.693-.26-.602-.692-1.097-1.24-1.438.384-.214.764-.418 1.134-.602.083-.04.116-.14.075-.222-.042-.08-.141-.114-.225-.073-.432.214-.879.458-1.33.712-.057-.027-.114-.055-.174-.079-.797-.316-1.67-.306-2.46.028-.496.21-.92.53-1.247.935-2.297-.728-4.226-.998-4.534-.29-.283.65.982 1.628 2.094 2.335.078.05.181.027.23-.05.05-.076.028-.179-.05-.228-1.735-1.103-2.053-1.73-1.968-1.926.16-.369 1.673-.285 4.025.444-.105.163-.196.336-.27.52-.187.459-.253.936-.22 1.4-1.171.935-2.187 1.878-2.955 2.755-.874.999-1.807 2.347-1.282 3.096.213.305.605.42 1.08.42.943 0 2.214-.458 3.06-.816.085-.036.124-.132.088-.216-.036-.085-.135-.123-.219-.088-1.948.823-3.38 1.02-3.734.512-.306-.436.166-1.442 1.26-2.692.72-.823 1.664-1.707 2.752-2.586.202 1.025.906 1.932 1.956 2.35.391.154.795.228 1.193.228.602 0 1.186-.174 1.691-.481.998 3.651 1.047 5.745.646 5.877-.197.063-.872-.438-2.024-2.799-.04-.082-.14-.116-.223-.077-.083.04-.117.139-.077.22.969 1.987 1.739 2.99 2.293 2.99.047 0 .092-.006.136-.02.933-.306.264-3.735-.462-6.393.433-.334.79-.774 1.008-1.313.054-.131.095-.265.13-.4.593.33 1.133.659 1.593.979 1.218.846 1.546 1.383 1.458 1.587-.09.203-.798.406-2.894-.123-.09-.023-.18.03-.203.12-.023.088.03.177.12.2.732.185 1.558.347 2.204.347.536 0 .948-.111 1.08-.413.198-.457-.33-1.126-1.573-1.989M11.063 12.074c.09-.017.15-.103.133-.193-.464-2.457-.228-3.224-.038-3.286.281-.089 1.174.838 2.48 3.781.028.062.089.099.153.099.023 0 .046-.005.067-.014.085-.037.123-.134.086-.218-.71-1.6-2.03-4.244-2.891-3.962-.548.18-.61 1.412-.185 3.661.017.09.104.147.195.132" transform="translate(-173.000000, -303.000000) translate(173.000000, 303.000000) translate(8.490566, 1.769613) translate(0.000000, 5.063720)"/>
                    </g>
                    <g fill="#545454">
                        <path d="M42.078 10.04c-.956-1.545-.153-3.094.729-4.732 1.888-.011 3.66.003 4.616 1.548.956 1.544.152 3.093-.73 4.73-1.888.012-3.66-.002-4.615-1.546m9.721 3.25c-1.02-1.647-2.882-1.716-4.725-1.706.858-1.601 1.656-3.251.635-4.9-1.02-1.647-2.88-1.715-4.725-1.705.859-1.602 1.656-3.252.636-4.9-.048-.077-.151-.102-.23-.055-.08.047-.105.148-.057.226.956 1.544.153 3.093-.729 4.73-1.889.012-3.66-.002-4.616-1.546-.048-.078-.15-.103-.23-.055-.08.047-.105.148-.057.226 1.02 1.647 2.88 1.715 4.726 1.706-.858 1.601-1.656 3.252-.636 4.9 1.02 1.647 2.881 1.716 4.726 1.706-.859 1.601-1.656 3.251-.636 4.9.031.05.087.078.143.078.03 0 .06-.007.087-.024.08-.047.105-.148.057-.226-.957-1.544-.153-3.094.729-4.73 1.887-.013 3.66.002 4.616 1.547.031.05.086.078.143.078.03 0 .06-.007.087-.023.08-.047.105-.149.056-.227" transform="translate(-173.000000, -303.000000) translate(173.000000, 303.000000) translate(8.490566, 1.769613) translate(13.590179, 0.000000)"/>
                        <path d="M46.562 7.418c-.048-.077-.15-.102-.23-.055l-3.409 2.03c-.079.048-.104.15-.056.227.031.05.087.079.143.079.03 0 .06-.008.088-.024l3.408-2.03c.08-.047.104-.149.056-.227M45.32 6.002c-.049-.077-.151-.102-.231-.055L42.215 7.66c-.079.047-.104.148-.056.226.031.05.087.079.144.079.03 0 .059-.008.086-.024l2.874-1.712c.08-.047.104-.148.056-.226M49.394 12.902l-2.873 1.711c-.08.047-.104.149-.056.226.031.051.086.08.143.08.03 0 .06-.008.087-.025l2.873-1.711c.08-.047.105-.149.056-.226-.047-.078-.15-.102-.23-.055M47.218 9.07c-.048-.078-.15-.103-.23-.056l-2.874 1.712c-.079.047-.104.148-.056.226.031.05.087.079.143.079.03 0 .06-.008.087-.024l2.874-1.712c.079-.047.104-.148.056-.226M39.917 4.11c.03 0 .06-.008.087-.024l2.873-1.711c.08-.047.105-.149.056-.226-.047-.078-.15-.103-.23-.056L39.83 3.805c-.079.047-.104.148-.056.226.032.051.087.08.144.08M11.017 46.327c.013 0 .026-.001.04-.004l2.393-.569c.09-.021.145-.11.123-.198-.021-.088-.112-.143-.202-.121l-2.393.568c-.09.021-.146.11-.124.198.019.076.087.126.163.126M30.259 11.496c.09-.02.146-.108.126-.197-.206-.893-.13-1.517.217-1.757l2.133-1.48c-.103.468-.04 1.106.198 1.882.027.087.12.136.21.11.088-.026.138-.118.111-.205-.345-1.125-.31-1.931.094-2.213.792-.547 3.1.895 5.278 3.915.032.045.084.07.137.07.033 0 .067-.01.096-.03.076-.053.094-.156.04-.23-2.057-2.853-4.453-4.576-5.594-4.07l-.013-.018-.137.095-2.747 1.905c-.47.327-.592 1.053-.35 2.099.02.088.11.144.2.124" transform="translate(-173.000000, -303.000000) translate(173.000000, 303.000000) translate(8.490566, 1.769613) translate(13.590179, 0.000000)"/>
                        <path d="M40.133 16.964c-.118.082-.555.006-1.452-.786-.79-.697-1.691-1.728-2.54-2.904-1.922-2.667-2.587-4.663-2.217-4.92.031-.022.072-.032.12-.032.537 0 2.11 1.278 3.87 3.722.849 1.176 1.54 2.353 1.947 3.315.463 1.095.388 1.524.272 1.605M33.73 8.086c-.762.528.499 3.105 2.137 5.378.862 1.195 1.781 2.246 2.588 2.958.677.598 1.203.898 1.572.898.115 0 .214-.03.298-.087.354-.246.302-.919-.156-2-.415-.984-1.12-2.183-1.981-3.379-1.639-2.273-3.697-4.297-4.458-3.768M22.188 27.398c.241.092.46-.066.488-.353.028-.287-.144-.594-.385-.686-.24-.092-.46.067-.488.354-.028.287.144.594.385.685M25.152 25.704c.233.085.428-.078.434-.363.007-.285-.177-.584-.41-.669-.235-.084-.429.078-.435.363-.007.285.177.585.41.67M24.848 27.357l.553.397c.023.012.04.035.04.057 0 .008.002.03-.038.056l-.523.358c-.076.052-.095.154-.042.229.033.046.084.07.138.07.033 0 .066-.01.095-.03l.521-.356c.124-.082.19-.206.184-.342-.007-.137-.089-.264-.196-.32l-.523-.375c-.567-.481-.86-1.053-.862-1.058-.042-.082-.142-.115-.225-.075-.083.04-.117.139-.076.22.013.026.323.635.954 1.17M22.498 29.853c-.058.07-.047.174.025.23.008.007.57.441 1.39.441.453 0 .983-.131 1.543-.538.075-.055.09-.157.035-.23-.055-.073-.16-.089-.234-.035-1.363.992-2.477.143-2.524.107-.072-.057-.177-.046-.235.025M16.984 30.952c-.36.177-.798.036-.979-.315-.182-.352-.037-.783.321-.96.174-.087.37-.102.556-.042.088.028.183-.019.212-.105.029-.086-.02-.18-.107-.208-.27-.087-.559-.065-.812.06-.524.26-.734.89-.47 1.403.129.25.348.434.619.52.109.036.22.053.332.053.165 0 .328-.038.48-.113.082-.04.115-.14.074-.22-.043-.082-.143-.115-.226-.073M26.46 37.964c-.079-.049-.182-.027-.233.049-.261.396-.578.695-.969.916-.08.046-.108.146-.061.225.03.053.087.082.145.082.028 0 .057-.007.083-.022.438-.247.793-.582 1.084-1.022.05-.076.028-.178-.05-.228M23.58 39.405c-.331.033-.701.046-1.098.036-1.675-.04-2.89-.452-3.613-1.224-.724-.773-.679-1.65-.678-1.659.005-.09-.065-.168-.157-.174-.093-.009-.172.062-.178.153-.003.041-.058 1.017.76 1.896.786.844 2.084 1.294 3.858 1.337l.268.003c.31 0 .602-.013.871-.04.092-.01.16-.09.15-.18-.01-.09-.087-.155-.184-.148" transform="translate(-173.000000, -303.000000) translate(173.000000, 303.000000) translate(8.490566, 1.769613) translate(13.590179, 0.000000)"/>
                        <path d="M39.292 46.97l-6.6.529c-1.655-6.207-3.565-9.847-3.584-9.884-.043-.08-.144-.111-.226-.07-.082.042-.114.142-.072.222.02.036 1.94 3.697 3.592 9.943v.002c.006.026.64 2.643 1.495 7.543.58 3.321 2.154 9.795 2.332 10.522-.123.176-.667.832-2.336 1.48-1.798.7-5.293 1.517-11.772 1.515-4.787-.011-10.25-1.13-12.307-1.55l-.428-.087c-.171-.034-.284-.194-.258-.356l1.62-7.488c3.041 1.01 6.004 1.498 8.064 1.498.41 0 .785-.02 1.117-.058 2.17-.25 3.877-1.345 5.22-3.35 1.025-1.53 1.055-3.311.532-3.663-.18-.12-.358-.11-.505-.048-.028-.39-.127-1.015-.472-1.259-.151-.107-.32-.146-.485-.113-.14.028-.257.102-.35.18-.086-.172-.245-.344-.522-.416-.205-.054-.433.05-.645.275L18.78 45.67c-.337-.572-1.029-.862-1.683-.705l-2.09.502-.262-.4c-.287-.437-.828-.656-1.346-.544l-3.347.724c-.252.055-.455.22-.556.454-.101.234-.082.492.054.708l.2.32-1.668.4c-.281.068-.506.257-.615.52-.11.264-.085.554.069.796l2.457 3.867c-1.45-.733-3.672-1.927-6.532-3.68.24-.642 1.615-3.842 6.295-7.61 3.704-2.98 6.799-4.452 8.378-5.083.007-.059.014-.122.02-.188l.003-.027.013-.153h-.002c.024-.334.029-.73-.02-1.162-.06-.527-.147-1.4-.224-2.206.463-.184.77-.4.777-.405.074-.054.09-.156.035-.23-.055-.073-.16-.088-.234-.034-.017.012-1.674 1.186-3.044.212-.576-.41-.855-.975-.787-1.591.066-.589.449-1.143.93-1.348.715-.304 1.318-.101 1.325-.1l.04.015.042-.007c.025-.003 2.452-.409 3.26-2.918l.09-.278c.131-.287.453-.718 1.218-.759.092-.004.163-.082.158-.173-.005-.09-.088-.164-.177-.155-.407.022-.71.139-.94.293.596-1.82 1.204-3.617 1.37-4.11.384.063 1.48.27 2.147.665.085.112.453.607.91 1.326-.878-.18-1.4.426-1.554.779-.037.083.003.18.088.216.021.009.044.013.066.013.065 0 .127-.037.154-.1.014-.032.352-.78 1.216-.58.076.018.15-.02.184-.084.675 1.088 1.49 2.6 1.907 4.11.79 2.864-.215 4.664-1.42 5.393-.993.602-2.346.65-3.28.493-.902-.15-1.567-.402-2.295-.866-.077-.05-.182-.028-.232.048-.05.077-.029.178.05.228.758.484 1.482.758 2.42.914.3.05.64.08.997.08.48 0 .992-.056 1.484-.189.043.903.108 1.933.198 2.492.016.102.046.2.082.295l2.054.106c.052.002 5.274.244 9.041-.543.187-.04.595.038 1.136.385.649.415 2.23 1.716 2.892 4.834.82 3.854-.67 5.99-.94 6.338zm-28.925.117l-.531-.849c-.078-.124-.09-.273-.031-.407.058-.135.174-.23.32-.261l3.347-.724c.066-.015.133-.022.2-.022.314 0 .617.156.791.422l.535.815-4.63 1.026zm32.408-18.85c-.092.011-.157.093-.146.183.66 5.265.74 10.685.184 12.607-.32 1.11-1.264 1.886-2.012 2.35.043-.81-.014-1.746-.24-2.813-.689-3.239-2.354-4.606-3.038-5.043-.532-.34-1.051-.5-1.388-.431-.942.196-1.976.328-2.997.415.172-2.806-.397-4.66-2.312-5.683-2.037-1.087-1.939-2.31-2.652-5.132-.713-2.822-2.863-5.26-4.967-6.278-2.104-1.018-3.034.297-3.034.297s-4.179-1.291-6.84 1.84c-2.659 3.13-1.328 5.865-1.128 7.755.2 1.89-.446 3.265-2.694 4.215-2.248.95-3.752 1.404-3.987 4.798-.235 3.393-1.395 3.77-2.813 4.763-1.417.992-3.961 4.482-1.99 8.931.961 2.17 2.352 3.67 4.063 4.71-.393-.63-.648-1.333-.771-2.128-.361-2.325.513-3.52.747-3.791.035-.041.057-.063.057-.063l.648.38.106.061.208.122h.001c.595.347 1.427.83 2.393 1.389l.06.035.385.222.064.037c.55.318 1.134.653 1.736.998l.014.007.479.274c-.054-.13-.111-.268-.165-.393-.002 0-.003 0-.004-.002l-.379-.595-2.543-4.002c-.095-.151-.111-.332-.043-.497.069-.165.209-.283.385-.325l1.773-.426.272.435 5.333-1.18-.34-.519 1.977-.474c.51-.123 1.05.103 1.313.55l3.993 6.787c-.059.092-.116.191-.169.303-.198.422-.672 1.106-1.356 1.643-.471.37-.912.511-1.162.564.062-.407.146-1.298-.088-2.28-.227-.954-.642-1.135-.87-1.157-.226-.024-.446.093-.534.282-.057.12-.1.343-.159.65-.085.445-.19.997-.372 1.384-.134.284-.306.55-.473.808-.209.323-.406.629-.477.908-.052.2-.098.333-.132.417-.46-.208-2.012-.937-4.795-2.522-.028-.016-.058-.02-.088-.02l.002-.007c-.051-.005-.112.01-.146.097-.04.077-.013.171.064.215 2.85 1.623 4.416 2.353 4.849 2.547l-.352 1.462c-.022.088.034.177.125.198.013.003.026.004.038.004.076 0 .145-.05.163-.126l.378-1.57c.039-.067.122-.238.219-.614.058-.229.242-.512.436-.813.164-.254.35-.542.493-.847.2-.423.31-.998.398-1.46.048-.252.094-.49.133-.574.021-.044.095-.105.196-.092.087.008.386.1.577.905.295 1.238.048 2.355.046 2.366l-.047.207.216-.007c.03-.001.761-.031 1.572-.668.941-.74 1.374-1.598 1.451-1.762.267-.568.554-.708.642-.684.317.082.354.358.358.428-.042.17-.355 1.362-.995 2.2-.682.895-1.359 1.247-1.366 1.251-.082.042-.114.141-.071.222.03.056.088.088.149.088.026 0 .052-.005.077-.018.03-.015.747-.387 1.48-1.345.679-.89.998-2.103 1.05-2.314.053-.078.19-.241.344-.272.073-.013.146.005.221.058.21.148.306.635.334 1.033-.008.015-.015.032-.018.05-.002.016-.232 1.564-1.002 2.489-.783.941-1.09 1.204-1.093 1.206-.07.06-.078.163-.017.232.033.038.08.057.127.057.038 0 .077-.012.108-.04.013-.01.325-.274 1.135-1.247.6-.722.888-1.75 1.006-2.29l.063-.077c.007-.009.175-.213.34-.102.315.212.346 1.766-.623 3.212-1.285 1.918-2.913 2.966-4.978 3.204-2.621.303-7.942-.606-12.638-2.88-.083-.04-.184-.006-.225.075-.041.081-.007.18.076.22 1.089.527 2.21.98 3.326 1.363L8.8 66.72c-.056.345.172.669.52.738l.427.087c.341.07.778.159 1.288.26-.883 4.337-2.309 8.58-2.327 8.633-.029.086.02.18.107.208.018.005.035.008.053.008.07 0 .135-.044.159-.113.018-.053 1.449-4.312 2.336-8.673 2.617.504 6.9 1.225 10.758 1.234h.166c5.568 0 8.99-.612 11.083-1.303.155.985.317 2.024.469 3.016.542 3.543.914 6.128.918 6.153.012.082.084.142.166.142.008 0 .015 0 .023-.002.092-.013.156-.096.143-.186-.004-.025-.376-2.61-.918-6.156-.155-1.013-.32-2.073-.478-3.077 2.337-.834 2.832-1.74 2.867-1.81l.027-.054-.015-.058c-.017-.07-1.734-7.073-2.344-10.567-.727-4.173-1.297-6.697-1.455-7.377l6.688-.536.045-.05c.058-.066 1.038-1.211 1.261-3.446.819-.467 1.984-1.34 2.37-2.673.566-1.96.491-7.435-.174-12.737-.012-.09-.096-.156-.187-.143z" transform="translate(-173.000000, -303.000000) translate(173.000000, 303.000000) translate(8.490566, 1.769613) translate(13.590179, 0.000000)"/>
                        <path d="M46.073 26.122c-.047.339-.24.813-.894 1.15-.35.18-.703.205-1.05.075-.537-.203-.9-.71-1.003-.984-.04-.106-.08-.222-.123-.35-.045-.13-.096-.276-.153-.43.385-.112.784-.317 1.074-.487.553-.325.878-.611 1.026-.904.362.414.648.729.788.857.256.236.39.667.335 1.073m-4.003-.88c-.197-.231.023-.496.07-.548l2.122-1.528c.05.01.16.06.315.285.116.169.156.321.123.468-.06.267-.362.55-.948.895-.83.486-1.489.654-1.682.428m-.895-.947c-.31-.37.077-.799.105-.828l2.041-1.84c.12-.015.512-.035.736.315.316.492-.072.957-.134 1.027-.01.009-.015.016-.017.018-.01.014-.017.029-.023.044l-1.945 1.401c-.06.032-.457.227-.763-.137M40.297 23c-.38-.53.236-1.053.262-1.075l1.849-1.537c.084-.04.49-.195.842.393.187.313-.079.538-.109.562l-.004.005-.006.003-2.058 1.855c-.117.033-.54.123-.776-.206m-.497-1.192c-.127-.025-.232-.1-.319-.232-.359-.54.324-1.27.874-1.857.619-.66.977-.846 1.322-.68.344.163.547.361.606.587.063.243-.061.46-.096.514l-1.837 1.528c-.024.016-.291.189-.55.14m-1.197-2.263l1.735-1.204c.097.106.25.284.447.543-.24.162-.467.388-.677.613-.26.277-.543.581-.754.897-.323-.372-.588-.67-.751-.849m7.364 5.264c-.149-.137-.493-.519-.923-1.018-.006-.173-.068-.348-.19-.524-.149-.217-.305-.354-.463-.407.14-.294.205-.697-.05-1.094-.21-.328-.516-.436-.756-.466.085-.183.11-.423-.046-.685-.303-.508-.67-.61-.937-.6.036-.132.05-.292.007-.465-.082-.326-.346-.598-.786-.808-.257-.122-.504-.11-.74-.017-.202-.267-.36-.455-.469-.575l.347-.24-.016-.023c.51-.515.455-1.667-.173-3.221-.034-.085-.131-.126-.217-.093s-.128.13-.094.214c.596 1.477.661 2.607.17 2.949-.791.548-3.1-.894-5.279-3.914-.256-.356-.5-.72-.723-1.08-.048-.079-.15-.103-.23-.056-.08.047-.105.148-.057.226.228.368.476.738.737 1.1 1.72 2.386 3.679 3.983 4.942 4.146l-2.137 1.483c-.405.28-1.19.044-2.153-.647-1.027-.736-2.136-1.897-3.125-3.267-.053-.074-.158-.092-.233-.04-.076.053-.094.156-.04.23.656.91 1.367 1.728 2.074 2.4v.002c.012.546 2.15 2.967 3.333 3.638.238.284.283 3.282.304 4.723l.015.88c.048 2.341-.059 5.413-.238 6.848-.011.09.054.173.146.183l.02.002c.084 0 .157-.061.167-.145.18-1.447.288-4.54.24-6.894-.005-.257-.01-.556-.014-.879-.056-3.745-.154-4.818-.456-4.99-.916-.523-2.166-1.893-2.791-2.73.134.108.267.21.4.305.76.545 1.424.824 1.94.824.233 0 .437-.058.605-.175l.25-.173c.17.188.478.53.85.963-.167.354-.206.713.022 1.056.138.209.32.335.54.376.077.015.154.017.227.011-.154.298-.21.676.055 1.047.21.294.524.381.794.382-.123.267-.165.617.1.933.235.28.523.348.769.333-.056.19-.047.411.128.616.131.154.32.215.538.215.054 0 .111-.006.169-.013.061.166.117.324.165.463.045.13.086.25.127.359.128.34.552.934 1.197 1.177.184.069.37.103.558.103.258 0 .517-.065.767-.194.61-.314.99-.81 1.07-1.396.072-.515-.1-1.048-.437-1.358" transform="translate(-173.000000, -303.000000) translate(173.000000, 303.000000) translate(8.490566, 1.769613) translate(13.590179, 0.000000)"/>
                    </g>
                    <g fill="#FFF">
                        <path d="M15.567 1.649c.005-.008.009-.018.013-.03.016.004.03.012.027.018-.009-.007-.024.006-.04.012m.202-.938c-.015.035.05.038.08.058 0 .048-.05.003-.085.006.006.032.05.072.04.09-.01-.002-.014 0-.024-.008.034.045-.03.083.015.136h-.015c.03.005.06.015.08.024-.004.016.026.043-.014.034.005-.009-.01-.015-.02-.024l.01.022c-.06-.005-.01-.029-.05-.044.005.039.035.093.01.112-.054-.015.005-.064-.055-.05l.035-.03c-.094-.002.015-.02-.085-.027-.034.044.006.066-.028.11.024.022.044.012.07.035.026.09-.154.007-.104.085.03.026.096.056.046.08l-.055-.034c-.024.046.076.06.016.095-.02-.018-.005-.045-.015-.04-.06.015.025.035.016.06l-.055-.013c-.011.054.006.125-.005.186-.015-.009-.028-.025-.049-.017 0 .082-.063.152-.12.211l.036.043c-.003.006-.025.004-.031-.006-.028.021.028.012.042.032-.003.016-.034.01-.045-.004.022.062.035.167-.032.2l-.01-.014c-.033.032.077.077.022.099l-.006-.01c-.05.079-.042.188-.134.23.061.035-.06.075.03.112-.062.033-.074.013-.13.072-.01.017.05.048.051.074l-.049-.016.04.048-.063-.003.005.026c.006-.008.028-.011.042-.005.01.04-.063.07-.088.062l.014.094c-.019-.009-.02-.024-.03-.039.035.059-.053-.01-.022.044.013-.001.028.013.038.017-.036.01-.052.054-.05.09l-.032-.017c-.028.056-.025.13-.048.196.023-.019.08.006.078.027l-.053-.01c.027.024.026-.013.056.025-.014.023-.064-.002-.076-.022l.008.036c-.016-.003-.022-.013-.04-.021.027.022-.07.035-.02.07l-.016-.003c-.023.066-.016.102-.03.157.043.015.027.034.057.061-.027.035-.076.068-.088.117.01.04.034.022.056.046-.042-.01-.054.038-.075.004-.012.06-.016.076-.006.16.019-.004.029-.01.041-.001.003.015-.027.024-.045.016l-.003-.005c.034.101-.18.151-.115.243l-.003-.005.022.082c-.017.028-.024-.029-.057-.014.045.094-.046.112-.02.186-.136.007-.049.16-.146.194l.03.006c.02.025-.024.013-.034.022.022.006.03-.007.043.007-.012.145-.138.255-.225.37-.028.043.127.089.036.12l-.042-.04c.016.123-.09.194-.092.308-.008-.011-.023-.019-.018-.027-.046 0-.04.069-.012.085-.01.012-.028-.01-.047-.01-.031.008.018.072-.022.063-.006-.001-.008-.011-.009-.016.01.021-.036.055.01.066-.037.023-.018.075-.056.088.036.045-.054.045.004.087-.063-.04-.088.027-.071.066-.016-.019-.032.005-.054-.02-.014.025-.016.054.02.07-.104-.005.004.127-.108.089-.01.093-.031.172-.063.242-.06-.045.043-.072-.024-.113-.016.074.012.144-.045.192-.02.008-.02-.028-.027-.04-.017.075-.087.107-.091.182-.006-.004-.008-.014-.009-.023-.005.012-.026.017.002.036v-.015c.052.014.052.102.07.12-.063-.076-.06.034-.135-.068 0 .01.006.028.025.04-.013.006-.026.001-.038-.024-.014.046.024.056-.002.087-.013-.01-.013-.02-.025-.036.012.036.024.072-.01.09-.006-.008-.018-.013-.012-.02-.033.048.002.132-.063.162-.043-.06-.033.002-.082-.035l-.009.038.033.01c-.022.022-.006.071-.04.077l-.003-.033-.03.05.04-.008c.003.044.06.048.02.068.001-.01-.022.022-.06.01.005.024.01.05-.018.056-.018-.009-.047-.049-.06-.055.029.046-.037.063-.01.114-.005-.013-.028-.035-.035-.038l.023.037c-.02.002-.026 0-.044-.02-.034.026.067.043.008.058 0-.005-.006-.008-.005-.019-.047.026-.05.09-.098.109-.054-.034.018-.04-.031-.065-.04.055-.046.151-.103.188l.014-.004c.055.069-.065.004-.06.057.001-.01-.026-.043-.021-.034-.042.021-.052.078-.084.144l-.009-.022c-.033.004-.059.04-.087.051.009.022-.006.03.024.048-.15-.034-.08.164-.212.135.008-.006.005-.03-.001-.025l-.037.06c.029.025.022.011.052.025.008.023.005.048-.008.06.007-.04-.04-.047-.063-.055.009.007.013.02.022.028-.07-.029.045.063-.02.059l-.012-.017c-.007.02-.003.05-.021.058-.035-.029.001-.028-.021-.057-.02.02.011.099-.036.08.001-.017.014-.027.015-.044-.054-.023-.048-.011-.068-.005h.002l-.05.01.017.003c.046.111-.04.06-.029.147-.01-.083-.02-.037-.049-.078-.017-.004-.04-.005-.045-.02.008.046-.049-.003-.036.062-.011-.012-.02.013-.04-.022-.015.026.022.018.032.035 0 .07-.12.008-.125.105-.025.056-.001.106-.026.157-.03-.012-.023-.056-.023-.056-.036-.003-.05.012-.06.041-.005-.014-.016-.02-.033-.03-.014.014.023.055-.013.05-.006-.017-.018-.043-.02-.064-.011.026-.014.064-.027.09-.02-.02-.011-.044-.014-.064-.016.026-.046.06-.029.103l.024.003c-.007.008-.025-.029-.024-.04 0-.042.038-.006.048.007l-.01.018c.07.068.052-.052.085-.068l.027.065-.003-.068c.017.01.044.038.035.057.04.013.004-.033.045-.015.005.003.006.006.006.01l.009-.031c.004.014.032.037.013.038.061.005.03-.085.075-.053v.006c.037-.056-.025-.044-.023-.12l.1.08-.025-.043c.006-.003.02-.008.03.01-.002-.042-.017-.015-.026-.05.053.018.057-.068.112-.009-.015-.037-.043-.005-.032-.046.06.062.022-.035.069-.022.02.04-.016.039.032.052-.034-.07.054-.022.064-.048-.037-.048.026-.053.045-.094.01.017.082-.022.124-.03l.006.008c-.033-.051.004-.068.017-.096.023.029.028.043.027.065l.02-.018c-.007-.018-.008-.031.001-.048l.025.039c.025-.026.02-.087.074-.095-.026-.033-.106-.064-.088-.117.017.016.044.044.04.06.002-.006 0-.024.012-.022l.011.04c.028 0-.013-.03.002-.038.022.024.025.009.04.03 0 .005-.02 0-.016.013.018-.008.049-.008.071.005-.014-.013-.03-.033-.022-.045.025-.026.035.02.062.019-.009-.023.024-.02-.009-.057.008-.007.025.008.037.015 0-.028.06-.063.009-.087h-.006v-.003c.012-.076.112-.065.142-.12l.011.011c.013-.038.049-.064.042-.107.008-.008.04.003.05.02.01-.028 0-.043.047-.052 0 .04.024.011-.005.035.035-.016.06-.003.054-.062.021.039.058.018.06-.003l-.039-.003c.01-.018.024-.027.038-.036l.034.044c.102-.006.008-.173.128-.138-.015-.04-.047.01-.068-.033.028-.02.11.008.117 0 .055-.014-.03-.086.018-.108-.019-.008-.062-.038-.052-.077.028-.02.09.023.087.05-.004.007-.011.006-.016.001-.002.013-.005.029.02.033l-.012-.016c.026 0 .056-.035.073-.006.003-.031-.017-.03-.037-.022.05-.014.047-.049.09-.071-.013-.002-.035-.012-.03-.017.06-.035-.011-.046.01-.086.04 0 .05.053.059.002.033-.008.044.029.05.048-.004-.056.067-.044.088-.058l-.002.027c.001-.016.008-.024.015-.032l-.039-.015c.014-.006.021-.014.034-.004-.012-.026-.058-.033-.07-.074.027-.001.016-.053.061-.026-.048.03.045.028.023.068 0-.01.008-.018.021-.024.006.002.008.008.008.013.069-.01-.032-.055.002-.094.02.023.052.024.053.014-.014.016-.045-.023-.051-.051.038-.013.008-.04.02-.052l-.02.01c-.02-.024-.006-.035 0-.06.02.013 0 .027.013.026-.026-.051.078-.015.071-.065.026-.002.046.031.065.027-.006-.055.06-.012.06-.065-.04-.013-.034-.006-.047-.052l-.02.073-.02-.07c-.012.017-.006.05-.018.057-.014-.037-.007-.029-.04-.04.065.011.006-.066.058-.07l.08.058c.065-.016.011-.102.07-.14l-.026.007c-.027-.029.018-.036.016-.063.026.02.043.016.065.02-.02-.013.028-.04-.023-.08l.052-.002c.043-.035-.046-.101-.01-.137.022.032.054.024.057.067.01-.015.023-.024.004-.036.023.002-.012-.063.023-.06-.009-.014-.037-.033-.024-.048.007.002.014.009.014.009-.014-.009-.003-.037-.043-.041.117.01.07-.126.166-.123.008-.038.02-.082.035-.112.007.006.014.007.008.011.049-.026-.07-.07-.014-.099.06.002.012.038.038.033.098.044.017-.063.09-.065l.002.01c.045-.006-.005-.076.023-.11 0 0 .008.005.015.006-.037-.052-.03-.111-.026-.156.033.03.012.027.054.038.002-.02-.064-.024-.06-.064.027 0 .056-.017.1-.002l-.013.034c.06.008.017-.043.034-.056l.023.013c.015-.054-.044-.08-.015-.133l-.02-.002c-.047-.055.044-.01.013-.058l.064.017c-.006-.027-.026-.092-.025-.132.04.039.042.088.058.125.009-.02.026-.068-.001-.09.003.01.013.026 0 .03-.036-.043-.05-.085-.034-.123.116.052.067-.091.17-.087-.018-.086.07-.133.093-.219-.105 0 .006-.025-.093-.05.001-.021.005-.028.012-.028l.076-.039c.033-.005.016.025.038.03.02-.04.047-.005.081-.024-.036-.005-.045-.03-.024-.05l-.055.02c-.034-.074.097-.025.064-.099l.025.028c-.008-.035.036-.11-.033-.163.013-.002.042 0 .045.015.034-.068-.033-.185.034-.225l.022.013c-.003-.016-.037-.037-.008-.046.01.004.021.013.025.007-.006-.01-.03-.049-.01-.062l.021.024c.054-.06-.03-.128-.026-.191.069.023.11-.025.13-.048l.01.004c.034-.078-.013-.156-.015-.24.091-.02.084-.146.152-.206-.017.007-.054-.02-.056-.035.02-.013-.032-.065.03-.04l-.003.005c.067.008.063-.033.074-.06l-.081-.033c.146-.033.021-.207.143-.21-.015-.025-.007-.047-.021-.071l.044.016c.028-.045.043-.067.053-.131l.027.023c.015-.033-.112-.087-.104-.12l.07.014c.02-.06.099-.1.06-.179.009.004.027.013.026.023.012-.027.084-.092-.01-.113.059.02.027-.06.013-.1l.041.02c-.045-.047-.06-.053-.062-.097.009-.006.037.005.022.013.034-.022-.033-.038.003-.066l.023.024c.015-.03-.001-.033-.028-.061-.01-.026.033-.054.074-.045-.023-.012-.049-.04-.031-.055.016.003.023.013.026.018.048-.04-.023-.094.033-.114.015.004.022.005.028.004-.016.04-.03.071-.032.067.04.015.059-.015.105.03-.02-.037-.07-.105-.04-.13h.016l.003.005c.007-.006.006-.014.001-.022.01-.008.018-.013.022-.022.034.008.032-.031.04-.047-.045-.015-.03-.033-.074-.027.004-.001.004.005.002.017 0 .003 0 .006.002.009l-.003-.003-.012.042c-.018-.021-.032-.042 0-.05l-.063-.05c.07 0 .119-.03.159-.023-.006-.058.027-.123-.043-.184-.005-.019.03-.008.044-.009.005.012 0 .02.01.03-.01-.036.024-.087-.03-.115.039-.026.044.04.054-.013l.015.013c.128-.062-.088-.212.071-.274-.01.005-.014.007-.025.005.099-.102.049-.269.178-.357.03-.027-.005-.045-.024-.077l.05.011-.04-.056c-.02-.066.148-.042.1-.135l-.035-.004c.015-.02.01-.08.045-.061-.004-.005-.03-.02-.01-.023l.025.009-.018-.073c.035-.036.093.046.124-.015 0-.027-.043-.095-.063-.093-.005.01-.025.018-.05.009l-.004-.027c-.07-.033-.135-.081-.208-.048l.028.056-.04-.003.012-.032c-.04.005-.016.028-.002.048-.02-.004-.034-.004-.044 0l.053.065c-.03-.007-.049-.04-.074-.021.025.03.07.009.079.045-.04.005-.065-.01-.045.021-.02-.004-.03-.013-.034-.025.014.027-.011.053.023.078-.048.002-.014.067-.082.038.014.012.04.054.037.072-.07-.063-.03.062-.115.02.064.051 0 .095.024.152-.005-.004-.015-.014-.01-.016-.015.021-.04.019-.06.028.06.027.06.068.09.102-.07.006-.065-.045-.125-.058.05.018.03.068.075.075-.045.007-.025.011-.08.003.075.033.006.025.045.061-.05.017-.074-.019-.064.024-.03.008-.045-.033-.045-.033M13.378 19.226c.015.006.012.015.006.023-.005-.004-.011-.008-.021-.013l-.005.003c.007-.006.014-.01.02-.013m-.086.367c-.007-.01-.017-.02-.028-.03.009-.014.023-.023.029-.016-.011.004-.002.026 0 .046m-.9-.889c.024.045.064-.01.1-.018.045.042-.025.047-.042.08.033.025.096.02.108.044-.008.007-.008.014-.022.015.062.007.07.095.146.097-.003.006-.006.01-.01.014.022-.023.047-.042.066-.054.013.017.055.01.027.04-.007-.011-.02-.002-.035 0l.028.008c-.035.05-.035-.014-.07.01.042.027.11.04.117.078-.04.04-.062-.054-.075.013l-.014-.056c-.048.085-.014-.03-.07.056.03.067.07.05.1.115.035-.007.033-.033.068-.04.109.04-.06.149.048.159.04-.01.1-.05.105.014l-.06.027c.04.057.094-.03.109.053-.027.007-.05-.027-.05-.014-.007.069.048 0 .071.028l-.036.043c.06.046.146.073.21.122-.014.009-.037.011-.035.037.09.053.15.156.21.242l.06-.014c.006.006-.001.027-.015.028.018.039.021-.022.048-.025.02.01.005.04-.015.042.08.01.202.053.23.134l-.02.004c.034.047.11-.047.126.018l-.013.002c.088.083.22.118.259.23.049-.048.088.084.144.004.036.074.01.08.08.153.02.016.062-.036.095-.03l-.023.046.063-.027-.008.064.033.003c-.01-.009-.012-.033-.004-.045.052.001.085.085.075.109.038.005.079.005.118.006-.01.018-.03.017-.05.023.077-.024-.012.053.058.03-.002-.013.016-.026.021-.035.012.039.069.062.116.068l-.022.028c.073.04.167.051.252.087-.025-.028.004-.082.03-.077l-.009.054c.028-.024-.018-.03.029-.054.029.019 0 .066-.025.075l.045-.002c-.003.016-.015.02-.025.038.027-.023.05.076.093.028l-.003.016c.088.028.133.023.205.042.016-.043.04-.025.073-.054.048.03.095.083.16.099.05-.009.023-.034.05-.055-.008.042.056.058.015.077.077.018.1.019.205.007-.007-.02-.016-.029-.007-.041.02-.003.036.025.028.045l-.005.003c.122-.038.224.175.33.108l-.005.003.099-.025c.04.016-.031.025-.005.058.11-.047.152.041.24.006.043.131.224.022.296.113v-.03c.025-.025.023.02.039.03 0-.023-.02-.03-.005-.044.19-.01.374.102.566.137.07.013.053-.149.135-.073l-.03.053c.147-.055.29.023.43-.023-.008.012-.009.028-.023.027.028.043.109.008.11-.026.022.004.004.03.017.046.03.023.075-.05.09-.01.003.005-.008.012-.014.015.02-.02.09.005.072-.041.051.022.1-.02.14.007.027-.051.09.024.098-.048-.003.075.092.06.124.025-.01.022.03.023.017.054.038 0 .072-.015.064-.053.073.091.136-.08.18.034.11-.049.21-.084.309-.109.003.075-.11.016-.1.094.094-.038.142-.106.237-.095.026.008-.01.033-.017.047.092-.035.184-.014.263-.067 0 .007-.008.016-.015.023.016-.005.04.005.033-.028l-.015.011c-.033-.045.051-.111.05-.137-.014.1.086.012.06.14.01-.009.02-.027.015-.049.017.004.024.017.012.045.056-.028.03-.06.083-.067.002.016-.008.024-.01.044.022-.036.043-.071.09-.064 0 .01.007.022-.006.023.077-.016.116-.103.205-.093-.01.075.033.017.05.076l.042-.029-.025-.025c.04-.008.065-.06.103-.047l-.024.031.072-.028-.047-.013c.032-.04-.023-.075.033-.07-.009.008.04-.009.068.022.015-.023.03-.048.062-.04.013.018.011.068.02.08.005-.055.088-.035.097-.096-.004.014.004.046.008.05l.005-.044c.021.007.026.013.03.038.056-.009-.039-.07.034-.057-.004.005 0 .01-.009.02.07-.003.116-.064.18-.062.037.054-.046.03-.01.074.082-.038.153-.123.238-.139h-.017c-.019-.087.074.017.1-.038-.007.01.004.051.004.041.06-.008.105-.064.177-.122l-.002.025c.04.006.09-.023.129-.027.001-.024.022-.031-.003-.055.158.067.168-.156.307-.104-.01.006-.017.03-.008.026l.07-.056c-.025-.03-.022-.016-.052-.034 0-.025.013-.05.031-.062-.022.042.03.054.054.065-.008-.01-.009-.023-.016-.033.072.037-.03-.071.046-.061l.007.019c.015-.02.02-.054.045-.06.03.032-.011.029.005.061.03-.02.018-.106.068-.083-.007.018-.025.028-.032.046.056.028.053.014.08.009h-.003l.065-.01-.021-.004c-.021-.118.066-.065.075-.16-.01.09.014.04.038.084.02.003.048.004.05.02.002-.05.058 0 .059-.071.01.012.026-.016.043.021.024-.03-.023-.018-.032-.036.017-.075.15-.022.17-.132.038-.067.016-.115.048-.177.033.007.023.057.023.057.042-.004.06-.024.074-.06.004.015.017.02.036.027.018-.02-.024-.056.018-.06.007.017.02.044.022.066.015-.032.02-.074.033-.107.026.014.015.045.018.066.02-.034.054-.085.031-.124l-.028.004c.008-.01.032.023.03.036 0 .047-.044.02-.056.009l.01-.023c-.081-.053-.059.072-.1.098l-.03-.064.001.074c-.019-.007-.049-.033-.038-.055-.047-.005-.007.037-.052.026-.007-.003-.008-.006-.007-.01l-.011.037c-.005-.016-.035-.035-.014-.04-.068.005-.041.096-.09.068l.001-.006c-.05.065.025.044.012.128l-.106-.077.023.046c-.007.003-.022.01-.032-.009-.004.047.017.015.022.052-.058-.014-.08.078-.132.017.01.04.048.004.028.049-.058-.065-.033.039-.085.025-.015-.043.026-.042-.025-.056.022.076-.068.025-.085.053.031.053-.043.054-.078.096-.007-.018-.1.019-.15.023l-.004-.01c.021.058-.027.072-.052.1-.016-.033-.017-.048-.008-.072l-.029.016c.003.022-.002.035-.019.05l-.013-.043c-.038.02-.056.085-.12.082.014.04.093.086.05.138-.013-.02-.032-.054-.021-.07-.004.006-.009.026-.023.022l.006-.045c-.032-.004.001.035-.02.04-.013-.03-.023-.014-.032-.039.004-.005.023.005.024-.01-.024.004-.057 0-.076-.02.01.017.019.04.005.052-.04.02-.03-.03-.06-.034 0 .026-.036.016-.017.06-.011.006-.023-.013-.033-.023-.012.029-.096.044-.052.083h.007l-.003.004c-.052.072-.156.032-.218.078l-.006-.015c-.035.034-.089.047-.106.091-.013.004-.04-.019-.041-.039-.029.022-.027.04-.082.03.023-.037-.02-.02.026-.03-.046 0-.064-.023-.095.034.002-.045-.048-.04-.065-.023l.04.02c-.021.012-.042.015-.063.018l-.006-.056c-.104-.038-.123.158-.22.069-.012.043.055.014.047.062-.043.005-.105-.063-.118-.06-.062-.017-.031.09-.095.082.012.017.032.066-.007.094-.043.003-.07-.068-.048-.09.01-.003.016.002.017.009.011-.01.027-.022.006-.04l-.001.02c-.025-.014-.08 0-.074-.034-.026.026-.006.035.02.04-.059-.016-.082.017-.14.01.011.01.024.03.016.032-.084-.006-.028.044-.08.065-.036-.023-.002-.071-.051-.037-.037-.015-.017-.05-.007-.068-.042.044-.096-.01-.125-.013l.023-.02c-.014.012-.027.014-.04.016l.022.036c-.016-.005-.03-.003-.032-.019-.011.028.023.062-.002.102-.024-.017-.06.03-.074-.02.066.008-.016-.05.037-.067-.01.008-.022.01-.038.005-.004-.005 0-.01.004-.015-.068-.036-.02.063-.083.071.004-.03-.022-.053-.032-.045.026-.003.02.047 0 .072-.045-.016-.043.024-.065.025l.026.006c-.004.03-.025.03-.052.043-.006-.022.023-.02.012-.028-.025.056-.078-.042-.118 0-.023-.018-.008-.055-.028-.067-.045.042-.058-.036-.106 0 .019.037.02.027-.013.068l.084-.034-.05.061c.026-.001.052-.028.069-.023-.023.034-.021.024-.005.056-.042-.056-.068.04-.113.003l-.008-.097c-.066-.039-.106.058-.188.04l.027.014c-.008.04-.05.01-.074.027 0-.033-.017-.043-.029-.063.003.024-.059.003-.062.068l-.039-.04c-.065-.014-.07.1-.133.088.018-.035-.011-.058.03-.083-.021 0-.04-.007-.04.016-.013-.02-.057.044-.077.013-.008.014-.01.048-.034.046-.003-.007 0-.016 0-.016 0 .016-.037.021-.015.058-.067-.102-.182.007-.238-.08-.046.01-.102.021-.143.024.003-.01 0-.016.008-.013-.056-.03-.037.093-.102.06-.032-.053.036-.029.015-.049-.005-.105-.079.014-.12-.053l.01-.005c-.031-.04-.082.034-.137.023 0 0 .003-.01.001-.016-.04.051-.112.064-.167.076.02-.04.026-.02.019-.064-.024.005.002.069-.046.077-.014-.024-.046-.046-.047-.092l.044.001c-.018-.06-.057-.002-.08-.014l.005-.025c-.068.003-.075.068-.148.058l.006.02c-.047.06-.03-.039-.075.006l-.005-.065c-.029.015-.1.053-.148.058.032-.045.09-.06.127-.086-.026-.001-.089-.007-.106.024.011-.005.026-.02.035-.008-.037.047-.082.066-.134.057.025-.124-.132-.05-.156-.153-.098.033-.178-.045-.285-.053.022.102-.031-.001-.041.099-.026.003-.036 0-.037-.007l-.065-.07c-.012-.031.028-.018.03-.041-.053-.015-.016-.045-.047-.077 0 .037-.028.048-.055.027l.034.055c-.084.037-.048-.097-.133-.061l.03-.026c-.042.01-.14-.031-.195.04-.004-.013-.007-.042.011-.045-.087-.032-.223.04-.283-.025l.014-.022c-.02.003-.042.038-.057.01.004-.01.013-.023.006-.026-.012.006-.057.033-.075.011l.026-.02c-.078-.059-.151.023-.23.016.02-.07-.04-.113-.07-.135l.004-.01c-.098-.039-.19.005-.295.003-.029-.096-.178-.11-.251-.187.008.018-.025.051-.044.051-.015-.022-.078.022-.048-.037l.007.004c.01-.067-.04-.068-.073-.084l-.042.077c-.037-.146-.246-.073-.242-.195-.03.009-.056-.005-.086.003l.023-.04c-.05-.04-.075-.06-.15-.087l.03-.021c-.037-.022-.118.09-.154.068l.027-.066c-.066-.042-.096-.136-.196-.125.007-.008.02-.023.032-.019-.03-.021-.09-.115-.134-.03.034-.05-.063-.049-.111-.055l.033-.033c-.063.024-.074.037-.123.018-.006-.012.014-.035.02-.016-.016-.044-.052.014-.074-.035l.033-.011c-.03-.028-.037-.014-.076-.002-.032-.002-.053-.057-.03-.092-.021.016-.061.027-.072.003.008-.014.022-.016.028-.016-.031-.066-.11-.03-.113-.095.01-.011.013-.019.014-.025.037.038.066.07.06.07.03-.032.004-.067.068-.086-.045 0-.136.01-.152-.035l.007-.014h.006c-.004-.01-.013-.013-.023-.014-.005-.014-.007-.023-.016-.033.021-.028-.021-.047-.035-.063-.033.033-.047.009-.056.053 0-.004.007 0 .018.008.004.001.007.004.01.003l-.004.002.04.035c-.028.005-.055.006-.054-.028-.03.013-.06.025-.076.03.025-.065.01-.129.037-.162-.062-.032-.112-.105-.206-.08-.021-.008.005-.033.011-.047.014.003.021.013.035.01-.042-.014-.079-.079-.133-.048-.008-.053.06-.013.014-.059l.02-.004c.008-.16-.252-.078-.224-.267-.002.012-.002.018-.01.026-.037-.164-.216-.264-.204-.447-.004-.047-.04-.037-.078-.05l.042-.029-.071-.021c-.066-.049.07-.15-.03-.202l-.03.02c-.003-.03-.05-.085-.01-.092-.007 0-.037.001-.024-.015l.025-.009-.063-.06c.004-.06.102-.017.09-.096-.018-.027-.092-.065-.108-.052.001.01-.01.032-.036.038l-.019-.026c-.077.007-.162-.01-.198.084l.058.044-.033.026-.012-.045c-.029.034.005.044.031.056-.018.01-.03.02-.034.032l.085.032c-.027.015-.064-.007-.07.033.04.014.059-.042.091-.009-.027.035-.057.036-.018.056-.018.01-.032.007-.044-.002.031.019.032.065.076.065-.033.039.039.08-.031.103.019.003.072.024.083.045-.098-.01.03.086-.062.11.085.002.079.099.146.132-.007 0-.021 0-.02-.007.009.032-.009.051-.012.077.06-.025.096.014.144.02-.038.064-.08.013-.127.052.046-.026.078.038.11.006-.02.045-.003.031-.043.071.074-.034.027.018.083.016-.012.058-.06.047-.013.077-.01.033-.057.01-.057.01M32.382 17.365c.014.007.009.016.002.023-.004-.005-.01-.01-.018-.016l-.006.002.022-.01m-.165.328c-.004-.01-.01-.02-.018-.031.012-.011.028-.018.031-.01-.011.002-.008.023-.013.041m-.768-.745c.027.032.057-.026.089-.043.047.025-.017.047-.03.08.033.013.09-.007.105.012-.006.008-.006.014-.02.019.06-.008.068.07.14.06-.002.006-.005.01-.008.013.02-.024.042-.045.06-.058.014.013.053.002.027.033-.006-.01-.02 0-.033.004l.026.004c-.033.05-.032-.009-.065.019.039.018.104.024.11.057-.04.04-.058-.042-.072.02l-.012-.05c-.047.084-.012-.025-.066.06.025.057.064.034.089.091.033-.009.033-.032.066-.04.099.032-.07.138.029.141.04-.01.102-.049.098.01l-.06.026c.028.051.093-.027.094.048-.027.006-.044-.025-.045-.013-.018.062.045.002.063.026l-.042.038c.043.045.116.078.165.129-.017.006-.038.006-.043.029.074.054.094.16.11.246l.058.002c.004.007-.011.023-.023.021 0 .037.027-.014.052-.011.012.014-.012.035-.03.033.066.026.164.094.145.174l-.018-.003c.005.05.113-.001.094.06l-.012-.004c.03.1.125.18.095.282.07-.017.014.105.106.07-.02.074-.043.066-.038.154.005.022.07.005.09.025l-.047.021.065.013-.048.042.023.018c-.002-.01.012-.029.026-.034.038.028.008.103-.016.114.027.022.05.047.076.07-.02.006-.033-.006-.05-.012.067.027-.046.028.015.053.008-.01.03-.008.04-.01-.021.032-.003.08.023.113l-.036.005c.017.068.069.131.096.205.005-.032.065-.047.08-.027l-.049.027c.037.003.01-.03.06-.014.005.03-.05.038-.073.028l.03.027c-.014.008-.025.002-.046.007.037.003-.028.075.032.076l-.015.007c.022.075.05.103.072.163.045-.012.042.015.084.022 0 .05-.02.11 0 .163.034.031.041 0 .073.01-.04.014-.02.067-.057.047.025.063.035.08.087.156.015-.013.02-.026.035-.024.01.014-.009.04-.03.042l-.005-.003c.084.08-.07.246.034.301l-.005-.004.063.068c.001.038-.036-.014-.056.018.089.07.023.134.08.195-.115.077.04.19-.028.277l.029-.009c.032.015-.013.026-.018.04.022-.005.023-.024.04-.015.063.155.014.336.003.507-.001.061.156.017.095.102l-.057-.016c.08.116.026.252.096.367-.013-.006-.03-.004-.031-.016-.037.03.006.095.039.092-.002.02-.03.007-.044.02-.022.028.056.06.017.077-.006.003-.013-.006-.016-.01.02.015.002.078.046.058-.018.047.028.085.004.124.053.019-.018.08.055.081-.075.003-.053.084-.016.11-.023-.008-.02.027-.053.018.004.033.02.062.058.053-.086.067.08.117-.033.159.046.094.078.183.101.27-.075.001-.013-.096-.091-.088.035.081.102.126.09.21-.01.022-.034-.011-.047-.018.035.082-.002.161.042.234-.007 0-.015-.008-.02-.015.002.014-.01.034.023.032l-.01-.014c.05-.026.106.054.132.056-.098-.022-.022.074-.147.039.007.009.023.02.046.018-.006.014-.02.019-.046.005.02.052.056.033.057.08-.017 0-.024-.01-.043-.014.033.024.066.047.053.087-.01-.002-.023.003-.023-.009.008.069.087.117.057.193-.072-.022-.024.026-.086.03l.019.04.03-.016c-.002.035.044.067.024.098l-.026-.027.012.067.023-.038c.032.036.079-.004.062.044-.007-.01-.001.036-.038.054.02.018.041.036.026.063-.02.006-.07-.006-.083-.002.053.018.014.083.068.106-.012-.007-.045-.008-.052-.006l.042.015c-.014.017-.02.019-.046.016-.01.05.079-.014.043.044-.003-.005-.01-.003-.016-.012-.019.058.024.115.002.168-.063.015-.014-.047-.067-.03.008.078.071.164.05.24l.009-.014c.087.014-.047.054-.008.094-.006-.01-.048-.015-.038-.012-.018.051.015.107.038.188l-.022-.011c-.022.029-.016.08-.03.112.022.011.017.03.05.02-.137.091.053.2-.062.281 0-.01-.018-.027-.019-.019l.013.079c.039-.002.024-.008.056-.021.021.012.036.036.034.055-.021-.037-.061-.007-.085.006.013-.001.025.005.037.005-.073.033.076.016.024.065l-.02-.005c.008.022.032.044.024.065-.046.004-.018-.024-.054-.03-.001.031.076.072.028.094-.01-.014-.008-.033-.019-.048-.055.024-.042.03-.053.05l.001-.001-.03.048.015-.01c.11.053.01.08.077.143-.063-.06-.04-.014-.089-.025-.016.01-.034.028-.047.02.036.031-.038.036.015.08-.016-.001-.005.026-.044.013.006.034.029-.002.048.004.046.058-.086.102-.024.185.02.066.07.088.085.15-.03.014-.055-.027-.055-.027-.03.025-.03.048-.018.081-.013-.008-.025-.005-.045 0 0 .023.054.028.023.053-.016-.01-.043-.023-.058-.038.009.03.032.063.039.095-.03 0-.038-.027-.053-.041.005.034.006.086.046.107l.02-.016c0 .012-.038-.004-.044-.014-.027-.035.024-.035.04-.032l.006.022c.097.002.005-.084.02-.122l.063.032-.047-.054c.02-.005.059-.003.064.02.04-.023-.018-.031.024-.049.007-.001.01 0 .012.004l-.014-.033c.013.008.049.005.035.02.05-.043-.033-.093.022-.102l.003.005c-.01-.076-.048-.016-.097-.08l.13-.015-.049-.016c.003-.007.01-.02.029-.014-.03-.034-.023 0-.052-.02.052-.029-.004-.102.077-.098-.037-.018-.035.03-.056-.013.088.003-.008-.046.037-.072.043.016.014.044.059.017-.072-.03.026-.061.016-.091-.06-.01-.016-.064-.03-.113.02.006.043-.083.07-.124l.01.002c-.06-.015-.043-.058-.052-.092.036.005.05.012.064.032l.003-.03c-.018-.01-.027-.02-.032-.041l.044.012c.003-.041-.045-.087-.01-.137-.042-.007-.122.03-.145-.027.023 0 .062.001.07.017-.002-.005-.017-.019-.006-.028l.036.026c.02-.023-.031-.016-.026-.034.033.003.025-.012.05-.007.004.005-.014.015-.002.024.008-.021.03-.046.055-.052-.019 0-.044-.004-.047-.02.001-.041.04-.01.06-.033-.022-.012.004-.036-.046-.04.002-.013.025-.013.039-.017-.02-.023.001-.1-.053-.08l-.003.006-.003-.003c-.044-.073.037-.142.02-.213l.016.001c-.017-.042-.006-.091-.04-.122.001-.012.032-.027.052-.021-.01-.033-.03-.037-.001-.081.027.033.025-.01.02.033.015-.04.042-.049-.002-.094.042.017.054-.029.042-.049l-.031.028c-.006-.022-.002-.041.003-.06l.054.012c.07-.083-.11-.154.005-.216-.038-.022-.029.045-.073.025.008-.038.089-.077.088-.09.03-.052-.08-.05-.06-.105-.02.007-.072.014-.09-.027.006-.039.082-.047.098-.023.001.01-.005.014-.011.013.007.013.015.029.037.014l-.02-.005c.02-.02.018-.072.05-.06-.019-.03-.032-.012-.043.01.03-.05.001-.078.02-.13-.01.01-.033.017-.033.009.024-.075-.038-.033-.047-.083.03-.03.072.01.047-.041.02-.032.052-.008.068.005-.037-.046.023-.088.03-.114l.017.024c-.01-.015-.01-.027-.01-.04l-.04.016c.007-.015.007-.027.023-.027-.026-.014-.065.013-.102-.016.02-.02-.023-.058.03-.066-.016.061.052-.007.062.043-.007-.01-.007-.021 0-.036.005-.002.01.002.014.006.045-.06-.06-.025-.061-.085.03.007.055-.015.049-.025 0 .024-.049.013-.072-.008.022-.04-.018-.041-.017-.061l-.01.023c-.03-.007-.026-.026-.036-.052.023-.004.016.023.026.013-.053-.027.052-.068.016-.108.02-.02.055-.004.068-.022-.04-.045.038-.052.004-.099-.039.016-.029.018-.07-.014l.033.078-.06-.048c0 .023.028.049.021.064-.033-.023-.024-.021-.056-.008.058-.036-.038-.064 0-.103l.098-.004c.04-.06-.056-.1-.036-.175l-.016.025c-.04-.008-.008-.045-.025-.069.033 0 .044-.015.063-.027-.024.003 0-.054-.066-.056l.041-.037c.014-.06-.097-.062-.09-.12.037.015.059-.013.086.024 0-.02.005-.037-.018-.036.02-.013-.049-.05-.02-.07-.014-.007-.049-.007-.048-.028.007-.003.016-.002.016-.002-.016.002-.025-.032-.06-.01.098-.067-.021-.164.062-.223-.015-.04-.03-.09-.035-.128.01.002.016-.001.013.006.026-.055-.096-.023-.067-.086.05-.035.03.029.05.008.106-.018-.021-.07.037-.116l.007.009c.033-.035-.05-.071-.047-.122 0 0 .01.002.016-.001-.059-.029-.084-.091-.105-.137.044.01.025.019.067.005-.009-.02-.069.014-.085-.028.021-.016.038-.05.083-.059l.007.04c.056-.027-.008-.052 0-.074h.026c-.016-.062-.08-.055-.084-.122l-.018.01c-.069-.03.032-.036-.02-.066l.064-.02c-.018-.022-.072-.076-.092-.117.053.018.084.065.116.093-.002-.024-.015-.08-.05-.089.008.009.026.019.018.03-.056-.023-.088-.058-.094-.105.127-.01.012-.129.104-.178-.06-.077-.008-.171-.031-.27-.092.053-.008-.028-.107-.003-.01-.022-.01-.03-.004-.034l.048-.08c.026-.023.027.017.048.01-.001-.051.038-.029.058-.067-.034.014-.056-.007-.048-.039l-.037.05c-.07-.06.07-.078 0-.137l.037.015c-.027-.032-.03-.134-.118-.15.01-.01.035-.024.046-.01-.009-.09-.13-.171-.096-.25h.026c-.011-.014-.052-.016-.033-.042.01-.002.026 0 .025-.008-.01-.006-.054-.03-.047-.055l.033.01c.006-.091-.105-.108-.142-.172.07-.02.073-.092.075-.128l.01-.002c-.021-.1-.107-.146-.164-.225.055-.08-.038-.193-.03-.296-.007.018-.053.018-.066.005.006-.025-.069-.038-.005-.059l.001.008c.056-.04.023-.075.013-.108l-.084.027c.089-.136-.14-.2-.054-.292-.03-.011-.04-.036-.07-.047l.044-.018c-.015-.061-.023-.092-.065-.156h.037c-.016-.04-.144.009-.164-.025l.057-.041c-.036-.065-.018-.16-.11-.196.01-.004.029-.011.038-.002-.016-.032-.024-.143-.102-.085.054-.031-.032-.071-.075-.093l.044-.017c-.069 0-.084.008-.123-.024 0-.013.027-.027.024-.008.001-.044-.053-.003-.055-.054h.034c-.017-.035-.03-.024-.07-.024-.028-.01-.028-.068.004-.095-.024.01-.064.01-.066-.016.012-.011.025-.01.03-.008-.007-.072-.095-.052-.08-.114.012-.009.016-.015.018-.02.027.042.046.08.042.077.036-.022.02-.062.087-.066-.045-.011-.134-.02-.141-.064.002-.004.004-.008.009-.013l.006.001c-.002-.01-.01-.014-.02-.017-.002-.014-.003-.024-.01-.034.027-.024-.011-.05-.022-.068-.037.028-.047.002-.064.044.001-.004.007 0 .017.01.003.002.005.005.009.005l-.004.001.032.04c-.03 0-.055-.003-.047-.036l-.078.02c.037-.06.034-.125.062-.154-.057-.037-.102-.112-.197-.088-.02-.007.007-.032.014-.045.013.003.02.013.033.01-.04-.015-.073-.078-.126-.046-.007-.052.06-.016.013-.058l.02-.005c0-.16-.245-.052-.24-.233 0 .012 0 .018-.006.026-.06-.154-.254-.193-.301-.361-.02-.042-.05-.017-.09-.013l.027-.043-.072.012c-.074-.011-.003-.165-.118-.157l-.014.033c-.018-.024-.083-.044-.055-.07-.007.003-.03.021-.028 0l.016-.02-.085-.008c-.034-.049.07-.078.004-.131-.03-.01-.119.01-.117.033.01.008.018.031.004.053l-.03-.003c-.047.062-.101.12-.086.195l.063-.014-.011.038-.03-.019c-.005.04.023.022.048.014-.009.018-.012.032-.01.044l.079-.033c-.015.027-.052.036-.04.066.038-.014.027-.065.067-.062-.005.04-.028.059.01.05-.009.018-.02.024-.034.025.032-.005.051.03.086.005-.01.047.065.04.016.093.016-.008.068-.019.085-.007-.086.04.053.055-.017.118.073-.04.097.04.163.042-.007.003-.02.008-.02.003.016.023.004.046.007.07.047-.045.088-.025.133-.036-.02.068-.068.039-.104.089.036-.039.079.004.102-.035-.01.046.003.03-.027.076.062-.053.027.007.078-.012-.002.055-.048.059-.002.072-.005.031-.05.024-.05.024M.591 28.345c-.002-.003-.005-.006-.01-.009.01-.013.02-.026.022-.024-.007.008-.007.02-.012.033m-.385-.106c.011.01.04-.044.064-.07.025-.004-.02.04-.034.07.019-.007.06-.048.064-.04-.005.008-.006.012-.015.02.038-.032.03.019.076-.022l-.007.013c.016-.026.034-.05.048-.068.006.003.033-.024.011.01-.002-.004-.012.009-.021.018l.016-.01c-.03.05-.02.01-.045.044.022-.007.063-.036.061-.017-.031.047-.03.001-.049.05v-.027c-.043.078-.004-.01-.051.072.007.025.036-.01.043.016.022-.022.026-.038.049-.06.057-.027-.066.127-.004.08.028-.027.072-.082.062-.043l-.042.048c.012.017.064-.067.055-.02-.018.018-.025.008-.027.015-.019.049.03-.023.038-.016l-.032.046c.023.006.066-.013.092-.007-.011.013-.025.024-.03.041.04-.004.048.044.051.088l.038-.032c.002.002-.009.02-.017.026-.002.021.019-.024.035-.037.007.002-.01.028-.022.037.04-.021.099-.037.085.017l-.012.01c.002.024.074-.07.06-.025l-.007.005c.016.039.074.026.053.101.046-.053.01.046.07-.031-.012.05-.028.061-.024.104.004.008.046-.042.06-.045l-.03.042.042-.036-.031.053.015-.005c-.001-.005.007-.023.017-.034.025-.01.006.048-.01.07l.053-.016c-.013.016-.022.019-.033.026.045-.031-.03.045.012.017.005-.01.02-.024.026-.032-.012.03.002.04.021.038l-.023.026c.014.022.052.017.074.034.001-.019.04-.067.05-.067l-.03.046c.024-.024.005-.022.038-.048.005.01-.03.053-.046.064l.021-.008c-.009.013-.016.018-.03.034.025-.023-.014.056.027.014l-.01.014c.023.016.044.008.063.02.028-.038.03-.024.057-.05.004.021-.002.06.016.07.025-.011.026-.03.048-.048-.024.034-.006.043-.033.061.024.009.03.011.075.001.008-.016.009-.024.02-.034.008-.003-.001.021-.014.037l-.004.003c.065-.032-.01.145.064.09l-.004.002.05-.02c.005.013-.025.02-.034.047.067-.039.033.036.08.013-.058.112.06.033.034.112l.017-.024c.022-.02-.004.018-.004.026.013-.019.01-.025.023-.036.067.005.068.103.1.159.012.019.1-.115.08-.043l-.04.04c.075-.028.07.052.137.032-.01.009-.02.022-.022.02-.017.037.025.02.044-.005.003.006-.016.024-.022.04-.007.023.048-.028.028.006-.003.006-.01.01-.013.01.016-.011.019.02.042-.02 0 .027.036.002.03.031.037-.036.008.036.052-.021-.045.06-.013.064.016.042-.016.016-.007.024-.029.047.01.006.027 0 .048-.031-.036.084.077-.033.018.065.051-.012.092-.015.127-.012-.045.06-.031-.013-.077.05.042-.008.093-.05.106-.018 0 .012-.023.024-.032.032.04-.007.04.038.085.02-.004.006-.01.01-.016.014.005 0 .002.015.022-.012l-.01.004c.024-.044.078-.07.094-.09-.065.072.006.034-.078.124.007-.003.02-.013.032-.032 0 .008-.006.02-.025.038.025-.005.041-.037.054-.027-.01.013-.016.016-.029.03.026-.02.052-.041.054-.022-.006.008-.013.02-.016.016.022.01.084-.044.086-.004-.048.053-.007.024-.042.074l.022-.006.013-.028c.01.008.045-.021.042.001l-.023.015.026.004.003-.026c.03-.018.045-.064.048-.04-.006.003.01.008-.006.04.016-.012.034-.025.031-.007-.01.017-.042.054-.048.065.035-.038.032.006.07-.034-.01.009-.029.035-.032.04l.029-.03c-.004.014-.007.02-.023.04.01.016.042-.066.039-.027-.003.002-.007.007-.013.01.006.026.047.002.05.03-.032.053-.022.002-.048.048.029.007.09-.027.102 0v-.008c.055-.069-.01.046.025.02-.006.004-.032.037-.026.03.006.022.043.004.08-.002l-.015.016c-.004.022.015.025.018.04.017-.016.02-.009.036-.038-.048.124.095-.015.057.089-.004-.002-.02.01-.017.012l.034-.001c.021-.032.01-.02.024-.048.016-.016.032-.026.038-.022-.025.014-.037.05-.045.07.006-.01.015-.02.022-.03-.03.063.048-.06.036-.012l-.013.016c.012-.004.033-.022.035-.013-.023.037-.018.012-.04.041.01.004.067-.055.049-.013-.011.007-.017.003-.028.01-.022.048-.013.038-.012.05v-.002l.001.03.005-.015c.08-.084.034 0 .094-.05-.057.047-.027.031-.058.07-.004.015-.008.031-.018.041.03-.027-.007.034.037-.006-.009.013.007.007-.019.038.017-.004.015-.024.027-.04.047-.034-.007.077.058.031.036-.012.072-.054.104-.064-.01.025-.04.044-.04.044-.005.026.004.027.023.018-.01.01-.015.02-.024.037.01.001.04-.044.034-.018-.012.013-.031.035-.045.047.017-.007.042-.025.059-.03-.015.023-.03.03-.044.043.017-.004.038-.004.068-.038l.003-.017c.005 0-.021.032-.028.037-.029.022-.002-.02.007-.034l.012-.004c.05-.08-.032-.004-.04-.017l.046-.052-.046.037c.008-.016.029-.048.04-.052.013-.033-.02.014-.005-.021.002-.006.005-.008.007-.01l-.02.01c.01-.01.027-.04.026-.027.01-.043-.053.024-.028-.022l.004-.003c-.034.005-.032.04-.082.077l.063-.108-.032.04c0-.004-.002-.01.01-.025-.028.022-.011.018-.035.041.017-.044-.04-.002.005-.069-.026.028-.008.03-.034.044.048-.071-.021.004-.007-.035.03-.034.024-.008.039-.047-.05.057-.008-.026-.024-.02-.037.048-.032.008-.057.015.013-.016-.004-.044-.003-.07l.006-.009c-.038.048-.044.03-.06.033.022-.03.032-.04.046-.049l-.008-.006c-.014.015-.023.02-.032.022l.029-.034c-.013-.007-.054.026-.051-.009-.026.034-.058.103-.09.115.013-.019.035-.05.045-.056-.003.002-.016.012-.013.003l.029-.027c.003-.018-.023.023-.026.017.02-.026.01-.022.026-.042.004-.002-.003.014.006.005-.002-.009.002-.03.015-.051-.01.015-.026.035-.033.035-.013-.006.02-.034.023-.052-.016.016-.01-.008-.039.031-.003-.003.01-.021.016-.033-.018.013-.03-.015-.055.032v.004h-.002c-.048.026-.024-.05-.055-.047l.01-.013c-.023.006-.032-.01-.06.013-.004-.003.01-.03.022-.045-.016.004-.028.018-.024-.013.025-.016.012-.022.021-.01-.003-.02.01-.042-.028-.015.029-.03.023-.049.01-.042l-.01.03c-.01 0-.013-.007-.016-.014l.036-.042c.017-.07-.11.062-.06-.041-.03.026-.004.03-.036.063-.006-.014.03-.085.027-.088.003-.035-.062.055-.064.027-.01.017-.04.061-.062.068-.006-.014.036-.076.052-.084.004 0 .001.007-.003.012.008-.003.017-.007.026-.027l-.013.015c.006-.02-.01-.03.013-.052-.019.009-.022.023-.022.035.003-.032-.021-.016-.024-.041-.004.01-.015.03-.018.028-.006-.034-.03.024-.05.02.01-.03.045-.055.017-.045.003-.022.029-.043.042-.053-.036.02-.009-.038-.012-.048l.016-.008c-.01.004-.013.002-.016 0l-.02.034c0-.009-.003-.011.007-.024-.02.018-.036.054-.065.077.007-.02-.028.005 0-.038.007.026.03-.043.05-.04-.007.003-.01 0-.01-.008.003-.005.007-.008.01-.01.011-.048-.043.043-.058.03.02-.022.03-.048.023-.045.006.005-.026.042-.046.056.003-.026-.021.005-.025-.001v.013c-.02.022-.023.015-.036.017.013-.019.016-.008.02-.018-.04.036.013-.056-.019-.036.007-.02.032-.045.036-.059-.035.022.01-.042-.022-.027-.02.035-.013.027-.045.052l.038-.007-.048.036c.006.005.028-.01.028-.001-.025.02-.019.013-.035.042.026-.054-.039.014-.025-.025l.058-.079c.01-.046-.058.02-.063-.014l-.004.018c-.026.03-.016-.005-.032.003.02-.025.023-.038.033-.056-.015.02-.014-.013-.055.038l.017-.041c-.006-.026-.074.061-.084.04.026-.025.033-.049.059-.061-.006-.004-.007-.012-.02.006.009-.019-.041.024-.028-.004-.01.01-.032.037-.036.03l.01-.013c-.01.013-.022.011-.039.044.045-.094-.05-.027-.012-.108-.018 0-.038-.001-.05-.007.007-.007.01-.013.01-.009.003-.034-.065.07-.061.03.023-.048.026-.016.032-.037.062-.087-.028-.002-.002-.06l.007-.004c.013-.035-.045.018-.055.002l.01-.013c-.042.037-.07.039-.093.041.03-.03.02-.013.042-.05-.01 0-.039.057-.058.058.01-.021.013-.044.04-.081l.012.006c.03-.052-.016-.009-.016-.022l.017-.02c-.023-.006-.061.046-.077.03l-.01.016c-.048.044.013-.035-.025-.004l.036-.055c-.017.008-.062.034-.08.035.035-.034.063-.043.09-.06-.007-.005-.026-.013-.049.01.007-.002.02-.013.016-.003-.038.036-.064.048-.076.038.077-.1-.016-.051.033-.137-.05.02-.034-.05-.066-.063-.049.086-.01-.004-.068.079-.01 0-.011-.003-.008-.009l.017-.062c.013-.027.019-.013.032-.032-.01-.016.02-.039.026-.067-.02.03-.035.038-.035.021l-.016.046c-.052.029.033-.08-.018-.052l.025-.02c-.021.007-.036-.028-.095.03.006-.01.02-.035.029-.037-.017-.028-.105.03-.094-.023l.017-.019c-.01.003-.036.032-.027.008.007-.008.017-.019.016-.021-.008.005-.038.026-.035.01l.021-.019c-.004-.043-.076.029-.105.028.043-.059.039-.09.037-.107l.006-.008c-.022-.027-.082.015-.124.02.031-.075-.033-.065-.032-.12-.004.014-.034.046-.043.049.003-.017-.047.028-.006-.025l.001.003c.035-.056.013-.05.004-.059l-.053.069c.05-.12-.093-.01-.038-.11-.02.012-.027.007-.046.02l.029-.037c-.01-.022-.014-.033-.042-.039l.025-.023c-.01-.011-.095.097-.108.092l.039-.059c-.021-.013-.005-.077-.063-.04.007-.009.02-.025.024-.024-.008-.009-.008-.065-.062.014.037-.05-.017-.02-.044-.005l.03-.036c-.045.04-.055.053-.077.057 0-.007.019-.031.016-.02.004-.026-.034.03-.031.002l.022-.02c-.008-.011-.017.002-.043.026-.018.01-.013-.024.01-.059-.016.02-.042.043-.041.029.008-.014.016-.02.02-.023.001-.038-.057.024-.043-.02.01-.013.013-.02.015-.024.013.01.023.02.02.023.025-.034.018-.049.062-.09-.028.02-.085.065-.084.04l.007-.012.004-.003c0-.005-.004-.004-.01 0 0-.008.001-.013-.002-.016.02-.03-.001-.025-.006-.03-.027.038-.03.026-.046.062.001-.003.004-.004.01-.003l.005-.002-.003.003c.004.002.01.004.015.008-.018.015-.034.028-.025.003l-.053.055c.031-.058.037-.097.06-.13-.033.008-.05-.016-.114.047-.011.005.01-.025.016-.037.008-.005.01-.001.02-.01-.023.01-.034-.014-.073.033.004-.03.04-.04.018-.044l.013-.013c.025-.103-.146.086-.108-.041-.002.008-.003.011-.008.02-.01-.075-.117-.02-.106-.12 0-.023-.025.007-.05.026l.027-.042-.046.037c-.043.021.043-.12-.027-.072l-.017.03c-.004-.012-.036-.003-.012-.033-.004.004-.023.026-.016.01l.015-.021-.046.022c-.003-.026.065-.082.046-.102-.014.002-.069.044-.076.06.002.004-.001.02-.017.041l-.015.006c-.047.06-.1.12-.114.176l.041-.029-.018.034-.012-.006c-.015.032.007.01.024-.004-.01.017-.017.03-.019.037l.056-.05c-.016.025-.04.044-.043.063.026-.023.035-.058.058-.069-.015.033-.034.054-.009.035-.01.017-.02.026-.027.031.02-.015.022.004.05-.026-.02.039.028.006-.016.064.012-.012.045-.038.053-.036-.063.062.019.02-.04.093.055-.057.05-.007.09-.032-.005.004-.015.013-.013.01.004.01-.008.031-.012.047.04-.052.06-.055.091-.082-.028.057-.051.057-.084.107.03-.042.048-.03.071-.067-.016.036-.005.02-.033.065.05-.064.015-.006.05-.041-.013.04-.042.063-.015.052-.01.023-.037.039-.037.039" transform="translate(-173.000000, -303.000000) translate(173.000000, 303.000000) translate(8.490566, 1.769613) translate(17.863587, 20.567186)"/>
                    </g>
                </g>
            </g>
        </g>
    </g>
</svg>
