<svg xmlns="http://www.w3.org/2000/svg" width="90" height="82" viewBox="0 0 90 82">
    <g fill="none" fill-rule="evenodd">
        <g>
            <g>
                <g>
                    <g fill="#FFF">
                        <g>
                            <path d="M57.528 30.698h-1.227v-1.316c0-.104-.084-.189-.188-.189-.103 0-.187.085-.187.19v1.315h-1.217c-.104 0-.188.084-.188.189 0 .104.084.189.188.189h1.217v1.452c0 .105.084.189.187.189.104 0 .188-.084.188-.189v-1.452h1.227c.104 0 .188-.085.188-.19 0-.104-.084-.188-.188-.188M44.448 1.505H43.22V.19c0-.104-.084-.189-.187-.189-.104 0-.188.085-.188.19v1.315H41.63c-.104 0-.188.085-.188.189 0 .105.084.19.188.19h1.216v1.451c0 .105.084.189.188.189.103 0 .187-.084.187-.189V1.883h1.228c.104 0 .188-.084.188-.189 0-.104-.084-.189-.188-.189M4.6 22.878c-2.33 0-4.225-1.909-4.225-4.255 0-2.347 1.895-4.255 4.224-4.255 2.33 0 4.225 1.908 4.225 4.255 0 2.346-1.895 4.255-4.225 4.255m0-8.888C2.063 13.99 0 16.068 0 18.623s2.063 4.633 4.6 4.633c2.536 0 4.599-2.078 4.599-4.633s-2.063-4.633-4.6-4.633M22.624 5.398c-1.075 0-1.95-.881-1.95-1.964 0-1.082.875-1.963 1.95-1.963 1.074 0 1.949.88 1.949 1.963 0 1.083-.875 1.964-1.95 1.964m0-4.305c-1.281 0-2.324 1.05-2.324 2.341 0 1.291 1.043 2.342 2.325 2.342 1.281 0 2.324-1.05 2.324-2.342 0-1.29-1.043-2.34-2.324-2.34M61.642 41.66c-1.36 0-2.468-1.114-2.468-2.485 0-1.37 1.108-2.485 2.468-2.485 1.36 0 2.467 1.115 2.467 2.485 0 1.37-1.107 2.485-2.467 2.485m0-5.348c-1.567 0-2.842 1.284-2.842 2.863s1.275 2.863 2.842 2.863c1.567 0 2.842-1.284 2.842-2.863s-1.275-2.863-2.842-2.863M13.409 29.496h-1.228V28.18c0-.105-.084-.19-.188-.19-.103 0-.187.085-.187.19v1.316h-1.217c-.103 0-.187.084-.187.188 0 .105.084.19.187.19h1.217v1.452c0 .104.084.189.187.189.104 0 .188-.085.188-.19v-1.451h1.228c.104 0 .187-.085.187-.19 0-.104-.083-.188-.187-.188" transform="translate(-41.000000, -55.000000) translate(41.000000, 55.000000) translate(0.000000, 3.416667) translate(11.886792, 7.687500) translate(0.675183, 0.716024)"/>
                        </g>
                    </g>
                    <g fill="#F09D4C">
                        <path d="M5.934 17.393c-.179-1.101.675-2.101 1.795-2.101H45.24c.472 0 .895.179 1.215.466-1.327-2.224-2.743-4.545-3.608-5.813-1.995-2.924-3.052-5.848-6.221-7.72C33.457.354 30.874.003 27 .003c-3.874 0-4.73-.116-8.922 1.17-3.052.935-4.93 3.158-8.57 7.837C5.87 13.689 0 21.877 0 21.877c2.065 3.087 4.822 4.887 7.635 5.99L5.934 17.393zM47.009 16.689c.053.223.067.46.027.704l-1.402 8.633c3.633-2.704 4.14-4.617 4.14-4.617s-1.26-2.184-2.765-4.72" transform="translate(-41.000000, -55.000000) translate(41.000000, 55.000000) translate(0.000000, 3.416667) translate(21.226415, 37.583333)"/>
                    </g>
                    <path fill="#FFF" d="M53.278 24.272c-.407 0-.601.332-.818.697 0 0-.82-.04-2.395-1.217-1.575-1.177-2.686-4.106-2.686-4.106s-.991 3.465-3.635 5.054c-2.645 1.59-3.481 1.989-3.481 1.989-.427-.222-.897-.329-1.347-.307-.95.045-1.63.8-1.551 1.909.079 1.094.722 1.78 1.551 2.062.481.165 1.473.13 2.027-.095.589 1.755 1.536 3.225 2.81 4.109.046 1.014.081 2.08.044 2.347-.094.67-.707 1.129-.707 1.129s1.167 1.505 4.012 1.447c3.026-.062 3.724-1.871 3.724-1.871s-.823-.392-.823-1.565v-1.74c1.586-1.215 2.583-3.295 2.807-5.771.155-.01.313-.042.468-.1.573-.21 1.062-.889 1.062-1.985 0-1.097-.475-1.987-1.062-1.986M17.293 65.606h-7.148c-.003-.45-.05-6.126-.468-8.104-.436-2.06-1.507-4.188-3.75-5.63C3.682 50.43 0 50.396 0 50.396c.368.892.536 1.922.703 4.463.168 2.54 2.009 4.188 4.085 4.668 2.076.48 3.382 1.374 4.118 2.232.737.858.67 3.845.67 3.845l.044.002H6.177c-.297 0-.537.247-.537.55v2.515c0 .304.24.55.537.55h.578l1.13 7.654h7.701l1.128-7.653h.58c.296 0 .536-.247.536-.55v-2.515c0-.304-.24-.55-.537-.55" transform="translate(-41.000000, -55.000000) translate(41.000000, 55.000000) translate(0.000000, 3.416667)"/>
                    <path fill="#FFF" d="M18.39 47.833s-1.78 2.151-3.897 3.52c-2.116 1.369-3.358 3.193-3.425 5.116-.068 1.923 0 7.593 0 7.593l.504-.032s-.168-3.357 1.477-4.563c1.646-1.206 3.997-2.248 5.071-4.692 1.075-2.445.27-6.942.27-6.942M70.719 64.52c-.675-1.869-1.325-3.404-1.826-4.51-.62.756-1.57 1.71-3.032 2.797l1.401-8.608c.18-1.098-.674-2.095-1.793-2.095h-37.49c-1.119 0-1.972.997-1.793 2.095l1.225 7.526.475 2.917c-1.521-.595-3.024-1.396-4.411-2.49-.489 1.145-1.048 2.706-1.284 4.297-.46 3.098.45 5.334 2.759 6.348.976.428 2.696.43 4.312.298l.337 2.072h34.25l.334-2.053c2.301-.536 4.893-1.247 5.463-1.84 1.073-1.118 2.503-2.794 1.073-6.755M88.607 12.813H67.62c-.77 0-1.394-.604-1.394-1.348V1.348C66.226.603 66.85 0 67.62 0h20.987C89.377 0 90 .603 90 1.348v10.117c0 .744-.624 1.348-1.393 1.348M88.057 16.23H68.17c-1.072 0-1.943.884-1.943 1.976v9.525c0 1.092.87 1.977 1.943 1.977h1.493c.2.382.462 1.094.553 1.795.086.664.112 1.81.112 1.81s2.647-1.32 4.784-3.605h12.946c1.073 0 1.943-.885 1.943-1.977v-9.525c0-1.092-.87-1.977-1.943-1.977" transform="translate(-41.000000, -55.000000) translate(41.000000, 55.000000) translate(0.000000, 3.416667)"/>
                    <g fill="#475574">
                        <path d="M89.521 11.818c0 .988-.796 1.792-1.775 1.792H67.66c-.979 0-1.775-.804-1.775-1.792V2.276c0-.988.796-1.792 1.775-1.792h20.086c.979 0 1.775.804 1.775 1.792v9.542zM87.746.107H67.66c-1.184 0-2.149.973-2.149 2.169v9.542c0 1.196.965 2.17 2.15 2.17h20.085c1.185 0 2.149-.974 2.149-2.17V2.276c0-1.196-.964-2.169-2.15-2.169zM89.521 27.974c0 .988-.796 1.792-1.775 1.792H74.59l-.056.059c-1.721 1.825-3.8 3.042-4.518 3.434-.014-.389-.046-1.068-.106-1.531-.091-.703-.357-1.441-.578-1.862l-.053-.1h-1.62c-.979 0-1.775-.804-1.775-1.792v-9.542c0-.988.796-1.792 1.775-1.792h20.086c.979 0 1.775.804 1.775 1.792v9.542zm-1.775-11.711H67.66c-1.184 0-2.149.973-2.149 2.169v9.542c0 1.196.965 2.17 2.15 2.17h1.392c.195.4.409 1.03.487 1.633.085.648.112 1.781.113 1.793l.007.294.262-.13c.027-.013 2.682-1.34 4.828-3.59h12.996c1.185 0 2.149-.974 2.149-2.17v-9.542c0-1.196-.964-2.17-2.15-2.17z" transform="translate(-41.000000, -55.000000) translate(41.000000, 55.000000) translate(0.000000, 3.416667) translate(0.000134, 0.000000)"/>
                        <path d="M86.873 20.462c-.603 0-.899-.171-1.213-.353-.342-.197-.695-.401-1.398-.401-.702 0-1.056.204-1.398.401-.313.182-.61.353-1.212.353-.603 0-.899-.171-1.212-.353-.342-.197-.695-.401-1.397-.401-.702 0-1.055.204-1.396.402-.313.18-.609.352-1.21.352-.603 0-.899-.171-1.212-.353-.342-.197-.695-.401-1.397-.401-.701 0-1.055.204-1.397.402-.312.18-.608.352-1.21.352s-.897-.171-1.21-.352c-.342-.198-.696-.402-1.397-.402-.103 0-.187.084-.187.188s.084.188.187.188c.602 0 .898.172 1.21.353.342.197.695.402 1.397.402.702 0 1.055-.205 1.397-.403.312-.18.608-.352 1.21-.352s.898.172 1.211.353c.342.197.695.402 1.397.402.701 0 1.055-.205 1.397-.403.312-.18.608-.352 1.21-.352s.898.172 1.211.353c.342.197.696.402 1.398.402s1.056-.205 1.398-.402c.313-.181.61-.353 1.212-.353.603 0 .9.172 1.213.353.342.197.695.402 1.398.402.103 0 .186-.085.186-.189s-.083-.188-.186-.188M86.873 4.146c-.603 0-.899-.171-1.213-.352-.342-.198-.695-.402-1.398-.402-.702 0-1.056.204-1.398.402-.313.18-.61.352-1.212.352-.603 0-.899-.171-1.212-.352-.342-.198-.695-.402-1.397-.402-.702 0-1.055.204-1.396.402-.313.18-.609.352-1.21.352-.603 0-.899-.171-1.212-.352-.342-.198-.695-.402-1.397-.402-.701 0-1.055.204-1.397.402-.312.18-.608.352-1.21.352s-.897-.171-1.21-.352c-.342-.198-.696-.402-1.397-.402-.103 0-.187.084-.187.188 0 .105.084.189.187.189.602 0 .898.171 1.21.352.342.198.695.402 1.397.402.702 0 1.055-.204 1.397-.402.312-.18.608-.352 1.21-.352s.898.171 1.211.352c.342.198.695.402 1.397.402.701 0 1.055-.204 1.397-.402.312-.18.608-.352 1.21-.352s.898.171 1.211.352c.342.198.696.402 1.398.402s1.056-.204 1.398-.402c.313-.18.61-.352 1.212-.352.603 0 .9.171 1.213.352.342.198.695.402 1.398.402.103 0 .186-.084.186-.188 0-.105-.083-.189-.186-.189M86.873 23.36c-.603 0-.899-.172-1.213-.353-.342-.197-.695-.402-1.398-.402-.702 0-1.056.205-1.398.402-.313.181-.61.352-1.212.352-.603 0-.899-.17-1.212-.352-.342-.197-.695-.402-1.397-.402-.702 0-1.055.205-1.396.402-.313.181-.609.352-1.21.352-.603 0-.899-.17-1.212-.352-.342-.197-.695-.402-1.397-.402-.701 0-1.055.205-1.397.402-.312.181-.608.352-1.21.352s-.897-.17-1.21-.352c-.342-.197-.696-.402-1.397-.402-.103 0-.187.085-.187.189s.084.188.187.188c.602 0 .898.171 1.21.352.342.198.695.402 1.397.402.702 0 1.055-.204 1.397-.402.312-.18.608-.352 1.21-.352s.898.171 1.211.352c.342.198.695.402 1.397.402.701 0 1.055-.204 1.397-.402.312-.18.608-.352 1.21-.352s.898.171 1.211.352c.342.198.696.402 1.398.402s1.056-.204 1.398-.402c.313-.18.61-.352 1.212-.352.603 0 .9.171 1.213.352.342.198.695.402 1.398.402.103 0 .186-.084.186-.188s-.083-.189-.186-.189M43.882 29.535c.317 0 .574-.364.574-.811 0-.448-.257-.811-.574-.811-.317 0-.574.363-.574.81 0 .448.257.812.574.812M49.448 29.013c.317 0 .574-.363.574-.81 0-.448-.257-.811-.574-.811-.317 0-.574.363-.574.81 0 .448.257.811.574.811M46.834 31.229c.083 0 .173-.007.267-.023.43-.07.692-.346.703-.358.07-.075.067-.193-.007-.265-.074-.071-.193-.068-.264.006-.002.002-.19.196-.492.245-.466.078-.74-.123-.751-.133-.082-.062-.198-.048-.261.034-.064.082-.05.2.031.264.014.011.297.23.774.23M48.075 33.168c.083-.062.1-.18.038-.264-.062-.083-.179-.1-.261-.038-1.328.998-2.85-.175-2.863-.187-.079-.068-.197-.058-.264.021-.067.08-.057.199.021.266.012.01.863.684 1.913.684.452 0 .941-.125 1.416-.482zM38.707 30.42c.123.088.262.134.399.134.08 0 .159-.015.235-.046.096-.039.142-.149.104-.245-.039-.097-.148-.144-.243-.105-.115.046-.215 0-.28-.045-.148-.107-.238-.313-.229-.525.006-.143.065-.256.162-.31.085-.047.19-.043.287.013.088.052.203.02.255-.07.05-.09.02-.206-.07-.257-.21-.12-.454-.126-.652-.016-.214.12-.343.346-.355.624-.015.342.133.667.387.848M17.195 53.105c.058 0 .115-.027.151-.079.282-.399.735-1.23.874-1.665.032-.099-.022-.205-.12-.237-.098-.031-.204.023-.236.122-.123.385-.562 1.194-.822 1.561-.06.085-.04.203.044.263.033.024.07.035.109.035M12.077 61.213c.014.003.028.004.042.004.085 0 .162-.059.182-.146.005-.024.555-2.376 2.618-4.784.315-.367.597-.704.851-1.017.065-.08.054-.199-.026-.265s-.197-.055-.263.026c-.252.31-.531.645-.844 1.01-2.129 2.483-2.678 4.847-2.7 4.946-.023.102.04.203.14.226M7.834 57.907c-.055-.088-.171-.114-.257-.058-.088.056-.114.172-.058.26 1.105 1.763 1.727 3.31 1.733 3.326.03.073.1.118.174.118.023 0 .047-.005.07-.014.095-.038.141-.148.103-.245-.007-.016-.64-1.593-1.765-3.387M5.722 55.13c-1.871-2.003-3.51-3.027-3.58-3.07-.088-.054-.203-.027-.256.062-.054.089-.027.205.06.26.017.01 1.667 1.04 3.504 3.007.293.313.564.625.805.927.037.046.09.07.145.07.042 0 .083-.014.117-.042.08-.066.093-.184.029-.265-.248-.31-.525-.629-.824-.95M47.005 67.79c-1.272 0-2.307-.934-2.307-2.081 0-1.147 1.035-2.08 2.307-2.08 1.273 0 2.309.933 2.309 2.08s-1.036 2.08-2.309 2.08m0-4.538c-1.478 0-2.681 1.103-2.681 2.458 0 1.355 1.203 2.458 2.681 2.458 1.48 0 2.682-1.103 2.682-2.458 0-1.355-1.203-2.458-2.682-2.458M58.946 49.282h.018c.095 0 .176-.073.186-.17l.138-1.44c.01-.103-.066-.195-.168-.205-.094-.01-.194.066-.204.17l-.138 1.439c-.01.103.065.196.168.206" transform="translate(-41.000000, -55.000000) translate(41.000000, 55.000000) translate(0.000000, 3.416667) translate(0.000134, 0.000000)"/>
                        <path d="M30.13 76.629L26.76 55.61c-.076-.474.057-.956.365-1.322.31-.366.759-.576 1.235-.576H65.65c.476 0 .926.21 1.235.576.308.366.442.848.366 1.322L63.88 76.629h-33.75zm-4.709-2.378c-2.176-.97-3.087-3.117-2.634-6.21.217-1.486.717-2.951 1.177-4.076 1.322 1.023 2.735 1.782 4.134 2.352l1.32 8.234c-1.522.115-3.098.1-3.997-.3zm-4.517-14.092c.695-.981 6.02-8.478 9.373-12.845 3.452-4.495 5.394-6.885 8.426-7.827 1.994-.619 3.228-.91 4.397-1.05-.159.191-.313.307-.316.31l-.161.117.124.155c.05.062 1.235 1.495 4.073 1.495l.169-.001c3.172-.063 3.936-1.883 3.967-1.96l.028-.072c2.11.24 3.926.803 6.008 2.048 2.307 1.38 3.486 3.369 4.735 5.474.434.732.882 1.489 1.391 2.244.773 1.147 2 3.172 3.205 5.208-.213-.077-.44-.118-.672-.118h-6.947c.027-.03.047-.066.05-.108l.22-2.28c.01-.104-.066-.196-.169-.206-.094-.007-.193.066-.203.17l-.22 2.28c-.005.055.015.105.05.144H33.755c.006-.021.01-.043.008-.065l-.304-3.76c-.008-.104-.092-.18-.202-.173-.102.009-.179.1-.17.204l.304 3.76c0 .012.006.022.009.034h-5.04c-.586 0-1.14.258-1.52.708-.378.45-.543 1.043-.449 1.626l1.637 10.206c-2.577-1.085-5.18-2.828-7.124-5.718zM43.77 35.835c.815.469 1.723.714 2.7.714.093 0 .187-.002.28-.006 1.12-.053 2.133-.39 3.006-.954v1.354c0 .94.506 1.42.78 1.61-.24.407-1.12 1.534-3.556 1.582-.053.002-.105.002-.157.002-2.148 0-3.294-.881-3.657-1.223.211-.196.557-.587.631-1.097.036-.242.012-1.095-.027-1.982zm-6.175-7.548c.253-.288.625-.457 1.048-.477.43-.021.873.078 1.282.283l.08.04.064-.03c-.05.223-.078.454-.078.692 0 1.749 1.41 3.172 3.144 3.172 1.732 0 3.143-1.423 3.143-3.172 0-.384-.072-.75-.196-1.09.003-.002.006-.001.01-.003.005-.004.594-.37 1-.045.012.01.026.014.04.02-.02.147-.035.297-.035.45 0 1.749 1.41 3.172 3.143 3.172.896 0 1.703-.383 2.277-.992-.583 3.446-2.791 5.718-5.784 5.86-2.615.129-4.753-1.623-5.855-4.793l-.063-.183-.18.07c-.511.2-1.473.245-1.943.09-.503-.166-1.361-.628-1.454-1.865-.036-.478.088-.892.357-1.199zm2.926-.41c.494-.256 1.455-.775 3.13-1.747.033-.019.064-.04.096-.06 1.233.283 2.157 1.396 2.157 2.725 0 1.541-1.242 2.795-2.77 2.795-1.526 0-2.77-1.254-2.77-2.795 0-.322.058-.63.157-.918zm4.521-2.823c.016 0 .032 0 .048-.005.284-.087.486.134.496.145.037.042.089.064.14.064.044 0 .087-.015.123-.046.078-.068.086-.187.018-.266-.01-.012-.187-.205-.467-.27 1.033-1.166 1.624-2.481 1.884-3.165.271.602.815 1.698 1.544 2.617-1.048-.007-1.425.705-1.442.738-.046.092-.01.204.08.252.028.014.057.021.086.021.067 0 .132-.036.166-.1.014-.026.346-.63 1.323-.522.034.004.067-.006.099-.022.168.186.344.36.527.514-1.185.222-2.137 1.116-2.454 2.275-.52-.313-1.117-.018-1.28.074-.367-.726-1.002-1.29-1.774-1.56.32-.228.616-.479.883-.744zm7.386 1.365c.363.473.582 1.064.582 1.707 0 .447-.107.867-.292 1.242l-.083.005-.015.16c0 .007-.002.014-.003.02-.484.818-1.367 1.369-2.377 1.369-1.527 0-2.77-1.254-2.77-2.796 0-1.497 1.173-2.72 2.64-2.789 1.427.984 2.219 1.074 2.318 1.082zm.855-.685c.22 0 .433.169.603.475.189.342.293.8.293 1.29 0 1.06-.495 1.612-.958 1.777-.02.007-.04.01-.06.017.142-.362.222-.755.222-1.167 0-.738-.253-1.416-.673-1.956.179-.275.324-.436.573-.436zM67.62 55.67v-.005c1.17 2.003 2.126 3.675 2.335 4.04-.128.348-.85 1.977-3.653 4.184l1.318-8.219zm3.078 10.457c1.432 4.027-.107 5.654-1.026 6.627-.496.524-2.8 1.192-5.07 1.74l1.613-10.06c1.283-.973 2.181-1.847 2.796-2.568.479 1.091 1.074 2.536 1.687 4.26zM8.272 76.69l-1.064-7.104h9.454l-1.064 7.104H8.272zm-1.498-7.481h-.357c-.192 0-.347-.157-.347-.35v-2.457c0-.193.155-.35.347-.35H9.83l.714.042v-.042h6.91c.191 0 .346.157.346.35v2.457c0 .193-.155.35-.346.35H6.774zm2.493-7.23c-.638-.733-1.883-1.716-4.188-2.241-1.695-.386-3.736-1.768-3.912-4.393-.15-2.24-.3-3.3-.606-4.151.89.042 3.703.263 5.507 1.404 1.908 1.207 3.133 3.019 3.64 5.384.377 1.753.449 6.603.46 7.693H9.98c0-.676-.047-2.932-.713-3.697zm2.24-3.964c.064-1.908 1.24-3.725 3.308-5.117 1.619-1.09 3.054-2.67 3.63-3.342.162 1.178.534 4.627-.315 6.634-.81 1.917-2.403 2.995-3.808 3.945-.408.276-.793.537-1.153.81-1.485 1.133-1.552 3.92-1.541 4.673l-.123.008c-.01-1.04-.057-5.864.002-7.61zm65.13 18.708H64.245l.293-1.825c2.283-.545 4.818-1.263 5.405-1.883 1.266-1.34 2.501-3.096 1.108-7.015-.65-1.825-1.28-3.34-1.774-4.457.86-1.086 1.05-1.76 1.062-1.81l.02-.075-.038-.067c-.025-.043-1.26-2.21-2.736-4.73-.073-.297-.212-.577-.414-.817-.052-.062-.11-.12-.168-.174-1.318-2.238-2.721-4.568-3.575-5.835-.502-.746-.949-1.498-1.38-2.225-.276-.466-.55-.925-.831-1.375.583-.364 1.006-.78 1.224-1.235.218-.456.23-.927.034-1.401-.255-.619-.782-1.057-1.29-1.48-.763-.634-1.219-1.058-1-1.75.141-.444.388-.903.65-1.39.567-1.051 1.21-2.244.904-3.631-.367-1.668-1.951-2.087-3.35-2.457-.469-.124-.913-.242-1.295-.399-.41-.169-.694-.455-.841-.85-.232-.621-.103-1.482.364-2.424.89-1.797.554-2.96-1.16-4.01-1.484-.909-1.734-2.104-2.112-3.913l-.04-.193c-.426-2.024-.93-3.364-2.13-3.788-1.008-.356-2.257.331-2.702.61-.344-.511-1.522-1.946-3.706-1.544-1.474.27-2.413 1.216-3.407 2.217-.789.794-1.604 1.615-2.788 2.263-.378.206-.733.394-1.067.57-2.124 1.12-3.407 1.798-3.563 3.75-.106 1.311.19 1.795.45 2.222.178.29.33.539.352 1.045.05 1.167-1.168 2.084-2.493 2.9-.597.369-.965.988-.985 1.658-.024.809.465 1.607 1.377 2.249 1.153.81 1.673 1.452 1.69 2.08.014.596-.428 1.237-1.353 1.96-2.999 2.346-2.931 4.195-2.347 5.333.38.74.9 1.292 1.36 1.685-.621.77-1.281 1.622-2.01 2.572-3.579 4.66-9.4 12.88-9.458 12.962l-.075.106.072.109c.922 1.396 1.992 2.534 3.137 3.465-.48 1.16-1.012 2.697-1.24 4.26-.48 3.279.507 5.565 2.852 6.61.656.292 1.623.396 2.668.396.505 0 1.026-.028 1.54-.067l.29 1.798H15.97l1.069-7.137h.414c.397 0 .72-.326.72-.727v-2.457c0-.401-.323-.727-.72-.727h-5.451c-.01-.571.013-3.377 1.392-4.429.35-.267.732-.525 1.135-.798 1.449-.98 3.09-2.09 3.944-4.11 1.073-2.539.311-7.062.278-7.253l-.07-.411-.26.325c-.017.022-1.769 2.209-3.814 3.585-2.172 1.461-3.406 3.386-3.474 5.419-.06 1.78-.012 6.735-.002 7.672h-.59c-.011-1.103-.079-5.958-.469-7.773-.522-2.433-1.838-4.378-3.806-5.623-2.247-1.421-5.83-1.47-5.982-1.472L0 50.805l.111.264c.361.862.52 1.867.683 4.302.157 2.33 1.806 4.188 4.202 4.735 2.208.503 3.388 1.431 3.99 2.121.522.599.624 2.545.62 3.448h-3.19c-.397 0-.72.326-.72.727v2.457c0 .4.323.727.72.727h.414l1.07 7.137H5.31c-.104 0-.187.084-.187.188 0 .105.083.189.187.189h71.328c.103 0 .186-.084.186-.189 0-.104-.083-.188-.186-.188z" transform="translate(-41.000000, -55.000000) translate(41.000000, 55.000000) translate(0.000000, 3.416667) translate(0.000134, 0.000000)"/>
                    </g>
                    <g fill="#FFF">
                        <path d="M4.446 6.739c.016-.02.029-.015.037-.008-.008.007-.019.016-.031.029l.001.007c-.003-.01-.007-.02-.007-.028m.473.13c-.016.009-.035.022-.056.036-.014-.013-.02-.032-.007-.04 0 .015.036.004.063.004m-.126.087l-.029.024.029-.024M3.345 8.088c.068-.04-.004-.079-.01-.122.069-.066.063.022.109.036.04-.047.044-.126.082-.147.01.008.019.008.018.025.023-.08.154-.1.177-.198.008.002.014.006.017.01-.028-.024-.048-.054-.06-.077.029-.02.031-.073.067-.04-.019.01-.01.027-.012.044l.02-.037c.064.039-.03.047-.004.089.05-.057.09-.149.147-.162.044.048-.097.087-.004.097l-.085.025c.109.051-.047.021.06.082.105-.044.089-.096.193-.14.002-.044-.036-.04-.034-.085.098-.14.192.07.243-.067.002-.053-.032-.129.06-.138l.016.077c.095-.053-.006-.122.116-.143-.001.035-.058.067-.04.065.094.008.021-.063.068-.094l.045.048c.09-.074.17-.184.269-.265.005.02-.002.05.034.05.115-.118.287-.19.437-.245l.017-.08c.012-.008.035.006.029.023.062-.016-.017-.031-.006-.066.026-.023.056.001.047.028.061-.1.19-.26.317-.276l-.009.027c.085-.032.015-.152.111-.156l-.007.017c.17-.091.304-.27.474-.294-.029-.08.177-.09.11-.188.117-.033.107.004.248-.075.034-.025-.002-.095.028-.139l.04.043.01-.093.076.026.025-.044c-.017.01-.049.008-.058-.006.039-.069.16-.099.182-.08l.087-.167c.014.02 0 .047-.006.076.022-.113.057.03.077-.073-.018 0-.021-.029-.029-.039.056-.007.124-.08.163-.145l.02.038c.103-.089.166-.23.262-.343-.048.03-.094-.025-.072-.063l.059.026c-.012-.047-.047.02-.047-.055.04-.038.078.016.074.054l.026-.067c.016.009.014.027.03.046-.013-.046.122-.053.095-.126l.017.008c.09-.12.11-.189.18-.29-.043-.033-.006-.065-.02-.12.065-.062.16-.117.211-.211.018-.079-.026-.044-.034-.09.043.022.097-.07.096-.005.063-.113.081-.144.134-.302-.026.004-.044.016-.053-.001.01-.029.052-.047.07-.03v.009c.027-.195.334-.294.314-.472l.001.01.023-.16c.039-.057.013.054.063.023.001-.183.131-.222.139-.368.171-.032.15-.336.286-.427l-.034-.007c-.016-.046.035-.032.052-.053-.025-.007-.043.024-.05-.004.041-.15.115-.29.191-.43l.12-.211c.024-.051.022-.029.03-.034.005.001.009.005.012.008.003.019-.11-.214-.048-.15l.03.104c-.02-.104.007-.115.012-.15.004-.01.009-.003.018-.037-.003.033-.006.081-.007.077-.003.122.007.027.021-.041.003.018-.008.071-.013.113-.01.051.03-.083.013-.001l-.01.026c.012-.03.004.025.032-.048-.008.05.037.031.021.078.027-.013.027.007.028.02.002.017.016.054.056.042-.082.026-.009.163.048.197-.03-.006-.008.054-.049.048.024.057.06.102.097.075-.051.144.163.176.066.286.113.149.21.289.294.43-.08.03-.08-.162-.16-.118.094.127.199.177.244.324.006.041-.043-.004-.061-.01.095.125.118.275.221.377-.007.003-.021-.006-.033-.016.014.023.016.063.05.042l-.021-.019c.031-.064.152.044.181.034-.12.01.035.134-.123.133.014.013.04.025.062.009.005.027-.005.042-.043.031.061.078.084.027.123.106-.017.008-.031-.004-.055-.002.053.022.106.045.127.118-.012.001-.021.016-.032-.004.066.11.184.147.224.284-.092.005 0 .055-.059.097l.056.055.015-.044c.031.059.105.083.113.144l-.05-.028.073.1-.011-.074c.063.04.073-.052.1.034-.017-.011.032.056.014.107.037.016.074.032.085.082-.013.023-.072.034-.08.048.066-.004.095.123.169.123-.02-.003-.051.017-.055.025l.054-.004c.003.034 0 .042-.028.054.042.083.058-.073.087.039-.008-.005-.012.002-.028-.008.045.102.145.156.182.253-.041.066-.064-.063-.094 0 .09.116.245.194.319.315l-.01-.025c.09-.049.025.114.105.14-.016-.009-.056.018-.045.015.048.086.152.133.271.22l-.03.004c.02.06.09.122.127.172.03-.006.052.021.064-.02.03.24.308.191.347.394-.015-.013-.05-.015-.039-.004l.12.079c.021-.04.004-.033.005-.079.03-.007.073.005.1.027-.067-.02-.047.054-.043.09.006-.012.023-.017.03-.03.004.11.068-.058.108.049l-.019.014c.036.016.082.015.108.047-.02.05-.045-.008-.075.022.045.036.147 0 .154.071-.027-.004-.054-.026-.082-.03.005.082.02.074.046.109l-.002-.004.057.083-.008-.028c.138-.058.127.074.257.064-.124.008-.042.028-.083.07.01.028.029.066.01.072.065-.01.038.078.13.062-.008.017.04.031.003.062.057.024.008-.034.026-.05.11.003.129.193.289.196.113.036.166-.008.27.023.013.045-.06.042-.06.042.032.055.073.073.13.082-.018.009-.016.027-.012.053.04.019.059-.043.095.01-.019.013-.047.036-.075.043.053.011.115.006.169.017-.003.036-.052.028-.078.037.059.018.152.049.19.011l-.025-.034c.02.008-.01.045-.029.046-.064.011-.057-.05-.05-.069l.038.007c.018-.114-.14-.057-.203-.103l.068-.052-.1.017c-.004-.027.01-.07.048-.062-.026-.061-.056 0-.072-.062 0-.009.003-.01.01-.01l-.057-.009c.017-.009.023-.052.043-.025-.053-.09-.159-.032-.155-.103h.01c-.122-.051-.043.043-.162.043l.028-.157-.044.041c-.01-.01-.029-.029-.011-.045-.064.003-.008.026-.053.04-.021-.082-.159-.087-.115-.17-.045.021.03.064-.045.047.044-.092-.073-.036-.092-.11.046-.029.073.028.055-.046-.082.047-.08-.085-.128-.103-.044.053-.1-.047-.18-.083.02-.014-.095-.13-.136-.202l.01-.007c-.057.043-.109-.02-.162-.048.03-.03.048-.036.084-.029l-.041-.036c-.025.008-.045.005-.076-.013l.045-.03c-.055-.047-.149-.054-.194-.144-.037.032-.037.151-.133.107.015-.022.044-.058.07-.048-.009-.003-.037-.004-.042-.025l.06-.005c-.019-.044-.042.012-.064-.015.025-.027 0-.037.023-.055.01.003.011.032.031.03-.023-.032-.041-.081-.032-.113-.013.018-.035.037-.059.021-.054-.05.014-.05-.003-.094-.03.006-.045-.046-.085-.006-.015-.016 0-.037.005-.054-.046-.008-.128-.12-.14-.047l.003.01-.006-.003c-.123-.053-.148-.212-.247-.286l.014-.012c-.06-.044-.11-.12-.173-.136-.013-.018-.004-.062.019-.069-.045-.035-.066-.028-.09-.11.06.025.01-.033.053.03-.032-.066-.017-.096-.102-.13.054-.007.018-.081-.013-.101l.001.062c-.027-.028-.043-.059-.06-.09l.063-.02c-.02-.165-.26-.147-.21-.316-.058-.009.016.086-.046.084-.03-.063.01-.172 0-.19-.02-.098-.125-.025-.156-.122-.013.022-.06.065-.114.011-.027-.064.04-.122.076-.094.01.014.008.024 0 .028.019.015.041.035.049 0l-.024.003c.003-.042-.045-.122-.002-.122-.045-.034-.043 0-.034.039-.015-.093-.067-.12-.093-.21-.003.019-.02.043-.027.03-.04-.129-.067-.028-.119-.103.007-.063.08-.024.013-.09-.005-.061.047-.04.074-.03-.077-.052-.047-.15-.061-.195l.036.03c-.022-.018-.031-.037-.041-.056l-.029.043c-.004-.026-.014-.045.002-.053-.038-.01-.056.053-.117.025.005-.04-.07-.08-.022-.12.031.106.048-.037.099.039-.015-.013-.025-.031-.03-.058.005-.006.013-.002.02.002.002-.116-.081-.01-.127-.107.036-.003.046-.051.032-.064.018.04-.04.045-.081.02-.007-.072-.05-.057-.064-.09l.007.042c-.036.002-.047-.03-.078-.069.022-.015.036.031.039.01-.077-.02.001-.134-.065-.184.007-.04.056-.03.057-.064-.074-.056.005-.101-.065-.164-.03.042-.018.041-.084.004l.089.116-.098-.055c.018.04.064.07.068.098-.052-.024-.04-.025-.065.01.037-.083-.086-.09-.073-.171l.103-.046c.002-.114-.127-.143-.155-.276v.047c-.048.002-.04-.073-.073-.105.036-.012.037-.042.051-.068-.024.013-.036-.09-.109-.072l.022-.075c-.022-.107-.145-.071-.174-.172.05.013.056-.041.11.012-.013-.032-.019-.064-.043-.054.013-.028-.083-.07-.062-.113-.02-.007-.059.003-.07-.034.005-.007.017-.007.017-.007-.017.007-.046-.047-.072 0 .07-.136-.118-.276-.09-.485-.047-.087-.097-.194-.131-.28.007-.013.008-.032.013-.007-.033-.2-.071.124-.1-.077-.009-.207.034 0 .026-.093.016-.143-.005-.19-.028-.224C9.47.306 9.445.29 9.43.132l.01.006c-.02-.149-.057-.15-.083-.126-.007.05-.016.093-.025.118 0 0 0-.042-.003-.061-.017.307-.053.51-.077.653-.01-.14.005-.11-.022-.196-.013.07.037.167.015.284-.02-.027-.055.003-.088-.071l.032-.115c-.052-.068-.043.153-.066.187l-.016-.05c-.05.205.002.275-.055.423h.024c.037.117-.062.049-.038.146l-.077-.008c.004.048.013.169-.002.247-.036-.062-.028-.157-.04-.222-.015.04-.047.138-.021.173 0-.019-.01-.046.007-.058.036.071.037.147.004.227-.126-.07-.12.193-.248.205-.008.162-.14.265-.208.427.128-.007-.02.048.09.09-.01.04-.02.053-.028.053l-.116.081c-.044.011-.005-.046-.03-.054-.05.075-.061.01-.116.049.043.008.039.055.001.093l.08-.04c-.002.14-.135.05-.138.192l-.014-.053c-.01.068-.11.21-.062.31-.017.003-.052 0-.045-.028-.09.125-.083.351-.197.422l-.018-.024c-.008.028.019.07-.025.085-.009-.008-.017-.025-.026-.015 0 .019 0 .092-.033.115l-.01-.045c-.112.105-.057.239-.112.355-.069-.047-.16.033-.205.072L7.44 3.97c-.111.134-.11.287-.19.431-.134.02-.24.242-.383.33.028-.008.046.046.033.073-.038.016-.028.116-.08.06l.01-.009c-.076-.03-.113.04-.155.082l.066.077c-.207.018-.251.339-.407.3-.01.044-.045.075-.057.12l-.034-.042c-.087.06-.124.096-.218.186l-.004-.046c-.059.041.027.177-.026.222l-.066-.05c-.1.08-.242.101-.299.239-.005-.011-.015-.033 0-.048-.05.035-.226.093-.144.172-.042-.059-.114.072-.154.14l-.021-.051c-.01.09-.001.107-.059.17-.02.007-.038-.024-.009-.028-.07.015-.013.071-.095.093l.005-.045c-.057.035-.043.047-.051.102-.024.042-.114.062-.15.027.01.03.001.084-.04.095-.014-.012-.008-.03-.005-.038-.114.034-.104.147-.198.148-.011-.014-.02-.019-.028-.02.075-.049.136-.088.133-.081-.028-.041-.092-.007-.083-.096-.027.064-.065.187-.136.207-.006-.001-.011-.003-.018-.008l.004-.01c-.017.006-.026.018-.033.033-.023.005-.039.008-.057.02-.029-.03-.08.028-.112.047.032.043-.012.063.05.075-.008 0 .001-.01.02-.025.004-.004.008-.008.01-.013v.005l.073-.053c-.009.039-.02.075-.07.072.003.04.006.08.005.101-.082-.035-.183-.015-.22-.047-.076.086-.206.16-.21.284-.02.028-.046-.005-.064-.012.01-.018.028-.03.029-.047-.039.057-.15.111-.126.179-.083.016.003-.08-.082-.01v-.027c-.239.02-.198.342-.476.344.02-.001.028-.002.037.006-.262.09-.445.345-.726.392-.076.02-.06.063-.084.117l-.043-.043-.035.098c-.075.098-.237-.028-.318.12l.035.026c-.049.018-.132.098-.145.054-.001.008.004.043-.023.035l-.015-.027-.087.105c-.096.024-.04-.114-.168-.056-.041.034-.093.143-.068.153.019-.007.056-.006.07.021l-.036.036c.028.084.03.185.17.187l.052-.087.044.027-.063.034c.054.019.061-.025.076-.06.016.017.034.026.052.026l.036-.114c.024.026-.002.079.056.07.016-.053-.068-.052-.024-.105.054.017.06.052.085-.001.016.017.014.035.002.053.025-.045.093-.064.09-.116.06.024.117-.08.154-.003.002-.024.032-.095.064-.117-.012.124.128-.065.164.039.001-.106.144-.129.198-.22-.001.009-.003.027-.012.027.048-.02.075-.004.112-.006-.032-.068.03-.124.043-.186.09.03.011.095.063.145-.033-.05.064-.108.02-.141.064.013.047-.003.1.037-.04-.085.03-.037.035-.107.084.003.06.066.112.001.046.006.004.07.004.07M2.668 14.909c.008.009-.002.012-.013.015-.001-.005-.003-.01-.007-.016h-.007.027m-.359.152v-.024c.018-.004.037-.003.037.003-.013-.002-.022.012-.037.021m-.24-.705c.002.029.07.003.11.003.024.03-.049.023-.083.04.022.019.088.025.087.042-.011.002-.015.006-.03.005.058.014.012.066.085.082-.006.003-.011.005-.017.006.035-.009.07-.014.095-.017.003.013.048.019.003.03 0-.009-.018-.007-.033-.009l.022.011c-.064.021-.026-.015-.074-.009.025.024.083.047.067.07-.064.012-.027-.044-.08-.01l.02-.035c-.098.037.004-.02-.1.017-.013.042.037.041.023.084.037.005.052-.01.089-.004.07.05-.156.064-.066.097.044.006.125.002.086.037l-.074-.003c-.003.04.107.012.062.059-.029-.005-.027-.03-.035-.023-.054.033.043.016.045.036l-.063.01c.013.042.063.085.078.131-.02-.001-.04-.007-.059.005.037.057.002.127-.033.186l.057.018c0 .005-.025.011-.036.006-.02.023.035 0 .058.01.004.012-.032.017-.049.01.049.037.106.108.047.152l-.017-.008c-.02.033.116.033.065.065l-.01-.006c-.02.07.03.148-.055.202.08.01-.037.069.075.074-.056.04-.076.028-.113.084-.005.014.07.023.081.042h-.058l.06.026-.07.012.014.017c.004-.006.028-.014.045-.012.024.028-.045.065-.075.064l.046.067c-.024-.003-.031-.014-.045-.023.057.037-.062.003-.01.037.014-.004.035.004.047.005-.036.014-.039.049-.025.076l-.04-.007c-.013.046.014.1.01.154.02-.018.09-.008.094.009h-.062c.037.014.025-.014.07.011-.01.02-.072.007-.09-.006l.018.026c-.018 0-.028-.007-.05-.01.036.013-.067.035-.002.056h-.019c-.006.051.013.078.011.12.053.008.04.023.081.041-.02.03-.066.06-.065.099.023.03.043.014.073.03-.047-.004-.05.034-.08.01 0 .046 0 .059.029.123.02-.004.03-.01.046-.003.006.012-.024.02-.047.015l-.005-.003c.061.078-.164.124-.073.193l-.004-.004.043.064c-.014.022-.033-.022-.066-.01.066.073-.033.086.01.144-.149.004-.021.13-.121.157l.033.005c.03.021-.022.01-.032.018.026.005.033-.006.049.006.016.119-.112.202-.171.297-.02.036.159.078.067.101l-.055-.034c.05.105-.058.155-.028.253-.012-.01-.03-.017-.026-.024-.049-.001-.025.057.01.071-.01.01-.033-.01-.054-.01-.03.005.038.062-.007.053-.007-.002-.011-.01-.014-.014.017.018-.024.045.028.056-.034.018 0 .063-.037.073.049.04-.046.034.027.073-.077-.038-.085.014-.057.05-.02-.018-.031 0-.06-.022-.008.018-.002.043.038.06-.106-.016.038.11-.09.063.009.076.004.143-.01.203-.07-.05.027-.058-.05-.105.003.064.046.132-.003.164-.018.005-.026-.028-.035-.04-.003.065-.067.08-.058.149-.006-.006-.01-.015-.013-.023-.003.01-.022.01.01.033l-.004-.014c.055.022.071.104.093.124-.078-.083-.053.02-.148-.088.002.01.012.027.033.043-.012.002-.025-.005-.043-.031-.005.04.035.057.015.08-.015-.011-.016-.02-.032-.038.019.036.037.072.008.083-.008-.008-.02-.016-.015-.022-.024.04.026.126-.036.14-.051-.065-.031-.005-.086-.05l-.002.034.033.015c-.017.017.008.068-.023.068l-.01-.033-.02.043.037-.001c.011.043.068.059.032.07 0-.01-.016.017-.055-.002.008.024.017.05-.008.05-.02-.012-.054-.057-.068-.065.036.05-.026.052.009.107-.007-.014-.034-.04-.04-.044l.027.04c-.018-.002-.025-.006-.045-.028-.03.018.072.055.017.057-.001-.005-.007-.01-.008-.019-.042.015-.031.078-.074.087-.058-.043.01-.035-.04-.07-.029.047-.019.139-.067.163l.012-.001c.065.078-.062-.01-.047.043-.001-.01-.033-.047-.026-.037-.036.013-.035.067-.053.127l-.013-.024c-.03-.003-.049.027-.073.034.012.024 0 .03.031.052-.148-.064-.047.148-.173.096.005-.005-.002-.03-.006-.026l-.024.053c.032.031.023.016.053.035.012.024.014.05.004.059 0-.039-.046-.055-.07-.067.01.01.018.023.027.033-.071-.043.053.071-.009.055l-.013-.02c-.003.019.006.05-.01.055-.037-.035-.003-.028-.03-.06-.013.015.03.101-.017.074-.002-.017.008-.026.005-.042-.053-.033-.045-.02-.063-.017h.002l-.045.002.017.006c.064.121-.026.054 0 .144-.023-.086-.024-.04-.058-.088-.017-.007-.04-.012-.046-.027.015.047-.045-.012-.021.057-.012-.014-.015.01-.04-.03-.008.025.023.023.036.042.013.072-.109-.012-.094.087-.01.054.021.11.008.158-.028-.016-.032-.06-.032-.06-.033-.01-.043.004-.046.033-.006-.016-.018-.024-.035-.037-.01.013.032.06-.002.051-.009-.019-.025-.048-.03-.07-.006.025 0 .065-.006.09-.023-.024-.02-.047-.026-.068-.01.024-.028.057-.004.103l.022.006c-.005.007-.03-.033-.03-.044-.008-.044.032-.002.044.013l-.004.018c.075.08.035-.048.06-.06l.038.072-.016-.07c.017.012.047.046.043.063.04.02-.002-.033.038-.008.005.004.007.008.007.011l.002-.03c.007.015.036.042.02.04.056.016.01-.082.056-.042v.005c.024-.052-.03-.05-.043-.127l.107.1-.031-.05c.005-.001.015-.004.028.016-.009-.044-.018-.018-.032-.055.052.027.037-.062.099.008-.02-.04-.04-.012-.038-.053.067.074.013-.033.058-.01.027.044-.007.036.04.058-.044-.077.046-.012.05-.037-.042-.055.014-.05.024-.088.013.02.07-.01.109-.01l.006.01c-.04-.057-.008-.067 0-.093.026.033.033.049.036.07l.016-.013c-.01-.02-.014-.034-.008-.05l.03.044c.019-.02.002-.084.052-.081-.03-.039-.11-.085-.104-.134.019.019.05.052.049.067 0-.005-.006-.025.007-.02l.017.043c.025.004-.017-.033-.005-.039.024.029.025.014.043.038 0 .005-.019-.004-.013.01.016-.005.044 0 .067.018-.015-.015-.033-.038-.029-.049.02-.02.037.028.063.031-.013-.024.018-.016-.019-.058.007-.006.025.013.038.022-.006-.028.045-.051-.007-.085H.896v-.003c-.003-.074.094-.043.112-.094l.013.014c.005-.036.036-.053.022-.097.006-.005.038.011.051.03.006-.025-.007-.042.037-.041.007.038.025.015 0 .032.032-.007.058.01.043-.048.026.041.058.028.057.008l-.038-.01c.006-.016.018-.023.03-.03l.04.05c.095.013-.022-.167.1-.109-.02-.042-.043.001-.071-.045.024-.013.109.03.115.024.051-.002-.044-.089-.001-.1-.02-.012-.067-.05-.065-.086.024-.014.092.04.094.065-.002.006-.01.003-.015-.002 0 .012 0 .027.025.036l-.015-.018c.026.006.049-.024.07.008-.002-.03-.021-.032-.04-.029.047-.003.036-.04.076-.051-.013-.004-.036-.018-.032-.022.055-.02-.018-.045-.002-.078.039.007.058.06.058.013.032-.002.049.035.058.054-.013-.054.06-.029.078-.039l.003.026c-.002-.016.004-.022.01-.029l-.042-.021c.013-.003.018-.01.033.003-.017-.027-.064-.042-.082-.084.026.004.006-.047.056-.013-.043.02.05.034.035.069-.002-.01.004-.017.016-.02.007.003.01.009.01.013.068.002-.04-.057-.013-.089.022.025.056.032.055.022-.012.013-.05-.028-.06-.056.036-.006.001-.036.012-.045l-.02.005c-.023-.025-.012-.033-.01-.055.022.015.005.025.018.027-.036-.053.076-.002.061-.05.027.003.052.037.072.036-.017-.052.058-.002.05-.052-.044-.017-.036-.01-.058-.055l-.007.065-.033-.068c-.01.014.003.046-.01.05-.02-.036-.011-.028-.047-.043.07.02-.006-.06.047-.055l.092.064c.065-.006-.009-.094.043-.123l-.025.004c-.034-.03.011-.031.005-.056.03.022.048.02.072.026-.024-.014.023-.033-.039-.075l.055.005c.04-.027-.07-.097-.04-.126.03.03.062.026.075.065.007-.012.019-.02-.004-.033.024.004-.027-.058.01-.052-.012-.013-.046-.033-.037-.045.008.002.017.009.017.009-.017-.009-.012-.033-.055-.04.126.015.043-.107.146-.1 0-.031.001-.069.009-.095.01.006.017.008.011.011.046-.02-.09-.063-.04-.086.065.004.023.033.049.03.116.041.003-.054.08-.053l.004.01c.047-.006-.023-.067-.002-.096l.017.007c-.05-.045-.05-.093-.059-.132.042.027.02.024.067.034-.001-.017-.075-.022-.079-.055.028 0 .056-.014.106 0l-.005.029c.068.008.008-.036.024-.047l.027.012c.004-.045-.066-.07-.047-.113l-.023-.002c-.063-.047.046-.008.001-.048l.074.015c-.012-.022-.052-.078-.056-.11.048.031.064.074.09.105.005-.016.011-.057-.022-.076.005.009.02.022.007.025-.05-.037-.07-.07-.059-.101.139.046.06-.073.174-.067-.039-.072.049-.11.056-.18-.115-.002.002-.02-.112-.043-.004-.018 0-.023.007-.023l.079-.032c.035-.004.021.02.047.025.017-.032.051-.004.087-.02-.042-.005-.055-.025-.035-.042l-.059.017c-.05-.061.106-.022.056-.083l.033.022c-.017-.03.016-.094-.071-.135.014-.002.046-.003.052.01.024-.059-.075-.151-.01-.189l.027.01c-.006-.013-.05-.029-.019-.038.011.002.027.009.03.004-.009-.008-.044-.038-.026-.05l.03.017c.047-.054-.064-.102-.078-.153.083.01.115-.033.13-.054l.013.002c.017-.069-.056-.126-.083-.192.097-.032.05-.131.104-.192-.016.009-.065-.006-.073-.018.018-.014-.055-.044.021-.037l-.002.005c.076-.007.058-.04.06-.063l-.099-.01c.149-.056-.043-.165.086-.195-.025-.016-.025-.035-.05-.05l.054.001c.014-.042.021-.063.009-.115l.038.01c.004-.03-.154-.037-.158-.064l.08-.008c0-.05.072-.104-.004-.153.012 0 .035.001.039.01.001-.025.05-.096-.06-.084.073-.002.006-.053-.026-.079l.053.003c-.069-.021-.087-.021-.107-.052.007-.008.042-.01.03.002.026-.027-.052-.018-.025-.05l.034.01c.004-.027-.014-.024-.054-.036-.021-.015.01-.05.058-.057-.03-.001-.07-.013-.057-.03.018-.003.03.002.035.005.033-.047-.066-.061-.016-.095.017-.002.026-.004.03-.007.002.035.001.063-.003.06.049-.003.055-.032.124-.014-.038-.02-.12-.053-.1-.082l.017-.005.005.002c.005-.006 0-.012-.009-.017.008-.009.013-.015.013-.024.04-.006.02-.034.02-.048-.053.006-.046-.013-.088.008.003-.003.006.002.01.011.001.002.002.004.005.005H2.6l.006.034c-.028-.008-.052-.018-.023-.036l-.088-.012c.073-.025.11-.066.155-.076-.034-.04-.03-.1-.133-.115-.014-.01.027-.017.042-.023.01.006.01.014.025.016-.028-.02-.018-.07-.088-.068.028-.034.066.01.05-.03l.022.003c.102-.098-.195-.11-.065-.22-.008.007-.011.01-.023.014.05-.114-.092-.202-.01-.322.014-.033-.03-.028-.067-.039l.055-.017-.07-.017c-.056-.032.123-.103.022-.138l-.037.016c.003-.021-.035-.056.009-.063-.008 0-.04.003-.023-.01l.03-.007-.062-.035c.013-.042.118-.023.11-.079-.016-.017-.1-.037-.117-.023 0 .008-.012.026-.041.034l-.02-.014c-.086.02-.176.034-.226.088l.06.015-.04.02-.008-.023c-.036.023 0 .023.027.027-.022.008-.036.016-.043.024l.089.009c-.033.01-.07.002-.084.026.04.005.072-.03.102-.014-.036.023-.068.027-.031.036-.022.007-.037.007-.048.002.03.01.02.037.067.035-.045.025.024.047-.059.063.02 0 .07.013.076.026-.103-.005.004.053-.102.067.092.001.053.059.107.083-.007 0-.022-.002-.018-.005-.004.02-.03.03-.045.045.074-.01.095.015.143.023-.067.036-.088.001-.155.02.06-.011.066.03.114.014-.04.025-.018.018-.077.037.092-.012.018.014.077.02-.042.032-.085.02-.053.043-.026.018-.062-.002-.062-.002M5.275 22.542c.015.001.013.012.009.023-.006-.003-.014-.006-.024-.008l-.004.005c.006-.008.013-.015.019-.02m-.04.416c-.009-.008-.02-.016-.033-.023.007-.018.02-.032.027-.026-.01.007.002.028.006.049m-1.04-.624c.034.036.066-.033.102-.054.054.026-.019.056-.03.095.038.013.102-.014.119.007-.007.01-.006.017-.02.023.063-.013.084.073.163.05l-.007.017c.018-.031.041-.06.059-.077.016.013.058-.009.033.031-.008-.009-.021.004-.035.011h.03c-.03.063-.038-.003-.07.034.047.013.119.003.132.04-.037.054-.072-.035-.076.039l-.022-.053c-.038.104-.02-.026-.064.08.04.06.08.026.119.086.034-.018.03-.045.063-.063.115.007-.04.175.07.149.04-.023.095-.086.109-.02l-.057.048c.048.046.091-.063.117.018-.026.017-.055-.01-.052.003.002.074.05-.016.076.005l-.031.057c.06.036.154.033.224.065-.014.014-.036.024-.031.051.1.022.169.121.235.198l.059-.033c.007.004.001.03-.012.035.023.035.019-.03.045-.042.02.006.009.04-.01.05.08-.012.207-.008.241.077l-.019.01c.038.044.1-.077.123-.01l-.013.006c.095.066.23.066.279.178.044-.07.091.077.137-.026.04.078.017.088.092.153.022.012.058-.056.09-.058l-.018.056.058-.046v.074l.03-.006c-.009-.007-.014-.033-.008-.049.05-.012.09.072.083.102l.114-.016c-.008.022-.027.024-.045.035.07-.041-.007.063.057.025-.003-.015.013-.033.017-.044.014.043.07.06.116.054l-.018.037c.073.028.165.018.25.038-.027-.025-.004-.093.022-.094l-.004.064c.024-.035-.02-.03.022-.068.03.014.007.074-.016.09l.043-.013c-.002.02-.013.027-.02.05.024-.035.054.076.09.016l-.001.018c.085.02.127.01.198.016.01-.053.036-.037.064-.077.048.024.098.074.16.079.047-.02.02-.044.044-.073-.004.05.058.054.021.084.075.003.096.004.194-.022-.007-.022-.018-.032-.01-.048.018-.006.036.026.031.05l-.005.004c.11-.054.23.163.323.069l-.005.005.09-.048c.04.011-.026.035.001.068.1-.076.149.022.229-.028.055.151.213.002.292.09l-.004-.034c.021-.033.025.02.04.027-.002-.026-.022-.03-.01-.049.178-.042.367.047.551.076.068.008.03-.175.118-.1l-.02.065c.129-.088.275-.021.4-.097-.005.015-.004.034-.017.035.032.043.103-.007.1-.044.02.002.008.033.023.051.03.025.063-.065.083-.02.003.007-.006.015-.01.02.015-.025.084-.002.06-.054.053.023.091-.038.135-.012.017-.063.088.014.083-.07.01.086.097.055.121.009-.006.028.031.022.025.06.036-.007.065-.029.051-.071.084.09.115-.105.177.02.097-.06.184-.123.271-.165.017.086-.1.035-.076.123.081-.058.114-.143.206-.145.025.005-.004.04-.008.056.08-.058.173-.037.238-.103.002.008-.004.019-.01.027.015-.007.04.003.026-.034l-.012.014c-.04-.047.026-.133.02-.164.007.117.082 0 .084.151.008-.01.015-.033.005-.057.016.002.026.015.02.049.048-.04.015-.073.064-.089.006.018-.002.028 0 .052.014-.044.026-.088.072-.088.002.012.011.024-.001.029.069-.031.086-.136.175-.13.007.086.036.016.066.082.011-.012.023-.023.033-.037l-.029-.025c.036-.014.047-.077.086-.069l-.015.04.06-.044-.047-.008c.02-.05-.039-.081.015-.084-.007.01.035-.015.07.015.008-.028.015-.058.048-.054.017.018.028.075.038.086-.007-.062.075-.052.07-.12-.001.017.015.051.02.057l-.006-.05c.022.006.028.012.038.04.053-.015-.055-.074.02-.066-.003.006.003.011-.003.022.067-.008.093-.087.155-.093.05.054-.036.04.01.084.069-.054.111-.163.19-.189l-.017.001c-.042-.093.08.014.09-.05-.005.012.018.055.014.044.056-.018.083-.087.134-.162l.006.028c.04 0 .08-.04.116-.05-.006-.027.013-.035-.02-.06.182.058.116-.193.269-.157-.009.008-.007.036 0 .03l.05-.072c-.034-.03-.026-.013-.062-.028-.009-.027-.004-.058.012-.07-.01.045.046.053.075.061-.011-.008-.017-.023-.027-.032.084.03-.053-.072.025-.073l.013.02c.008-.025.001-.061.023-.073.042.03 0 .034.026.066.023-.026-.018-.117.039-.1 0 .02-.015.034-.016.054.065.02.057.006.082-.004h-.003l.06-.02-.021-.001c-.064-.124.045-.077.019-.181.023.098.028.04.067.083.022 0 .05-.005.058.01-.017-.051.057-.009.032-.084.015.012.021-.02.052.015.013-.036-.03-.015-.045-.033-.011-.08.144-.047.124-.166.013-.077-.03-.124-.018-.191.035 0 .044.054.044.054.042-.012.052-.037.052-.075.01.014.025.017.048.02.01-.024-.047-.052-.005-.065.014.016.037.04.047.063.003-.036-.008-.08-.006-.116.031.01.032.044.043.064.007-.038.023-.097-.015-.132l-.028.01c.005-.012.042.018.045.03.019.048-.038.03-.054.021v-.026c-.102-.037-.031.085-.062.12l-.056-.06.03.075c-.023-.004-.063-.024-.06-.049-.05.004.007.04-.043.037-.007-.002-.01-.005-.01-.01l.001.04c-.01-.016-.048-.03-.028-.038-.069.016-.006.105-.065.085l-.001-.007c-.025.076.041.042.06.13l-.135-.06.04.043c-.006.004-.019.014-.035-.003.012.047.023.012.04.05-.065-.007-.05.094-.125.038.024.04.05-.004.046.047-.082-.058-.019.047-.075.041-.03-.043.01-.048-.046-.054.05.074-.056.037-.065.068.049.05-.024.063-.042.113-.014-.019-.091.036-.14.048l-.007-.01c.04.058 0 .081-.018.113-.026-.033-.033-.05-.03-.075l-.025.02c.01.022.01.037-.001.056l-.028-.045c-.03.028-.025.101-.088.108.027.04.118.079.093.142-.018-.02-.047-.054-.043-.072-.001.006 0 .029-.015.026l-.01-.05c-.03 0 .014.038-.004.047-.023-.03-.028-.012-.044-.037.002-.006.023.001.02-.016-.022.01-.056.008-.08-.009.015.016.03.04.021.055-.03.029-.037-.027-.068-.028.007.027-.031.02.002.066-.01.007-.028-.013-.04-.023-.004.032-.079.063-.025.099h.007l-.001.004c-.028.087-.14.058-.185.118l-.01-.016c-.022.043-.073.058-.079.11-.01.006-.043-.016-.05-.038-.02.028-.013.049-.068.045.011-.045-.025-.02.016-.038-.044.006-.066-.016-.08.052-.01-.05-.056-.038-.067-.016l.042.017c-.016.017-.035.023-.054.029l-.02-.062c-.106-.025-.077.189-.192.099-.001.05.056.01.06.064-.04.01-.115-.057-.126-.052-.062-.01-.007.105-.067.107.015.018.046.07.015.108-.04.009-.08-.068-.066-.095.008-.005.015 0 .018.007.008-.013.02-.03-.005-.046l.005.024c-.027-.014-.074.01-.077-.03-.018.033.003.04.027.043-.058-.01-.07.033-.128.028.013.01.03.032.022.034-.082-.001-.016.052-.061.078-.04-.022-.02-.08-.058-.036-.038-.012-.027-.055-.022-.076-.029.056-.091.002-.118.003l.016-.026c-.01.015-.02.02-.032.023l.028.038c-.017-.002-.028.002-.034-.017-.005.034.035.069.02.117-.025-.015-.048.044-.073-.012.064 0-.025-.055.02-.082-.007.01-.018.014-.034.011-.004-.005-.002-.012 0-.017-.07-.032-.003.074-.06.093-.003-.035-.033-.057-.04-.047.023-.007.028.05.015.083-.045-.012-.035.03-.056.033l.026.006c.002.035-.018.036-.041.053-.01-.025.019-.024.006-.032-.013.065-.083-.043-.112.006-.025-.017-.019-.061-.04-.072-.033.055-.06-.033-.098.015.025.04.025.03.002.081l.07-.051-.033.077c.024-.005.043-.04.059-.037-.015.043-.015.031.006.065-.05-.058-.055.056-.105.02l-.025-.11c-.068-.035-.087.083-.166.074l.028.013c0 .047-.045.018-.065.042-.005-.038-.023-.047-.038-.07.007.028-.054.008-.047.083l-.043-.043c-.063-.01-.049.118-.11.115.01-.044-.02-.066.013-.101-.019.003-.037-.001-.033.025-.016-.022-.046.06-.07.027-.005.018 0 .057-.023.058-.004-.007-.003-.019-.003-.019.003.019-.03.032-.005.07-.078-.107-.168.037-.234-.055-.04.022-.091.034-.13.042.001-.012-.002-.02.006-.016-.058-.03-.021.111-.087.078-.038-.059.03-.036.007-.058-.021-.123-.072.023-.12-.045l.01-.008c-.036-.04-.073.053-.126.049 0 0 .002-.011 0-.019-.031.067-.097.093-.146.115.013-.05.022-.027.01-.076-.023.009.01.079-.033.097-.016-.026-.05-.046-.057-.099l.042-.007c-.025-.066-.054.008-.076-.002v-.03c-.062.012-.06.086-.13.082l.008.022c-.036.075-.034-.041-.07.014l-.013-.076c-.024.02-.086.075-.13.09.024-.057.076-.086.107-.12-.024 0-.083.006-.096.044.01-.008.022-.026.032-.015-.029.06-.069.09-.118.09.007-.148-.13-.037-.165-.15-.087.053-.171-.018-.271-.019.031.117-.03.002-.028.12-.024.005-.033.003-.034-.005l-.068-.075c-.016-.035.023-.024.022-.05-.05-.013-.019-.052-.05-.085.004.042-.022.059-.05.04l.038.058c-.075.057-.056-.103-.131-.046l.025-.035c-.038.02-.135-.01-.18.082-.005-.014-.01-.047.006-.054-.086-.017-.206.085-.268.015l.01-.028c-.017.006-.034.05-.051.018.002-.012.01-.028.002-.03-.009.008-.049.043-.069.024l.023-.03c-.08-.05-.141.06-.217.068.013-.083-.05-.12-.08-.138l.003-.012c-.097-.021-.177.036-.276.05-.037-.103-.182-.081-.26-.152.011.018-.017.064-.036.068-.016-.021-.073.044-.05-.03l.007.002c.003-.075-.043-.071-.075-.083l-.033.096c-.045-.17-.244-.021-.252-.162-.028.018-.054.01-.083.026l.019-.05c-.054-.03-.078-.049-.151-.066l.027-.03c-.037-.02-.104.126-.142.114l.019-.08c-.07-.028-.11-.121-.206-.082.006-.01.018-.03.03-.03-.032-.012-.098-.103-.133.002.03-.066-.064-.041-.114-.031l.03-.045c-.06.046-.07.062-.12.057-.008-.012.01-.043.017-.024-.02-.042-.05.032-.077-.015l.031-.022c-.032-.021-.038-.004-.075.022-.032.007-.06-.046-.04-.091-.02.023-.057.046-.069.021.007-.017.02-.023.025-.025-.035-.066-.112.002-.123-.066.009-.016.01-.025.01-.032.043.028.076.053.07.054.026-.042-.004-.071.058-.112-.046.015-.136.053-.157.012 0-.005.002-.01.004-.017l.007-.002c-.005-.01-.015-.01-.026-.007-.006-.014-.01-.023-.02-.03.019-.037-.027-.043-.043-.055-.028.045-.046.024-.05.074 0-.005.007-.003.02.002.004 0 .007.002.01 0l-.003.004.045.024c-.028.014-.056.024-.058-.013l-.073.057c.018-.078-.002-.145.02-.187-.068-.012-.129-.07-.222-.014-.022 0 .002-.036.006-.052.014-.002.023.007.036-.002-.044 0-.09-.054-.14-.006-.014-.055.06-.034.006-.066l.02-.011c-.014-.166-.27.008-.269-.196 0 .013 0 .02-.006.03-.065-.153-.267-.19-.286-.375-.012-.045-.048-.022-.091-.022l.04-.043-.08.005c-.079-.024.047-.171-.07-.186l-.026.03c-.01-.028-.07-.065-.03-.084-.008.001-.04.013-.028-.007l.025-.017-.08-.035c-.007-.058.106-.053.076-.122-.024-.02-.112-.03-.126-.013.003.01-.005.033-.032.048l-.026-.018c-.081.032-.178.042-.196.147l.072.023-.029.036-.023-.04c-.024.043.015.042.045.044-.018.015-.028.03-.03.043l.1.002c-.028.023-.072.015-.07.055.045 0 .054-.06.096-.04-.022.043-.053.055-.008.06-.017.016-.033.02-.048.015.038.007.048.051.094.036-.027.05.058.065-.012.112.02-.004.08-.002.097.015-.106.025.048.074-.044.13.09-.029.1.07.177.08-.008.001-.023.006-.022 0 .014.028 0 .053 0 .08.06-.046.104-.02.155-.031-.029.078-.08.041-.124.096.044-.041.088.012.117-.033-.014.053 0 .034-.034.088.071-.06.03.009.09-.013-.004.062-.056.069-.003.082-.004.037-.057.03-.057.03M15.144 14.707c0-.015-.003-.033-.006-.052.018-.007.038-.005.038.008-.013-.005-.02.024-.032.044zm.335-.287c.009.017-.001.024-.012.028-.002-.009-.004-.018-.009-.031l-.006-.002c.01.001.02.002.027.005zm-.354.168l-.007-.03.008.03zM15.07 13.2c.014.074-.055.028-.092.05.015.048.077.088.072.122-.012.002-.016.008-.03 0 .052.051-.007.143.059.203-.007.004-.013.006-.018.006.036-.007.071-.006.096-.003 0 .027.042.051-.004.06.002-.017-.017-.019-.03-.027l.018.029c-.066.023-.022-.04-.07-.042.02.057.074.123.055.166-.065.007-.02-.101-.078-.045l.025-.066c-.102.047.007-.04-.102.003-.02.088.032.1.012.188.035.02.053-.006.088.013.064.124-.163.1-.078.19.045.024.127.03.087.097l-.074-.02c-.002.087.108.045.064.136-.03-.014-.028-.066-.036-.052-.054.061.043.039.046.083l-.064.013c.016.091.064.188.093.286-.02-.004-.042-.019-.058.007.051.123.026.273.014.404l.066.035c.002.011-.02.026-.033.016-.01.052.035-.005.062.013.01.026-.023.043-.043.03.067.074.154.21.122.314l-.022-.012c.003.075.137.039.11.116l-.014-.008c.036.15.126.292.117.429.082-.018.044.153.146.105-.006.106-.035.094-.004.225.014.032.088 0 .122.026l-.047.036.085.007-.037.066.036.022c-.007-.015 0-.043.015-.051.058.03.06.141.04.163l.127.079c-.018.014-.04 0-.063-.004.094.017-.038.058.053.068.002-.015.029-.021.038-.029.001.049.063.103.118.13l-.035.023c.079.078.184.142.284.208-.027-.038.022-.09.055-.08l-.022.06c.04-.022-.019-.038.047-.055.034.027-.013.075-.046.079l.059.008c-.007.018-.024.02-.039.038.04-.022.051.102.114.06l-.007.017c.107.06.165.069.252.114.024-.048.051-.02.092-.05.053.043.101.112.174.14.061 0 .034-.034.07-.053-.017.046.056.075.005.09.088.033.114.04.238.056-.003-.024-.013-.038.001-.05.023.002.036.041.023.06l-.008.003c.152-.006.212.266.352.222l-.008.002.121.004c.04.033-.044.018-.025.064.14-.015.156.1.267.1-.005.158.228.131.264.262l.014-.032c.04-.014.015.033.027.05.012-.024-.007-.04.017-.047.204.089.332.304.46.471.051.058.158-.096.166.036l-.064.023c.078.032.132.094.183.155.043.068.085.134.155.18-.017 0-.033.01-.041-.002-.018.05.061.102.093.085.007.024-.027.022-.037.044-.008.042.09.045.057.082-.005.006-.017-.001-.023-.005.03.008.04.09.079.048.007.06.065.094.055.15.066.006.011.104.092.083-.08.027-.027.12.02.146-.028-.004-.016.04-.055.037.013.04.04.074.08.054-.078.105.127.133.007.212.07.117.131.229.17.345-.083.01-.032-.13-.12-.107.059.102.137.157.135.272-.007.03-.039-.01-.055-.018.053.107.027.218.084.314-.008 0-.018-.01-.026-.019.005.02-.007.048.031.041l-.012-.018c.052-.04.126.065.156.065-.114-.02-.015.104-.162.067.01.013.03.027.055.02-.006.021-.02.03-.052.013.03.069.068.039.075.104-.018.002-.027-.01-.05-.015.04.03.08.058.07.116-.012-.002-.026.006-.027-.011.014.095.113.153.087.26-.084-.022-.023.04-.093.051l.026.055.032-.026c.004.05.06.088.04.133l-.033-.035.021.092.023-.055c.04.047.089-.013.074.055-.008-.013.004.05-.036.079.024.022.05.045.036.083-.022.012-.08 0-.094.007.061.019.026.114.092.14-.016-.009-.053-.007-.06-.003l.05.017c-.014.024-.021.028-.051.027-.003.07.088-.03.056.056-.005-.007-.011-.003-.02-.016-.013.085.051.16.037.241-.067.036-.027-.066-.082-.03.025.117.132.216.137.327l.003-.023c.1-.011-.025.091.037.131-.012-.01-.06 0-.048 0 .004.045.029.086.06.13.12.09.24.178.354.27.012-.009.03-.014.033-.035-.029-.002-.018-.045-.07-.024-.006-.015.017-.028.029-.04-.033-.016-.053-.12-.097-.069l-.002.008-.003-.003c-.086-.069-.04-.194-.086-.275l.017-.006c-.035-.047-.05-.113-.096-.142-.003-.016.025-.046.048-.044-.023-.038-.045-.038-.028-.104.041.034.025-.02.033.037.005-.057.03-.073-.031-.12.05.01.054-.05.037-.072l-.03.042c-.01-.027-.009-.052-.008-.078l.064.005c.061-.108-.152-.184-.031-.283-.047-.027-.026.065-.08.042.004-.054.09-.116.089-.133.029-.076-.098-.06-.08-.138-.022.012-.081.026-.107-.029.004-.053.09-.073.11-.04.003.011-.004.018-.012.018.01.017.021.038.044.015l-.023-.005c.02-.028.012-.1.05-.087-.024-.038-.038-.014-.047.017.027-.07-.009-.106.006-.178-.01.012-.036.024-.037.013.018-.105-.047-.04-.063-.11.03-.042.083.007.048-.06.018-.046.058-.015.078 0-.05-.06.017-.123.021-.16l.022.032c-.013-.02-.015-.036-.016-.053l-.043.024c.006-.02.005-.037.023-.039-.032-.017-.072.024-.117-.012.02-.03-.034-.078.024-.094-.01.086.058-.016.077.053-.009-.012-.01-.03-.005-.05.006-.004.012.001.016.006.044-.086-.071-.028-.08-.111.035.006.061-.027.053-.04.003.034-.054.023-.083-.004.02-.056-.026-.055-.027-.083l-.008.033c-.035-.006-.033-.033-.048-.068.025-.007.021.03.031.016-.063-.033.05-.1 0-.153.019-.029.063-.011.074-.037-.053-.058.035-.077-.01-.14-.043.028-.031.03-.082-.01l.048.105-.076-.06c.005.032.04.065.035.086-.042-.028-.03-.026-.065-.004.06-.056-.053-.084-.016-.144l.111-.017c.038-.089-.08-.131-.075-.24l-.012.037c-.046-.004-.02-.062-.044-.091.037-.005.046-.029.066-.048-.027.008-.014-.077-.088-.069l.038-.058c-.003-.088-.13-.066-.14-.147.046.012.061-.032.105.014-.008-.027-.008-.053-.033-.046.018-.023-.07-.058-.043-.093-.019-.006-.057.002-.063-.028.007-.005.018-.006.018-.006-.018.006-.037-.038-.07.002.082-.119-.091-.213-.026-.322-.032-.051-.082-.108-.108-.156.012-.002.017-.009.018.002-.005-.084-.116.011-.121-.082.032-.07.05.023.056-.013.103-.075-.063-.083-.038-.168l.014.008c.01-.061-.1-.065-.134-.13 0 0 .01-.003.015-.01-.076-.006-.153-.06-.211-.1.05-.015.04.007.068-.035-.026-.019-.054.059-.104.022.007-.032-.006-.081.028-.122l.042.042c.03-.069-.053-.056-.065-.087l.024-.018c-.068-.06-.125-.003-.19-.072l-.007.023c-.088.02-.005-.06-.08-.054l.038-.068c-.037-.01-.135-.026-.193-.048.062-.025.137-.003.19.004-.024-.025-.092-.073-.13-.053.016.003.04-.001.045.016-.07.021-.131.012-.184-.03.096-.109-.116-.136-.094-.256-.13-.02-.187-.148-.31-.216-.016.125-.036-.019-.088.088-.032-.01-.042-.017-.04-.025l-.05-.108c-.004-.041.039-.008.05-.032-.058-.042-.003-.058-.028-.108-.012.041-.05.04-.078.007l.023.075c-.115.007-.028-.128-.144-.123l.045-.017c-.054-.007-.166-.088-.253-.026-.002-.016.002-.05.026-.048-.103-.067-.284-.03-.343-.124l.02-.022c-.023-.002-.058.032-.071-.006.006-.01.02-.022.012-.028-.016.004-.075.02-.096-.007l.037-.018c-.091-.084-.196-.004-.292-.027.034-.077-.038-.14-.075-.173l.006-.01c-.104-.069-.21-.039-.33-.068-.007-.058-.057-.09-.107-.132-.046-.047-.1-.092-.126-.148.003.022-.044.048-.065.041-.01-.03-.096-.005-.041-.06l.006.008c.036-.07-.018-.089-.05-.117l-.076.066c.038-.187-.23-.202-.165-.33-.039-.006-.059-.033-.091-.044l.045-.029c-.024-.074-.036-.11-.092-.184l.043-.003c-.022-.046-.17.016-.197-.027l.064-.049c-.046-.082-.005-.201-.108-.26.011-.002.034-.008.043.005-.014-.043-.009-.176-.108-.126.065-.023-.022-.095-.064-.139l.053-.006c-.075-.024-.094-.021-.126-.077.002-.016.037-.023.029 0 .015-.054-.058-.026-.045-.09l.039.014c-.008-.05-.025-.042-.07-.06-.03-.027-.01-.097.038-.114-.03 0-.071-.022-.062-.054.017-.007.03.002.036.006.024-.089-.078-.115-.035-.18.017-.004.026-.01.03-.015.008.067.013.12.008.116.048-.008.05-.061.122-.03-.042-.035-.132-.098-.116-.153.004-.003.008-.006.016-.009l.006.005c.003-.013-.003-.023-.013-.032.006-.017.01-.028.008-.044.04-.01.019-.064.02-.09-.054.006-.047-.03-.09.007.004-.005.007.004.01.022.003.004.003.009.007.011l-.005-.001.008.067c-.03-.019-.052-.04-.025-.072-.035-.011-.071-.024-.088-.031.072-.044.108-.118.153-.13-.033-.08-.033-.192-.13-.243-.013-.024.028-.028.044-.037.01.014.008.03.023.037-.026-.047-.008-.14-.078-.152.032-.06.064.035.053-.048l.021.011c.11-.155-.171-.27-.015-.443-.01.012-.014.018-.026.02.075-.199-.018-.432.111-.618.03-.054-.014-.067-.042-.108l.059-.002-.056-.071c-.034-.094.166-.119.096-.243l-.04.006c.013-.037.002-.126.045-.11-.006-.005-.037-.021-.014-.031l.03.005-.03-.105c.039-.066.113.04.144-.062-.001-.041-.056-.13-.078-.122-.006.015-.029.034-.058.027l-.006-.04c-.083-.03-.161-.088-.247-.009l.037.078-.047.01.01-.055c-.046.02-.016.05.002.077-.023 0-.041.005-.052.016l.068.082c-.036 0-.06-.044-.089-.006.032.038.082-.01.096.043-.046.022-.076.006-.05.05-.024 0-.036-.012-.043-.028.02.038-.007.087.036.114-.055.021-.008.11-.09.09.018.014.054.07.052.099-.09-.072-.026.109-.129.076.083.056.017.152.055.23-.006-.004-.02-.014-.014-.02-.013.039-.042.046-.063.07.073.016.083.08.124.12-.077.04-.083-.041-.153-.035.06.005.05.094.101.083-.048.032-.025.03-.088.042.091.017.011.037.064.074-.052.05-.088.005-.067.068-.032.026-.058-.031-.058-.031-.009.061.065.035.104.053z" transform="translate(-41.000000, -55.000000) translate(41.000000, 55.000000) translate(0.000000, 3.416667) translate(38.225001, 18.055423)"/>
                    </g>
                </g>
            </g>
        </g>
    </g>
</svg>
