<svg xmlns="http://www.w3.org/2000/svg" xmlns:xlink="http://www.w3.org/1999/xlink" width="90" height="82" viewBox="0 0 90 82">
    <defs>
        <path id="eo72pht8va" d="M19.451 8.177s-2.89-4.278-4.982-6.153C12.376.15 10.319-.278 8.326.154c-.242.053-.48.134-.715.239.014-.073.03-.155.046-.249-.797.253-2.255.774-3.85 1.64C2.428 2.534.884 3.812 0 4.588l3.102 3.78c-.762 4.216-.942 11.221-.942 11.221s2.295.258 6.68.306c4.384.048 7.017-.138 7.017-.138s-.173-1.713-.39-3.39c-.3-2.307-.762-5.384-.762-5.384s.312-.115 1.857-.884c1.544-.769 2.89-1.922 2.89-1.922"/>
    </defs>
    <g fill="none" fill-rule="evenodd">
        <g>
            <g>
                <g>
                    <g fill="#FFF">
                        <path d="M12.483 34.08l-5.271 5.265-1.663-1.66 5.271-5.265 1.663 1.66zm-10.543 0l5.272-5.264 3.358 3.354-5.272 5.265L1.94 34.08zm15.394-8.665L10.82 31.92l-3.608-3.604-5.772 5.765 3.608 3.603L0 42.726l6.524 6.516c.035.034.08.052.125.052s.09-.018.125-.052c.07-.07.07-.18 0-.25L.5 42.726l4.798-4.792 1.914 1.911 5.772-5.764-1.914-1.911 6.514-6.505c.069-.069.069-.18 0-.25-.07-.069-.181-.069-.25 0zM11.021 53.233c-.069-.069-.18-.069-.25 0-.069.07-.069.18 0 .25l6.563 6.554c.034.035.08.052.125.052s.09-.017.125-.052c.069-.069.069-.18 0-.25l-6.563-6.554zM52.33 12.944l-4.833-4.828 3.68-3.677 5.828 5.82-5.827 5.819-5.827-5.82 1.895-1.892 4.835 4.828c.034.034.08.052.125.052s.09-.018.125-.052c.07-.07.07-.18 0-.25zm-1.152 3.633l6.327-6.319-6.327-6.318-3.932 3.926L39.37 0l-5.137 5.13c-.069.068-.069.18 0 .25.07.068.182.068.25 0L39.37.5l7.626 7.616-2.145 2.142 6.327 6.32zM51.024 60.99l-3.699-3.693 3.7-3.694 3.698 3.694-3.699 3.693zm-4.198-3.693l4.198 4.193 4.199-4.193-4.199-4.193-4.198 4.193z" transform="translate(-41.000000, -427.000000) translate(41.000000, 427.000000) translate(3.396226, 4.270833) translate(0.525002, 0.540272)"/>
                    </g>
                    <g fill="#FFF">
                        <path d="M30.698 67.596H4.285C1.919 67.596 0 65.666 0 63.288V4.308C0 1.928 1.919 0 4.285 0h26.413c2.366 0 4.285 1.929 4.285 4.308v58.98c0 2.379-1.919 4.308-4.285 4.308" transform="translate(-41.000000, -427.000000) translate(41.000000, 427.000000) translate(3.396226, 4.270833) translate(15.283019, 7.687500)"/>
                        <path d="M30.412 1.721h-4.597c0 1.49-1.202 2.698-2.684 2.698H11.914c-1.481 0-2.683-1.208-2.683-2.698H4.633c-1.672 0-3.028 1.363-3.028 3.045v58.132c0 1.682 1.356 3.045 3.028 3.045h25.78c1.672 0 3.028-1.363 3.028-3.045V4.766c0-1.682-1.356-3.045-3.029-3.045M50.703 62.064L51.17 65.779 52.959 66.366 53.815 66.014 53.815 61.203zM43.863 62.064L44.33 65.779 46.119 66.366 46.975 66.014 46.975 61.203z" transform="translate(-41.000000, -427.000000) translate(41.000000, 427.000000) translate(3.396226, 4.270833) translate(15.283019, 7.687500)"/>
                        <path d="M38.495 67.696h9.413c.506 0 .467-1.526.195-2.23-.273-.704-.623-1.134-.895-1.095-.272.04 0 .822-1.517.978-1.517.157-1.44-.978-1.595-1.212-.155-.235-1.089-.313-1.672.312-.584.626-2.529 1.408-3.268 1.76-.739.352-.661 1.487-.661 1.487" transform="translate(-41.000000, -427.000000) translate(41.000000, 427.000000) translate(3.396226, 4.270833) translate(15.283019, 7.687500)"/>
                        <path d="M45.335 67.696h9.413c.506 0 .467-1.526.195-2.23-.273-.704-.623-1.134-.895-1.095-.272.04 0 .822-1.517.978-1.517.157-1.44-.978-1.595-1.212-.155-.235-1.089-.313-1.672.312-.584.626-2.529 1.408-3.268 1.76-.739.352-.661 1.487-.661 1.487M67.328 63.67c-2.227 1.774-5.461 1.396-7.224-.843L28.35 22.508l-3.937-12.254c-.226-.866.294-1.338 1.08-.918l10.92 6.752 31.753 40.32c1.763 2.238 1.387 5.49-.84 7.263" transform="translate(-41.000000, -427.000000) translate(41.000000, 427.000000) translate(3.396226, 4.270833) translate(15.283019, 7.687500)"/>
                    </g>
                    <g fill="#F09D4C">
                        <path d="M5.256 2.688L1.141.156C.35-.265-.174.208.054 1.076l1.497 4.64c.408 0 1.133-.16 2.176-.986 1.104-.875 1.432-1.635 1.53-2.042M43.283 54.62c2.243-1.776 2.622-5.036.846-7.28l-2.09-2.64s-.156 1.68-3.39 4.241c-3.353 2.657-4.732 2.193-4.733 2.193l2.09 2.641c1.776 2.244 5.034 2.623 7.277.846" transform="translate(-41.000000, -427.000000) translate(41.000000, 427.000000) translate(3.396226, 4.270833) translate(39.156244, 17.181064)"/>
                    </g>
                    <g transform="translate(-41.000000, -427.000000) translate(41.000000, 427.000000) translate(3.396226, 4.270833) translate(54.407500, 23.062500)">
                        <use fill="#F09D4C" xlink:href="#eo72pht8va"/>
                    </g>
                    <g fill="#FFF">
                        <path d="M47.283 41.54c-.123-2.916-.093-9.783-.075-12.552-1.022.052-3.187.136-6.207.101l-.333-.005c-3.008-.043-4.959-.19-5.77-.264-.079 2.634-.147 7.67.229 12.819.546 7.471 1.404 15.273 1.404 15.273s1.482.157 2.73.079c1.248-.08 1.95-.315 1.95-.315l.154-6.048c.842 3.23 1.562 5.876 1.562 5.876s.624.471 2.652.393c2.028-.079 2.652-.865 2.652-.865s-.792-10.795-.948-14.492M41.376 25.394s1.657-.633 2.354-.633h1.203l-.227.914-1.307.018s-2.18.421-2.023-.3" transform="translate(-41.000000, -427.000000) translate(41.000000, 427.000000) translate(3.396226, 4.270833) translate(22.075472, 13.666667)"/>
                        <path d="M50.95 17.723s1.38 1.653 2.201 3.49c.822 1.839.25 2.45-.286 2.955-.536.505-2.752 1.622-5.11 2.487-1.695.621-3.038 1.117-3.038 1.117s-1.333.319-2.842.999c-.135.06-.401.052-.459-.055-.075-.14-.048-.31-.048-.31s-.18.026-.295-.219c-.114-.24.055-.434.055-.434s-.194-.147-.152-.434c.034-.234.438-.703.623-.871 1.039-.938 2.832-1.378 2.832-1.378s1.358-.937 2.501-1.91c.782-.665 1.215-.902 1.215-.902l-1.15-2.22s1.99-.772 3.954-2.315M44.15 3.435c-.61-.148-.998.335-.998.335s.588-1.14-.01-2.307c-.596-1.167-3.11-2.101-4.114-.91 0 0-1.018 2.471-.354 4.587.501 1.597 1.024 1.784 1.378 1.852-.008.335-.03.725-.077 1.092-.039.303-.212 1.266-.212 1.266s-.83.8 1.675.983c2.007.147 2.17-1.1 2.17-1.1s-.268-.926-.252-1.733c.011-.546.048-1.32.077-1.884.188.063.819.208 1.181-.482.454-.866.006-1.585-.464-1.7M5.644 13.206H1.108c-.612 0-1.108-.5-1.108-1.117V7.514c0-.617.496-1.116 1.108-1.116h4.536c.612 0 1.108.5 1.108 1.116v4.575c0 .617-.496 1.117-1.108 1.117M5.644 25.915H1.108c-.612 0-1.108-.5-1.108-1.117v-4.574c0-.617.496-1.117 1.108-1.117h4.536c.612 0 1.108.5 1.108 1.117v4.574c0 .617-.496 1.117-1.108 1.117M5.644 38.625H1.108c-.612 0-1.108-.5-1.108-1.116v-4.575c0-.617.496-1.117 1.108-1.117h4.536c.612 0 1.108.5 1.108 1.117v4.575c0 .616-.496 1.116-1.108 1.116M5.644 51.335H1.108c-.612 0-1.108-.5-1.108-1.117v-4.574c0-.617.496-1.117 1.108-1.117h4.536c.612 0 1.108.5 1.108 1.117v4.574c0 .617-.496 1.117-1.108 1.117M25.145 20.965s-.484.169-.016 1.016c.077.138.383.513.383.513s-.097.229.099.486c.222.294.536.367.536.367s-.018.421.376.582c.789.323 2.23-.45 2.597-.809.164-.16.49-.393.528-.698.037-.312-.112-.434-.112-.434s.177-.252.027-.567c-.13-.274-.447-.158-.447-.158s-.167-.22-.37-.248c-.812-.112-1.71.407-2.444.53-.779.13-1.157-.58-1.157-.58" transform="translate(-41.000000, -427.000000) translate(41.000000, 427.000000) translate(3.396226, 4.270833) translate(22.075472, 13.666667)"/>
                    </g>
                    <g fill="#F09D4C">
                        <path d="M4.17 1.966c0 1.085-.934 1.965-2.085 1.965C.933 3.931 0 3.051 0 1.966 0 .88.933 0 2.085 0c1.151 0 2.084.88 2.084 1.966M4.17 14.68c0 1.086-.934 1.966-2.085 1.966C.933 16.646 0 15.766 0 14.68c0-1.086.933-1.966 2.085-1.966 1.151 0 2.084.88 2.084 1.966M4.17 27.395c0 1.085-.934 1.965-2.085 1.965C.933 29.36 0 28.48 0 27.395c0-1.086.933-1.966 2.085-1.966 1.151 0 2.084.88 2.084 1.966M4.17 40.11c0 1.085-.934 1.965-2.085 1.965-1.152 0-2.085-.88-2.085-1.966 0-1.086.933-1.965 2.085-1.965 1.151 0 2.084.88 2.084 1.965" transform="translate(-41.000000, -427.000000) translate(41.000000, 427.000000) translate(3.396226, 4.270833) translate(23.039875, 21.400876)"/>
                    </g>
                    <g fill="#475574">
                        <path d="M22.257.354h1.69c.097 0 .176-.08.176-.177 0-.098-.079-.177-.176-.177h-1.69c-.098 0-.177.08-.177.177 0 .098.079.177.177.177M12.07 4.381c-1.383 0-2.51-1.13-2.51-2.519v-.177H4.783c-1.769 0-3.208 1.445-3.208 3.22V8.19c0 .098.08.177.177.177.097 0 .176-.079.176-.177V4.905c0-1.58 1.28-2.866 2.855-2.866h4.432c.091 1.502 1.337 2.696 2.857 2.696h11.227c1.52 0 2.765-1.194 2.857-2.696h4.431c1.575 0 2.856 1.286 2.856 2.866v5.014c0 .098.078.177.175.177.098 0 .177-.08.177-.177V4.905c0-1.775-1.44-3.22-3.208-3.22h-4.778v.177c0 1.39-1.126 2.52-2.51 2.52H12.07zM14.971 66.031c0 .098.079.177.176.177h15.439c1.769 0 3.208-1.444 3.208-3.22v-28.41c0-.097-.079-.176-.176-.176-.098 0-.177.079-.177.176v28.41c0 1.58-1.28 2.866-2.855 2.866H15.147c-.097 0-.176.08-.176.177M1.75 18.615c-.097 0-.176.079-.176.177v44.197c0 1.775 1.44 3.22 3.208 3.22h2.567c.098 0 .177-.08.177-.178 0-.098-.08-.177-.177-.177H4.782c-1.574 0-2.855-1.285-2.855-2.865V18.792c0-.098-.079-.177-.176-.177M13.33 17.758c0 .741-.6 1.345-1.34 1.345H8.25c-.739 0-1.34-.604-1.34-1.345v-3.754c0-.742.601-1.345 1.34-1.345h3.74c.74 0 1.34.603 1.34 1.345v3.754zm.353-3.754c0-.937-.76-1.7-1.693-1.7H8.25c-.933 0-1.693.763-1.693 1.7v3.754c0 .937.76 1.698 1.693 1.698h3.74c.934 0 1.693-.761 1.693-1.698v-3.754zM16.045 13.465h6.68c.098 0 .177-.079.177-.177 0-.098-.08-.177-.177-.177h-6.68c-.098 0-.177.08-.177.177 0 .098.08.177.177.177M23.41 15.875h-7.366c-.097 0-.175.079-.175.177 0 .097.078.176.175.176h7.366c.097 0 .176-.079.176-.176 0-.098-.079-.177-.176-.177M13.33 30.448c0 .742-.6 1.345-1.34 1.345H8.25c-.739 0-1.34-.603-1.34-1.345v-3.754c0-.742.601-1.345 1.34-1.345h3.74c.74 0 1.34.603 1.34 1.345v3.754zm.353-3.754c0-.937-.76-1.699-1.693-1.699H8.25c-.933 0-1.693.762-1.693 1.699v3.754c0 .937.76 1.699 1.693 1.699h3.74c.934 0 1.693-.762 1.693-1.699v-3.754zM26.96 25.802H16.045c-.098 0-.177.079-.177.177 0 .097.08.176.177.176H26.96c.097 0 .176-.079.176-.176 0-.098-.079-.177-.176-.177M16.045 28.92h7.87c.097 0 .176-.08.176-.178 0-.098-.08-.177-.177-.177h-7.87c-.097 0-.176.08-.176.177 0 .098.08.177.177.177M13.33 43.139c0 .741-.6 1.345-1.34 1.345H8.25c-.739 0-1.34-.604-1.34-1.345v-3.754c0-.742.601-1.345 1.34-1.345h3.74c.74 0 1.34.603 1.34 1.345v3.754zm.353-3.754c0-.937-.76-1.699-1.693-1.699H8.25c-.933 0-1.693.762-1.693 1.699v3.754c0 .937.76 1.699 1.693 1.699h3.74c.934 0 1.693-.762 1.693-1.7v-3.753zM28.017 38.493H16.044c-.097 0-.175.079-.175.176 0 .098.078.177.175.177h11.973c.098 0 .177-.079.177-.177 0-.097-.08-.176-.177-.176M16.045 41.61h11.91c.097 0 .176-.08.176-.177 0-.098-.08-.177-.177-.177h-11.91c-.097 0-.176.079-.176.177 0 .097.08.177.177.177M6.91 55.83v-3.755c0-.741.6-1.345 1.34-1.345h3.74c.74 0 1.34.604 1.34 1.345v3.755c0 .741-.6 1.344-1.34 1.344H8.25c-.74 0-1.34-.603-1.34-1.344zm5.08 1.698c.934 0 1.693-.762 1.693-1.698v-3.755c0-.936-.76-1.699-1.693-1.699H8.25c-.934 0-1.693.763-1.693 1.7v3.754c0 .936.76 1.698 1.693 1.698h3.74z" transform="translate(-41.000000, -427.000000) translate(41.000000, 427.000000) translate(3.396226, 4.270833) translate(15.396747, 7.803976)"/>
                        <path d="M16.045 51.537h11.973c.097 0 .176-.08.176-.177 0-.098-.08-.177-.176-.177H16.045c-.098 0-.177.08-.177.177 0 .098.08.177.177.177M16.045 54.3h5.58c.097 0 .175-.079.175-.177 0-.098-.078-.177-.176-.177h-5.58c-.097 0-.176.08-.176.177 0 .098.08.177.177.177M28.018 53.946h-5.004c-.097 0-.176.08-.176.177 0 .098.079.177.176.177h5.004c.098 0 .177-.079.177-.177 0-.098-.08-.177-.177-.177M48.08 9.585c.02-.165-.064-.312-.19-.33-.126-.016-.246.104-.268.27-.022.164.063.311.19.328.126.017.246-.104.267-.268M46.095 9.208c-.114-.018-.227.1-.253.265-.025.164.046.311.16.33.113.017.226-.101.252-.266.026-.164-.046-.312-.16-.33M46.764 10.357c.119-.215.223-.47.228-.48.037-.091-.007-.194-.097-.231-.088-.037-.193.006-.23.096 0 .003-.1.247-.209.444l-.041.071c-.077.135-.158.274-.114.423.026.085.087.153.18.2.09.045.197.059.292.059.111 0 .206-.018.235-.025.095-.02.156-.113.136-.209-.02-.095-.114-.156-.208-.137-.077.016-.208.024-.286-.002.015-.036.047-.091.07-.131l.044-.078zM48.395 8.462c-.031-.018-.321-.177-.772-.055-.094.025-.15.123-.124.217.025.094.123.15.216.125.306-.084.493.014.504.02.028.016.057.023.087.023.06 0 .12-.031.152-.087.05-.085.021-.193-.063-.243M46.84 11.828c.151.043.292.061.423.061.57 0 .94-.353 1.072-.58.049-.084.02-.192-.063-.241-.085-.05-.192-.022-.241.061-.014.024-.349.57-1.095.358-.095-.026-.191.029-.218.123-.026.094.029.191.122.218" transform="translate(-41.000000, -427.000000) translate(41.000000, 427.000000) translate(3.396226, 4.270833) translate(15.396747, 7.803976)"/>
                        <path d="M46.197 14.603c.5-.05.662-.419.72-.72l.116-.613c.073.01.146.02.228.02.59 0 1.38-.266 2.109-1.023.068-.07.066-.182-.004-.25s-.182-.066-.25.004c-.768.798-1.609.98-2.104.893-.322-.057-.81-.143-1.314-1.741-.235-.746-.249-1.543-.174-2.255.008.001.015.005.022.005.037 0 .074-.011.105-.035.173-.13.41-.07.417-.068.094.027.19-.03.216-.123.025-.094-.03-.192-.123-.218-.014-.003-.305-.08-.586.048.008-.051.014-.104.023-.153.128-.206.434-.686.816-1.177.505-.65.697-.744.697-.744s.612.676 1.283 1.619c.875 1.228 1.182 2.36 1.732 1.933.083-.065.14-.121.187-.172.142-.1.374-.21.67-.137.175.042.341.197.435.406.08.176.174.545-.085 1.035-.34.646-.946.411-1.016.382-.088-.038-.192.003-.23.092-.008.017-.01.035-.012.052-.13.19-.538.85-.641 1.865-.09.891.047 1.248 2.07 1.327.99.038 2.135-.22 2.814-.633.563-.343.563-.546-.06-1.705-.43-.802-1.14-2.698-1.804-4.82-.603-1.93-1.165-2.523-2.878-2.864-1.468-.291-2.342.522-2.342.522s-.378-.121-.728.062c-.713.374-.946.856-1.225 1.898-.727 2.716-1.437 3.915-1.922 4.963-.512 1.104-.71 1.615-.415 1.848.565.448 2.975.505 3.253.477" transform="translate(-41.000000, -427.000000) translate(41.000000, 427.000000) translate(3.396226, 4.270833) translate(15.396747, 7.803976)"/>
                        <path d="M50.322 10.815c-.092-.031-.192.018-.224.11-.031.092.017.193.11.225.01.003.14.047.305.047.146 0 .318-.034.458-.161.32-.291.22-.749.216-.768-.022-.095-.116-.154-.21-.133-.095.021-.155.116-.134.21 0 .004.057.278-.109.429-.138.127-.407.043-.412.041M62.823 57.96c-.37.296-.737.567-1.09.807-.08.055-.1.165-.046.246.035.05.09.077.146.077.035 0 .07-.01.1-.03.358-.246.732-.522 1.11-.822.076-.06.088-.172.028-.249-.06-.077-.172-.09-.248-.028M46.667 15.553c-.039-.088-.142-.128-.23-.09-.09.038-.131.142-.093.232.017.038.408.91 1.968.91.076 0 .156-.002.238-.006 1.4-.075 2-.644 2.024-.669.07-.067.071-.178.004-.248-.067-.07-.178-.073-.249-.006-.005.005-.542.503-1.797.57-1.502.081-1.849-.659-1.865-.693" transform="translate(-41.000000, -427.000000) translate(41.000000, 427.000000) translate(3.396226, 4.270833) translate(15.396747, 7.803976)"/>
                        <path d="M67.428 63.622c-.135.107-.273.206-.414.296-.064.04-.13.074-.194.111-.08.046-.158.096-.24.137-2.061 1.044-4.647.53-6.136-1.358l-1.828-2.318c.334-.016.828-.113 1.473-.389.089-.038.13-.142.093-.232-.039-.09-.142-.131-.232-.093-.963.412-1.479.373-1.622.35l-3.483-4.415c-.21-3.043-.428-6.403-.502-8.147-.082-1.929-.096-5.6-.091-8.68l11.856 15.027c-.093.315-.544 1.548-2.276 3.171-.07.067-.075.18-.008.25.066.071.178.076.249.009 1.515-1.42 2.09-2.557 2.295-3.1l1.871 2.372c.415.525.704 1.11.878 1.717.538 1.886-.064 4-1.69 5.292zm-13.18 1.103c.016-.038.038-.089.022-.089.137-.022.432.276.706.983.226.583.25 1.63.045 1.93-.038.057-.064.057-.075.057h-9.247c.012-.301.095-.926.561-1.149.144-.068.332-.152.547-.248.91-.406 2.283-1.02 2.778-1.55.398-.426.917-.437 1.069-.426.202.01.31.067.33.091.014.023.037.11.054.173.11.408.338 1.259 1.706 1.116 1.173-.12 1.388-.62 1.503-.888zm-8.902 2.88h-6.494c.011-.3.092-.925.562-1.148.143-.068.332-.152.547-.249.909-.406 2.282-1.019 2.777-1.548.399-.427.918-.438 1.069-.427.202.01.311.067.33.091.014.023.038.11.055.174.108.408.337 1.257 1.706 1.115 1.172-.12 1.387-.62 1.503-.888.016-.038.038-.089.022-.089.117-.018.331.182.554.64-.449.224-.925.436-1.313.61-.218.097-.41.182-.554.251-.65.31-.752 1.103-.764 1.469zm.001-4.408c.26 0 .526-.006.783-.022.323-.02.61-.051.858-.086v1.672c-.126.203-.386.425-1.126.5-1.072.108-1.22-.448-1.33-.855-.013-.049-.025-.09-.038-.131l-.139-1.105c.299.015.64.027.992.027zm6.668-.107c.142 0 .291-.003.449-.009.552-.02 1.003-.094 1.371-.19v1.87c-.126.203-.386.425-1.127.5-1.072.108-1.22-.448-1.33-.855-.012-.05-.025-.091-.037-.131l-.154-1.222c.24.023.515.037.828.037zM33.407 29.823c-.138-.056-.205-.156-.237-.243.495-.024 1.776-.198 3.13-1.257.005.038.007.082 0 .137-.022.184-.214.355-.368.492-.04.036-.078.07-.109.1-.367.357-1.728 1.05-2.416.77zm-.416-.593c-.055-.017-.27-.093-.425-.298-.075-.098-.087-.18-.086-.237.355-.025 2.01-.191 3.535-1.207.037-.012.163-.042.217.07.089.187.018.333-.004.372-1.548 1.283-3.06 1.304-3.237 1.3zm-.598-.884l-.006.001c-.113-.14-.25-.319-.29-.392-.21-.377-.195-.571-.166-.653V27.3c.223.27.643.575 1.217.48.28-.046.57-.143.878-.246.512-.17 1.043-.347 1.522-.282.035.005.07.024.105.046-1.555.963-3.242 1.047-3.26 1.048zm-7.64-18.003c-.092-.351-.049-.64.116-.77.037-.03.08-.05.126-.062.018-.005.037-.006.056-.008.03-.005.062-.009.096-.008.044.002.091.01.14.022.02.005.04.006.061.012.072.022.146.052.223.093l3.976 2.454c-.122.388-.464 1.054-1.425 1.816-.884.703-1.52.906-1.925.939l-1.444-4.488zm23.676 21.225c.396-.144 1.622-.574 2.173-.574h.508c-.307.086-1.03.31-1.746.688-.444.027-.824-.002-.935-.114zm3.223 2.423l2.715-.995c.092.823.163 1.521.195 1.838-.597.037-2.647.145-5.717.135 1.467-.654 2.775-.97 2.807-.978zm16.863 22.403L66.44 53.76 54.252 38.316c.002-.86.005-1.663.009-2.346 0-.097-.078-.177-.175-.177h-.001c-.098 0-.176.078-.177.176-.017 3.215-.029 9 .081 11.61.148 3.485.873 13.405.946 14.395-.172.16-.859.69-2.486.753-1.63.066-2.328-.237-2.502-.33-.238-.872-2.675-9.835-3.709-14.504-.682-3.08-1.428-7.757-1.934-11.139-.015-.097-.105-.16-.2-.149-.097.015-.163.105-.149.202.507 3.387 1.255 8.073 1.939 11.162 1.084 4.895 3.705 14.493 3.732 14.59.01.037.033.07.064.094.018.014.324.234 1.135.356l.115.914c-.069-.019-.142-.034-.224-.04-.403-.034-.974.09-1.39.535-.203.218-.592.46-1.038.696-.284-.57-.61-.871-.916-.829-.013.002-.02.01-.032.012v-1.263c.497-.086.772-.176.79-.182.07-.024.118-.089.12-.164l.094-3.677c.003-.098-.074-.179-.171-.181-.104.002-.179.075-.181.172l-.09 3.548c-.246.067-.87.213-1.795.272-1 .061-2.17-.03-2.568-.065-.12-1.096-.892-8.279-1.392-15.1-.33-4.491-.32-8.89-.255-11.79.002-.097-.076-.179-.173-.18-.102 0-.178.074-.18.172-.02.86-.034 1.855-.036 2.943l-6.88-8.72c.637-.208 1.233-.57 1.444-.776l.098-.089c.188-.168.446-.398.484-.714.028-.225-.025-.378-.08-.473.054-.133.104-.362-.02-.624-.125-.262-.372-.3-.546-.277-.085-.085-.232-.203-.409-.228-.56-.075-1.13.114-1.68.297-.294.098-.572.191-.824.234-.303.05-.531-.05-.693-.172l-3.49-4.425c.385-.017 1.03-.141 1.975-.622.086-.044.121-.15.077-.238-.044-.087-.15-.122-.237-.078-1.188.606-1.847.606-2.065.581l-2.35-7.305c.46-.057 1.137-.291 2.033-1.003.94-.746 1.343-1.417 1.513-1.904l6.543 4.038c-.096.391-.621 1.89-3.28 4.004-.077.06-.09.172-.029.248.035.044.086.067.138.067.039 0 .077-.012.11-.038 2.398-1.906 3.122-3.335 3.34-3.978l5.37 6.806c-.731 4.298-.912 11.329-.914 11.41-.002.09.065.169.155.18.023.002 2.312.264 6.576.313.489.005.956.008 1.4.008 3.428 0 5.482-.147 5.505-.149.048-.003.092-.026.122-.063.03-.036.045-.083.041-.13-.001-.013-.093-.948-.223-2.11 2.252-.823 4.575-1.951 5.179-2.517.646-.606 1.158-1.303.327-3.152-.825-1.836-1.761-2.986-1.801-3.034-.062-.076-.173-.086-.248-.024-.075.062-.086.174-.024.25.01.01.947 1.163 1.751 2.953.797 1.772.243 2.291-.246 2.749-.504.472-2.66 1.567-5.067 2.446-1.688.615-3.028 1.108-3.028 1.11-.024.005-1.376.332-2.882 1.007-.073.033-.214.024-.232.023-.023-.042-.03-.093-.032-.134.004-.003.008-.004.01-.008.008-.009.806-.9 2.062-1.22.094-.025.152-.121.127-.215-.024-.095-.119-.153-.214-.128-1.234.315-2.035 1.112-2.204 1.292-.024-.012-.058-.04-.09-.108-.06-.126.021-.23.029-.24.004-.005.006-.011.009-.016.003-.004.008-.006.01-.01.006-.01.586-.964 1.966-1.268.095-.02.155-.115.134-.21-.02-.096-.113-.156-.21-.135-1.1.242-1.738.854-2.019 1.194-.002-.025-.005-.05-.001-.08.023-.157.365-.581.568-.763.996-.895 2.747-1.332 2.765-1.337.02-.005.04-.014.058-.025.013-.01 1.383-.952 2.523-1.918.757-.641 1.186-.877 1.19-.88.084-.045.117-.15.073-.236l-.678-1.322c-.045-.087-.151-.12-.237-.076-.087.045-.121.152-.077.238l.603 1.175c-.128.08-.344.229-.626.447-.16-1.172-.303-2.175-.356-2.54.025-.01.045-.025.062-.044l.005-.003-.002-.002c.005-.005.008-.01.012-.016.033-.013.117-.048.242-.102.278-.135.712-.351 1.389-.702 1.518-.787 2.819-1.94 2.873-1.989.066-.058.079-.155.031-.228-.028-.044-2.873-4.41-4.92-6.317-.99-.923-2.008-1.576-3.026-1.94-.042-.016-.086-.012-.125.004.031.148.06.272.083.358.947.354 1.899.97 2.83 1.837 1.817 1.694 4.29 5.384 4.778 6.121-.352.3-1.46 1.205-2.686 1.84-1.473.763-1.792.89-1.805.895l-.008.005c-1.158.393-2.288.315-2.655.272-.021-.141-.06-.416-.118-.89-.097-.778-.776-5.6-.783-5.648-.014-.097-.102-.165-.2-.15-.096.013-.163.102-.15.2.007.048.686 4.867.783 5.642.098.792.14 1.034.14 1.034.012.074.07.132.144.145.029.005.372.061.887.061.506 0 1.177-.055 1.88-.267.062.433.211 1.485.374 2.68l-.154.127c-.713.604-1.518 1.2-2.016 1.558h-1.083c-.723 0-2.354.617-2.423.643-.056.021-.097.07-.11.128-.043.197.034.328.107.402.124.129.35.191.606.218-.153.104-.3.217-.435.338-.16.143-.635.66-.682.976-.03.206.033.37.109.48-.057.126-.085.302.004.489.075.158.18.244.277.285.006.076.025.166.072.251.027.05.071.086.121.114-.127 0-.25-.001-.38-.003-3.61-.04-5.793-.235-6.38-.294.037-1.25.308-9.312 1.241-12.795.483-1.8 1.083-3.297 1.781-4.448.051-.084.025-.193-.058-.243-.083-.051-.192-.025-.243.059-.716 1.18-1.329 2.708-1.82 4.54-.093.348-.18.742-.26 1.168l-2.701-3.424c.878-.794 2.307-2.01 3.583-2.73 1.487-.84 2.864-1.363 3.659-1.63l.069-.396c-.772.25-2.273.798-3.9 1.718-1.296.73-2.738 1.954-3.63 2.76l-2.477-3.139-.02-.024-1.344-.83V4.427C35.368 1.986 33.39 0 30.958 0h-2.705c-.098 0-.176.08-.176.177 0 .098.078.177.176.177h2.705c2.237 0 4.058 1.827 4.058 4.073v10.61l-5.063-3.125-4.207-2.597c-.426-.228-.826-.234-1.096-.02-.282.225-.369.64-.235 1.148l1.527 4.746 2.413 7.498.01.03 3.363 4.263c-.046.046-.092.104-.124.188-.094.247-.031.57.185.96.063.113.248.349.345.468-.023.14-.003.348.152.55.167.221.379.335.512.39.027.175.126.472.477.615.15.061.32.088.5.088.154 0 .315-.025.478-.059l.763.968v32.318c0 2.246-1.82 4.073-4.058 4.073H4.41c-2.238 0-4.059-1.827-4.059-4.073V4.427C.352 2.181 2.173.354 4.411.354h15.198c.097 0 .176-.08.176-.177 0-.098-.079-.177-.176-.177H4.411C1.978 0 0 1.986 0 4.427v59.04c0 2.44 1.978 4.426 4.41 4.426h26.548c2.432 0 4.41-1.985 4.41-4.427V31.595l6.136 7.777c.006 2.47.076 5.369.292 8.31.542 7.379 1.4 15.18 1.41 15.257.009.083.074.148.156.157.024.002.27.028.635.052l.098.775c-.069-.019-.142-.034-.223-.04-.398-.035-.975.09-1.392.535-.445.477-1.779 1.073-2.662 1.467-.218.098-.41.183-.555.252-.839.4-.766 1.606-.762 1.658l.01.164H54.947c.101 0 .248-.036.366-.21.321-.47.218-1.676-.008-2.258-.316-.82-.718-1.257-1.084-1.206-.013.002-.02.01-.032.012v-1.513c.76-.265 1.05-.61 1.067-.633.028-.035.042-.079.038-.123-.003-.053-.194-2.638-.405-5.693l5.28 6.693.016.018c.117.147.242.286.372.419.042.042.085.08.128.12.1.096.201.188.307.275.046.037.092.071.138.106.112.085.226.166.344.242l.125.078c.13.08.265.152.403.22l.093.046c.16.074.323.141.49.2l.034.012c.356.122.726.21 1.109.254.21.025.418.037.625.037 1.026 0 2.02-.298 2.881-.86l.041-.025c.127-.084.252-.174.373-.27 1.294-1.03 1.984-2.545 2.015-4.085.024-1.198-.35-2.411-1.147-3.421z" transform="translate(-41.000000, -427.000000) translate(41.000000, 427.000000) translate(3.396226, 4.270833) translate(15.396747, 7.803976)"/>
                    </g>
                </g>
            </g>
        </g>
    </g>
</svg>
